# Blender v2.90.1 OBJ File: ''
# www.blender.org
mtllib GodHimself.mtl
o Cube
v 0.500000 0.500000 -0.500000
v 0.500000 -0.500000 -0.500000
v 0.500000 0.500000 0.500000
v 0.500000 -0.500000 0.500000
v -0.500000 0.500000 -0.500000
v -0.500000 -0.500000 -0.500000
v -0.500000 0.500000 0.500000
v -0.500000 -0.500000 0.500000
vt 0.625000 0.500000
vt 0.875000 0.500000
vt 0.875000 0.750000
vt 0.625000 0.750000
vt 0.125000 0.500000
vt 0.375000 0.500000
vt 0.375000 0.750000
vt 0.125000 0.750000
vt 0.375000 0.000000
vt 0.625000 0.000000
vt 0.625000 0.250000
vt 0.375000 0.250000
vt 0.625000 1.000000
vt 0.375000 1.000000
vn 0.0000 1.0000 0.0000
vn 0.0000 -1.0000 0.0000
vn -1.0000 0.0000 0.0000
vn 1.0000 0.0000 0.0000
vn 0.0000 0.0000 1.0000
vn 0.0000 0.0000 -1.0000
usemtl y
s off
f 1/1/1 5/2/1 7/3/1 3/4/1
f 6/5/2 2/6/2 4/7/2 8/8/2
usemtl x
f 8/9/3 7/10/3 5/11/3 6/12/3
f 2/6/4 1/1/4 3/4/4 4/7/4
usemtl z
f 4/7/5 3/4/5 7/13/5 8/14/5
f 6/12/6 5/11/6 1/1/6 2/6/6
