# Blender v2.91.0 OBJ File: 'light.blend'
# www.blender.org
mtllib light.mtl
o Cube
v 0.789177 0.197294 -0.143855
v 0.789177 -0.197294 -0.143855
v 1.000000 0.250000 0.019534
v 1.000000 -0.250000 0.019534
v -0.789177 0.197294 -0.143855
v -0.789177 -0.197294 -0.143855
v -1.000000 0.250000 0.019534
v -1.000000 -0.250000 0.019534
v 1.000000 -0.250000 -0.143855
v -1.000000 -0.250000 -0.143855
v 1.000000 0.250000 -0.143855
v -1.000000 0.250000 -0.143855
v 0.589177 -0.147294 -0.230466
v -0.589177 -0.147294 -0.230466
v 0.589177 0.147294 -0.230466
v -0.589177 0.147294 -0.230466
v 1.000000 0.000000 -0.143855
v -1.000000 0.000000 0.019534
v 1.000000 0.000000 0.019534
v -1.000000 0.000000 -0.143855
v 0.789177 0.000000 -0.143855
v -0.789177 0.000000 -0.143855
v 0.589177 0.050000 -0.230466
v -0.589177 0.050000 -0.230466
v -0.789177 0.197294 -0.230466
v 0.789177 0.197294 -0.230466
v 0.589177 -0.050000 -0.230466
v -0.589177 -0.050000 -0.230466
v 0.789177 -0.197294 -0.230466
v -0.789177 -0.197294 -0.230466
v 0.789177 0.000000 -0.230466
v -0.789177 0.000000 -0.230466
v -0.589177 0.147294 -0.194390
v 0.589177 0.147294 -0.194390
v 0.589177 0.050000 -0.194390
v -0.589177 0.050000 -0.194390
v 0.589177 -0.147294 -0.194390
v -0.589177 -0.147294 -0.194390
v 0.589177 -0.050000 -0.194390
v -0.589177 -0.050000 -0.194390
vt 0.500000 0.276353
vt 0.598647 0.276353
vt 0.598647 0.276353
vt 0.500000 0.276353
vt 0.573647 0.301353
vt 0.573647 0.448647
vt 0.573647 0.448647
vt 0.573647 0.301353
vt 0.401353 0.473647
vt 0.401353 0.276353
vt 0.401353 0.276353
vt 0.401353 0.473647
vt 0.598647 0.473647
vt 0.598647 0.473647
vt 0.500000 0.473647
vt 0.500000 0.473647
vt 0.475000 0.301353
vt 0.475000 0.448647
vt 0.475000 0.448647
vt 0.475000 0.301353
vt 0.525000 0.448647
vt 0.525000 0.301353
vt 0.426353 0.301353
vt 0.426353 0.448647
vt 0.426353 0.448647
vt 0.525000 0.301353
vt 0.525000 0.448647
vt 0.426353 0.301353
vt 0.625000 0.500000
vt 0.875000 0.500000
vt 0.875000 0.750000
vt 0.625000 0.750000
vt 0.500000 0.750000
vt 0.625000 1.000000
vt 0.500000 1.000000
vt 0.500000 0.000000
vt 0.625000 0.000000
vt 0.625000 0.250000
vt 0.500000 0.250000
vt 0.125000 0.500000
vt 0.375000 0.500000
vt 0.375000 0.750000
vt 0.125000 0.750000
vt 0.500000 0.500000
vt 0.375000 0.250000
vt 0.375000 0.000000
vt 0.375000 1.000000
vn -1.0000 0.0000 0.0000
vn 0.0000 -1.0000 0.0000
vn 0.0000 1.0000 0.0000
vn 1.0000 0.0000 0.0000
vn 0.0000 0.0000 -1.0000
vn 0.0000 0.0000 1.0000
usemtl Material
s off
f 22/1/1 5/2/1 25/3/1 32/4/1
f 16/5/2 15/6/2 34/7/2 33/8/2
f 2/9/2 6/10/2 30/11/2 29/12/2
f 5/2/3 1/13/3 26/14/3 25/3/3
f 21/15/4 2/9/4 29/12/4 31/16/4
f 1/13/4 21/15/4 31/16/4 26/14/4
f 28/17/2 27/18/2 39/19/2 40/20/2
f 6/10/1 22/1/1 32/4/1 30/11/1
f 15/6/5 16/5/5 25/3/5 26/14/5
f 23/21/5 15/6/5 26/14/5 31/16/5
f 16/5/5 24/22/5 32/4/5 25/3/5
f 24/22/5 23/21/5 31/16/5 32/4/5
f 14/23/5 13/24/5 29/12/5 30/11/5
f 13/24/5 27/18/5 31/16/5 29/12/5
f 28/17/5 14/23/5 30/11/5 32/4/5
f 27/18/5 28/17/5 32/4/5 31/16/5
f 27/18/1 13/24/1 37/25/1 39/19/1
f 23/21/3 24/22/3 36/26/3 35/27/3
f 15/6/1 23/21/1 35/27/1 34/7/1
f 14/23/4 28/17/4 40/20/4 38/28/4
f 13/24/3 14/23/3 38/28/3 37/25/3
f 24/22/4 16/5/4 33/8/4 36/26/4
usemtl Material.001
f 11/29/3 12/30/3 7/31/3 3/32/3
f 19/33/6 3/32/6 7/34/6 18/35/6
f 18/36/1 7/37/1 12/38/1 20/39/1
f 10/40/2 9/41/2 4/42/2 8/43/2
f 17/44/4 11/29/4 3/32/4 19/33/4
f 6/10/5 2/9/5 9/41/5 10/45/5
f 21/15/5 1/13/5 11/29/5 17/44/5
f 22/1/5 6/10/5 10/45/5 20/39/5
f 1/13/5 5/2/5 12/38/5 11/29/5
f 5/2/5 22/1/5 20/39/5 12/38/5
f 2/9/5 21/15/5 17/44/5 9/41/5
f 9/41/4 17/44/4 19/33/4 4/42/4
f 8/46/1 18/36/1 20/39/1 10/45/1
f 4/42/6 19/33/6 18/35/6 8/47/6
usemtl Material.002
f 36/26/5 33/8/5 34/7/5 35/27/5
f 38/28/5 40/20/5 39/19/5 37/25/5
