# Blender v2.91.0 OBJ File: 'Rifle.blend'
# www.blender.org
mtllib machineGun.mtl
o Pulse_Rifle_Cube.002
v -0.022239 -0.136943 0.040464
v -0.021668 0.136943 0.134709
v -0.022727 -0.136943 -0.040192
v 0.022727 -0.136943 0.040192
v 0.023298 0.136943 0.134436
v 0.022239 -0.136943 -0.040464
v -0.022239 0.058087 0.040464
v 0.022239 0.058087 -0.040464
v -0.022727 0.058087 -0.040192
v 0.022727 0.058087 0.040192
v -0.005082 0.061230 -0.838914
v -0.005082 0.132481 -0.838914
v -0.005082 0.101977 -0.838914
v -0.024091 0.097515 -0.265288
v 0.019781 0.136943 -0.446224
v -0.021668 0.117229 0.134709
v 0.023298 0.117229 0.134436
v 0.019623 0.136943 -0.472215
v 0.023388 0.111904 -0.260866
v -0.026547 0.080283 -0.260564
v -0.025186 0.058087 -0.446110
v 0.019780 0.058087 -0.446383
v 0.023388 0.086502 -0.260866
v 0.023388 0.102839 -0.260866
v -0.026547 0.111904 -0.260564
v -0.026547 0.102839 -0.260564
v -0.026547 0.086502 -0.260564
v 0.023388 0.080283 -0.260866
v -0.025186 0.136943 -0.445952
v -0.025343 0.058087 -0.471942
v 0.019623 0.058087 -0.472215
v 0.019623 0.091827 -0.472215
v 0.019623 0.097515 -0.472215
v -0.025343 0.097515 -0.471942
v -0.025343 0.091827 -0.471942
v -0.025343 0.136943 -0.471942
v 0.017294 0.117229 -0.856725
v 0.005702 0.128014 -0.838979
v -0.018809 0.074957 -0.838830
v -0.014789 0.065250 -0.838855
v 0.004624 0.065250 -0.838972
v -0.020334 0.117229 -0.838821
v -0.015867 0.106444 -0.838848
v 0.017294 0.074958 -0.856725
v 0.004624 0.084664 -0.838972
v -0.015867 0.128014 -0.838848
v 0.005702 0.106444 -0.838979
v -0.014789 0.084664 -0.838855
v -0.005082 0.088685 -0.838914
v -0.005082 0.117229 -0.838914
v -0.005082 0.074958 -0.838914
v -0.027672 0.058087 -0.856452
v -0.005189 0.058087 -0.856589
v -0.027672 0.136943 -0.856452
v -0.005189 0.136943 -0.856589
v -0.027672 0.097515 -0.856452
v -0.005189 0.097515 -0.856589
v -0.027672 0.091827 -0.856452
v -0.005189 0.091827 -0.856589
v 0.010170 0.117229 -0.839006
v 0.017294 0.136943 -0.856725
v -0.027672 0.074958 -0.856452
v -0.027672 0.117229 -0.856452
v 0.017294 0.097515 -0.856725
v 0.008645 0.074957 -0.838997
v 0.017294 0.091827 -0.856725
v 0.017294 0.058087 -0.856725
v 0.023691 0.117229 0.199193
v -0.021275 0.058087 0.199465
v 0.023691 0.058087 0.199193
v -0.021275 0.117229 0.199465
v -0.095260 0.212163 0.199913
v 0.097675 0.212163 0.198745
v 0.020875 0.097515 -0.265561
v 0.010997 0.136943 -0.040396
v 0.012057 0.136943 0.134504
v 0.001781 0.074958 -0.838955
v 0.002544 0.117229 -0.838960
v 0.006052 0.097515 -0.856657
v 0.006052 0.136943 -0.856657
v 0.006052 0.058087 -0.856657
v 0.006052 0.091827 -0.856657
v 0.000310 0.104210 -0.838946
v 0.000310 0.130247 -0.838946
v -0.000229 0.063240 -0.838943
v -0.000229 0.086674 -0.838943
v 0.012449 0.136943 0.199261
v 0.009008 0.136943 -0.368820
v -0.016431 0.058087 -0.856520
v -0.016431 0.136943 -0.856520
v -0.016431 0.097515 -0.856520
v -0.010426 0.136943 0.134641
v -0.016431 0.091827 -0.856520
v -0.011486 0.136943 -0.040260
v -0.012708 0.117229 -0.838867
v -0.011946 0.074958 -0.838872
v -0.009936 0.063240 -0.838884
v -0.010475 0.130247 -0.838881
v -0.010475 0.104210 -0.838881
v -0.009936 0.086674 -0.838884
v -0.010034 0.136943 0.199397
v -0.013475 0.136943 -0.368683
v -0.011486 0.154541 -0.040260
v 0.009008 0.154541 -0.368820
v 0.010997 0.154541 -0.040396
v -0.013475 0.154541 -0.368683
v -0.006430 0.160053 -0.029343
v 0.004743 0.160053 -0.474262
v 0.007438 0.160053 -0.029427
v -0.009125 0.160053 -0.474178
v -0.006939 0.195927 -0.113412
v 0.005702 0.195927 -0.316072
v 0.006929 0.195927 -0.113497
v -0.008166 0.195927 -0.315988
v 0.017428 0.136943 -0.834489
v -0.027538 0.097515 -0.834216
v 0.017428 0.097515 -0.834489
v -0.027538 0.136943 -0.834216
v 0.006187 0.136943 -0.834421
v -0.016296 0.136943 -0.834284
v 0.017366 0.136943 -0.844866
v -0.027601 0.136943 -0.844593
v 0.017366 0.097515 -0.844866
v -0.027601 0.097515 -0.844593
v 0.006124 0.136943 -0.844797
v -0.016359 0.136943 -0.844661
v 0.006124 0.140995 -0.844797
v 0.006187 0.140995 -0.834421
v -0.016359 0.140995 -0.844661
v -0.016296 0.140995 -0.834284
v -0.022239 0.002710 0.040464
v 0.022727 0.002710 0.040192
v 0.022239 0.002710 -0.040464
v 0.010997 0.002710 -0.040396
v -0.011486 0.002710 -0.040260
v -0.023058 0.117229 -0.094800
v -0.023058 0.097515 -0.094800
v -0.023058 0.074958 -0.094800
v -0.023058 0.091827 -0.094800
v 0.021908 0.097515 -0.095072
v 0.021908 0.091827 -0.095072
v 0.021908 0.117229 -0.095072
v 0.021908 0.074958 -0.095072
v -0.011817 0.058087 -0.094868
v -0.011486 0.058087 -0.040260
v 0.010997 0.058087 -0.040396
v 0.010666 0.058087 -0.095004
v 0.010633 0.052517 -0.100575
v -0.011850 0.052517 -0.100438
v -0.011520 0.052517 -0.045830
v 0.010963 0.052517 -0.045966
v 0.010963 -0.002860 -0.045966
v -0.011520 -0.002860 -0.045830
v -0.048236 0.117229 -0.094648
v -0.046523 0.111904 -0.222138
v -0.048236 0.097515 -0.094648
v -0.046523 0.102839 -0.222138
v -0.048236 0.091827 -0.094648
v -0.046523 0.086502 -0.222138
v -0.046523 0.080283 -0.222138
v -0.048236 0.074958 -0.094648
v 0.047085 0.091827 -0.095225
v 0.043829 0.086502 -0.222685
v 0.047085 0.117229 -0.095225
v 0.043829 0.111904 -0.222685
v 0.043829 0.102839 -0.222685
v 0.043829 0.080283 -0.222685
v 0.047085 0.097515 -0.095225
v 0.047085 0.074958 -0.095225
v -0.048979 0.097515 -0.217414
v -0.024091 0.091827 -0.265288
v -0.048979 0.091827 -0.217414
v 0.046342 0.091827 -0.217991
v 0.020875 0.091827 -0.265561
v -0.024091 0.117229 -0.265288
v 0.020875 0.074958 -0.265561
v 0.020875 0.117229 -0.265561
v -0.024091 0.074958 -0.265288
v 0.046342 0.097515 -0.217991
v -0.048979 0.117229 -0.217414
v -0.048979 0.074958 -0.217414
v 0.046342 0.074958 -0.217991
v 0.046342 0.117229 -0.217991
v -0.022239 -0.007712 0.040464
v 0.022239 -0.007712 -0.040464
v -0.022239 -0.108803 0.040464
v -0.022727 -0.108803 -0.040192
v 0.022727 -0.108803 0.040192
v 0.022239 -0.108803 -0.040464
v -0.022239 -0.098233 0.040464
v 0.022727 -0.098233 0.040192
v -0.022727 0.002710 -0.040192
v -0.022727 -0.007712 -0.040192
v 0.022727 -0.007712 0.040192
v -0.022727 -0.098233 -0.040192
v 0.022239 -0.098233 -0.040464
v -0.027754 0.091827 -0.834081
v 0.017212 0.091827 -0.834354
v 0.017212 0.058087 -0.834354
v -0.027754 0.058087 -0.834081
v -0.027715 0.058087 -0.844626
v 0.017251 0.091827 -0.844899
v -0.027715 0.091827 -0.844626
v 0.017251 0.058087 -0.844899
v 0.019781 0.097515 -0.446224
v -0.025186 0.097515 -0.445952
v -0.025186 0.091827 -0.446110
v 0.019780 0.091827 -0.446383
vt 0.687500 0.750000
vt 0.687500 0.500000
vt 0.812500 0.500000
vt 0.812500 0.750000
vt 0.607005 0.500000
vt 0.553021 0.500000
vt 0.553021 0.500000
vt 0.607005 0.500000
vt 0.502474 0.500000
vt 0.553021 0.750000
vt 0.502474 0.750000
vt 0.410334 0.250000
vt 0.492961 0.250000
vt 0.492961 0.500000
vt 0.410334 0.500000
vt 0.502474 0.937500
vt 0.553021 0.937500
vt 0.553021 1.000000
vt 0.502474 1.000000
vt 0.553021 0.250000
vt 0.607005 0.250000
vt 0.607005 0.250000
vt 0.553021 0.250000
vt 0.400686 0.000000
vt 0.400686 0.250000
vt 0.375000 0.250000
vt 0.375000 0.000000
vt 0.553021 0.937500
vt 0.553021 1.000000
vt 0.625000 0.500000
vt 0.625000 0.500000
vt 0.687500 0.500000
vt 0.625000 0.250000
vt 0.625000 0.250000
vt 0.553021 0.937500
vt 0.553021 0.875000
vt 0.553021 0.875000
vt 0.400686 0.500000
vt 0.375000 0.500000
vt 0.568421 0.000000
vt 0.568421 0.000000
vt 0.568421 0.000000
vt 0.568421 0.000000
vt 0.568421 0.750000
vt 0.568421 0.750000
vt 0.553021 0.750000
vt 0.607005 0.750000
vt 0.607005 0.750000
vt 0.607005 0.750000
vt 0.607005 0.750000
vt 0.589011 0.562500
vt 0.589011 0.562500
vt 0.589011 0.375000
vt 0.607005 0.000000
vt 0.589011 0.000000
vt 0.589011 0.000000
vt 0.607005 0.000000
vt 0.553021 0.812500
vt 0.553021 0.812500
vt 0.583819 0.562500
vt 0.583819 0.562500
vt 0.583819 0.375000
vt 0.625000 0.000000
vt 0.607005 0.000000
vt 0.625000 0.000000
vt 0.583819 0.000000
vt 0.553021 0.000000
vt 0.553021 0.000000
vt 0.583819 0.000000
vt 0.687500 0.750000
vt 0.687500 0.750000
vt 0.625000 0.750000
vt 0.625000 0.750000
vt 0.750000 0.750000
vt 0.553021 0.000000
vt 0.553021 0.000000
vt 0.625000 0.750000
vt 0.625000 0.750000
vt 0.553021 0.750000
vt 0.553021 0.750000
vt 0.553021 0.812500
vt 0.607005 0.000000
vt 0.607005 0.000000
vt 0.625000 0.000000
vt 0.583819 0.000000
vt 0.568421 0.000000
vt 0.568421 0.000000
vt 0.583819 0.000000
vt 0.553021 0.000000
vt 0.553021 0.000000
vt 0.589011 0.750000
vt 0.607005 0.750000
vt 0.607005 0.750000
vt 0.589011 0.750000
vt 0.568421 0.750000
vt 0.583819 0.750000
vt 0.583819 0.750000
vt 0.568421 0.750000
vt 0.812500 0.750000
vt 0.812500 0.750000
vt 0.687500 0.750000
vt 0.687500 0.750000
vt 0.583819 0.750000
vt 0.583819 0.750000
vt 0.589011 0.187500
vt 0.589011 0.187500
vt 0.589011 0.000000
vt 0.589011 0.000000
vt 0.875000 0.750000
vt 0.560787 0.491549
vt 0.560787 0.375000
vt 0.553021 0.375000
vt 0.553021 0.562500
vt 0.666084 0.638098
vt 0.643879 0.688033
vt 0.596777 0.491549
vt 0.596777 0.375000
vt 0.576052 0.491549
vt 0.576052 0.608098
vt 0.607005 0.141902
vt 0.732697 0.488291
vt 0.875000 0.750000
vt 0.568421 0.608098
vt 0.560787 0.608098
vt 0.607005 0.608098
vt 0.596777 0.608098
vt 0.596777 0.258451
vt 0.596777 0.141902
vt 0.568421 0.141902
vt 0.576052 0.141902
vt 0.710493 0.538227
vt 0.688288 0.588162
vt 0.812500 0.750000
vt 0.560787 0.258451
vt 0.560787 0.141902
vt 0.553021 0.187500
vt 0.576052 0.258451
vt 0.576052 0.375000
vt 0.583819 0.187500
vt 0.607005 0.437500
vt 0.625000 0.437500
vt 0.625000 0.312500
vt 0.607005 0.312500
vt 0.812500 0.500000
vt 0.589011 0.000000
vt 0.607005 0.000000
vt 0.589011 0.750000
vt 0.607005 0.750000
vt 0.875000 0.750000
vt 0.812500 0.750000
vt 0.875000 0.750000
vt 0.400686 0.750000
vt 0.400686 1.000000
vt 0.375000 1.000000
vt 0.375000 0.750000
vt 0.589011 0.375000
vt 0.875000 0.750000
vt 0.812500 0.750000
vt 0.553021 0.937500
vt 0.553021 1.000000
vt 0.875000 0.750000
vt 0.812500 0.750000
vt 0.875000 0.500000
vt 0.875000 0.500000
vt 0.687500 0.750000
vt 0.625000 0.750000
vt 0.625000 0.750000
vt 0.502474 0.812500
vt 0.553021 0.812500
vt 0.687500 0.750000
vt 0.589011 0.750000
vt 0.502474 0.250000
vt 0.687500 0.750000
vt 0.687500 0.750000
vt 0.410334 0.000000
vt 0.492961 0.000000
vt 0.583819 0.750000
vt 0.607005 0.750000
vt 0.583819 0.750000
vt 0.589011 0.750000
vt 0.583819 0.000000
vt 0.589011 0.000000
vt 0.568421 0.000000
vt 0.589011 0.750000
vt 0.553021 0.937500
vt 0.553021 0.812500
vt 0.502474 0.812500
vt 0.502474 0.937500
vt 0.568421 0.750000
vt 0.583819 0.750000
vt 0.583819 0.750000
vt 0.568421 0.750000
vt 0.589011 0.750000
vt 0.589011 0.750000
vt 0.589011 0.000000
vt 0.607005 0.000000
vt 0.583819 0.000000
vt 0.583819 0.000000
vt 0.593871 0.750000
vt 0.593871 0.750000
vt 0.578958 0.750000
vt 0.578958 0.750000
vt 0.583819 0.750000
vt 0.578958 0.000000
vt 0.578958 0.000000
vt 0.583819 0.000000
vt 0.602145 0.750000
vt 0.573281 0.000000
vt 0.602145 0.000000
vt 0.593871 0.000000
vt 0.573281 0.750000
vt 0.593871 0.000000
vt 0.602145 0.750000
vt 0.573281 0.750000
vt 0.573281 0.000000
vt 0.602145 0.000000
vt 0.492961 0.750000
vt 0.410334 0.750000
vt 0.502474 0.000000
vt 0.492961 0.812500
vt 0.492961 1.000000
vt 0.410334 1.000000
vt 0.583819 0.000000
vt 0.553021 1.000000
vt 0.553021 0.750000
vt 0.553021 0.750000
vt 0.553021 1.000000
vt 0.589011 0.000000
vt 0.583819 0.375000
vt 0.583819 0.187500
vt 0.583819 0.000000
vt 0.568421 0.000000
vt 0.568421 0.750000
vt 0.583819 0.750000
vt 0.589011 0.750000
vt 0.589011 0.750000
vt 0.589011 0.000000
vt 0.589011 0.000000
vt 0.625000 0.000000
vt 0.625000 0.000000
vt 0.607005 0.258451
vt 0.607005 0.375000
vt 0.568421 0.491549
vt 0.568421 0.375000
vt 0.607005 0.491549
vt 0.568421 0.258451
vt 0.812500 0.750000
vt 0.812500 0.750000
vt 0.553021 0.937500
vt 0.553021 0.812500
vt 0.687500 0.750000
vt 0.687500 0.750000
vt 0.687500 0.750000
vt 0.687500 0.750000
vt 0.812500 0.750000
vt 0.812500 0.750000
vt 0.812500 0.750000
vt 0.812500 0.750000
vt 0.625000 0.000000
vt 0.492961 0.937500
vt 0.553021 1.000000
vn 0.0000 1.0000 -0.0000
vn -1.0000 0.0000 0.0061
vn 0.0061 0.0000 1.0000
vn -0.0061 0.0000 -1.0000
vn 1.0000 0.0000 -0.0061
vn 0.0000 -1.0000 0.0000
vn 0.6108 0.7841 -0.1098
vn 0.6541 0.0000 -0.7565
vn 1.0000 0.0000 -0.0067
vn 1.0000 0.0000 0.0036
vn -1.0000 0.0000 -0.0036
vn -0.7887 -0.6147 0.0048
vn 0.1186 0.9615 -0.2480
vn 0.1161 -0.8850 -0.4509
vn 0.1243 0.9398 -0.3183
vn 0.1122 -0.9172 -0.3823
vn -0.8639 -0.1261 -0.4876
vn 0.8324 0.1264 -0.5396
vn 0.8579 0.1261 -0.4981
vn -0.1216 0.8850 -0.4494
vn -0.8388 -0.1264 -0.5295
vn -0.1281 -0.9398 -0.3167
vn -0.1169 0.9172 -0.3809
vn -0.8639 0.1261 -0.4876
vn 0.8579 -0.1261 -0.4981
vn 0.8323 -0.1264 -0.5396
vn -0.8388 0.1264 -0.5295
vn -0.1216 -0.9615 -0.2466
vn -0.1169 -0.9172 -0.3809
vn -0.1216 0.9615 -0.2466
vn -0.1216 -0.8850 -0.4494
vn -0.1281 0.9398 -0.3167
vn -0.6121 0.7841 -0.1024
vn 0.1186 -0.9615 -0.2480
vn 0.1161 0.8850 -0.4509
vn 0.1243 -0.9398 -0.3183
vn 0.1122 0.9172 -0.3823
vn -0.0043 0.7071 -0.7071
vn 0.0043 -0.7071 0.7071
vn -0.8873 -0.0000 -0.4613
vn 0.8816 0.0000 -0.4720
vn -1.0000 0.0000 0.0067
vn 0.7887 -0.6147 -0.0048
vn -0.6632 0.0000 -0.7485
vn -0.0060 -0.0000 -1.0000
vn 0.0027 -0.8932 0.4497
vn -0.0003 -0.9986 -0.0522
vn 0.0024 0.9198 0.3925
vn 0.8355 0.5495 -0.0051
vn -0.0013 0.9752 -0.2212
vn -0.7413 0.6711 0.0045
usemtl Material.013
s off
f 94/1/1 92/2/1 76/3/1 75/4/1
f 16/5/2 7/6/2 69/7/2 71/8/2
f 131/9/2 7/6/2 9/10/2 192/11/2
f 191/12/3 194/13/3 184/14/3 190/15/3
f 134/16/4 146/17/4 8/18/4 133/19/4
f 10/20/5 17/21/5 68/22/5 70/23/5
f 189/24/5 188/25/5 4/26/5 6/27/5
f 8/18/6 146/17/6 147/28/6 22/29/6
f 92/2/7 2/30/7 72/31/7 101/32/7
f 17/21/8 5/33/8 73/34/8
f 204/35/6 201/36/6 53/37/6
f 4/26/3 188/25/3 186/38/3 1/39/3
f 143/40/6 176/41/6 182/42/6 169/43/6
f 9/10/2 138/44/2 178/45/2 21/46/2
f 136/47/1 175/48/1 180/49/1 154/50/1
f 124/51/6 91/52/6 57/53/6
f 142/54/3 140/55/3 168/56/3 164/57/3
f 9/10/6 21/46/6 144/58/6 145/59/6
f 93/60/1 203/61/1 59/62/1
f 5/63/5 142/54/5 177/64/5 15/65/5
f 32/66/9 31/67/9 199/68/9 198/69/9
f 126/70/1 90/71/1 54/72/1 122/73/1
f 55/74/1 90/71/1 126/70/1
f 143/40/5 8/75/5 22/76/5 176/41/5
f 136/47/2 2/77/2 29/78/2 175/48/2
f 201/79/6 52/80/6 89/81/6
f 121/82/5 37/83/5 61/84/5
f 202/85/10 204/86/10 44/87/10 66/88/10
f 204/89/10 67/90/10 44/87/10
f 124/91/2 122/92/2 63/93/2 56/94/2
f 201/95/11 203/96/11 58/97/11 62/98/11
f 122/73/2 54/72/2 63/93/2
f 105/99/1 104/100/1 106/101/1 103/102/1
f 35/103/1 32/66/1 198/69/1 197/104/1
f 123/105/6 79/106/6 64/107/6
f 201/95/11 62/98/11 52/80/11
f 121/82/5 123/108/5 64/107/5 37/83/5
f 76/3/1 5/109/1 75/4/1
f 16/5/12 71/8/12 72/31/12
f 97/110/13 11/111/13 53/112/13 89/113/13
f 98/114/14 46/115/14 54/72/14 90/71/14
f 99/116/15 13/117/15 57/53/15 91/52/15
f 100/118/16 48/119/16 58/97/16 93/60/16
f 60/120/17 38/121/17 61/122/17 37/83/17
f 39/123/18 40/124/18 52/80/18 62/98/18
f 42/125/19 43/126/19 56/94/19 63/93/19
f 83/127/20 47/128/20 64/107/20 79/106/20
f 65/129/21 45/130/21 66/88/21 44/87/21
f 84/131/22 12/132/22 55/74/22 80/133/22
f 85/134/23 41/135/23 67/90/23 81/136/23
f 47/128/24 60/120/24 37/83/24 64/107/24
f 46/115/25 42/125/25 63/93/25 54/72/25
f 48/119/26 39/123/26 62/98/26 58/97/26
f 41/135/27 65/129/27 44/87/27 67/90/27
f 86/137/28 49/138/28 59/62/28 82/139/28
f 71/140/3 101/141/3 72/31/3
f 87/142/3 101/141/3 71/140/3 68/143/3
f 76/3/1 92/2/1 101/32/1 87/144/1
f 177/64/5 74/145/5 15/146/5
f 14/147/2 175/48/2 29/148/2
f 115/149/1 119/150/1 18/151/1
f 68/22/3 73/34/3 87/142/3
f 45/130/29 86/137/29 82/139/29 66/88/29
f 11/111/30 85/134/30 81/136/30 53/112/30
f 38/121/31 84/131/31 80/133/31 61/122/31
f 13/117/32 83/127/32 79/106/32 57/53/32
f 187/152/4 189/153/4 6/154/4 3/155/4
f 123/156/6 57/53/6 79/106/6
f 75/4/1 5/109/1 15/157/1 88/158/1
f 204/35/6 81/159/6 67/160/6
f 121/161/1 61/122/1 80/133/1 125/162/1
f 5/163/33 76/3/33 87/144/33 73/164/33
f 120/165/1 118/166/1 36/167/1
f 49/138/34 100/118/34 93/60/34 59/62/34
f 43/126/35 99/116/35 91/52/35 56/94/35
f 12/132/36 98/114/36 90/71/36 55/74/36
f 40/124/37 97/110/37 89/113/37 52/80/37
f 192/11/4 9/10/4 145/59/4 135/168/4
f 201/169/6 89/81/6 53/37/6
f 124/91/6 56/94/6 91/52/6
f 94/1/1 102/170/1 29/78/1 2/77/1
f 29/78/1 102/170/1 88/158/1 15/157/1
f 119/150/1 120/165/1 36/167/1 18/151/1
f 29/78/2 206/171/2 14/147/2
f 7/6/3 131/9/3 132/172/3 10/20/3
f 80/133/1 55/74/1 125/162/1
f 126/70/2 120/165/2 130/173/2 129/174/2
f 125/162/1 55/74/1 126/70/1
f 196/175/5 185/176/5 194/13/5 191/12/5
f 9/177/2 2/178/2 139/179/2 138/44/2
f 2/178/2 136/47/2 137/180/2 139/179/2
f 141/181/5 5/182/5 8/183/5 143/40/5
f 140/55/5 142/54/5 5/182/5 141/181/5
f 2/184/2 9/10/2 7/6/2 16/5/2
f 146/17/38 151/185/38 150/186/38 145/59/38
f 134/16/39 135/168/39 153/187/39 152/188/39
f 161/189/2 158/190/2 172/191/2 181/192/2
f 156/193/2 154/50/2 180/49/2 170/194/2
f 137/180/3 136/47/3 154/50/3 156/193/3
f 178/45/6 138/44/6 161/189/6 181/192/6
f 138/44/3 139/179/3 158/190/3 161/189/3
f 164/57/5 168/56/5 179/195/5 183/196/5
f 162/197/5 169/43/5 182/42/5 173/198/5
f 141/181/3 143/40/3 169/43/3 162/197/3
f 177/64/1 142/54/1 164/57/1 183/196/1
f 157/199/40 26/200/40 14/147/40 170/194/40
f 27/201/40 159/202/40 172/191/40 171/203/40
f 163/204/41 23/205/41 174/206/41 173/198/41
f 26/200/40 25/207/40 175/48/40 14/147/40
f 23/205/41 28/208/41 176/41/41 174/206/41
f 19/209/41 24/210/41 74/145/41 177/64/41
f 20/211/40 27/201/40 171/203/40 178/45/40
f 24/210/41 166/212/41 179/195/41 74/145/41
f 155/213/40 157/199/40 170/194/40 180/49/40
f 159/202/40 160/214/40 181/192/40 172/191/40
f 25/207/40 155/213/40 180/49/40 175/48/40
f 160/214/40 20/211/40 178/45/40 181/192/40
f 167/215/41 163/204/41 173/198/41 182/42/41
f 166/212/41 165/216/41 183/196/41 179/195/41
f 28/208/41 167/215/41 182/42/41 176/41/41
f 165/216/41 19/209/41 177/64/41 183/196/41
f 190/15/2 184/14/2 193/217/2 195/218/2
f 186/38/2 187/152/2 3/155/2 1/39/2
f 68/143/3 71/8/3 69/7/3 70/23/3
f 70/23/6 69/7/6 7/6/6 10/20/6
f 3/155/6 6/154/6 4/26/6 1/39/6
f 133/219/5 8/75/5 10/20/5 132/172/5
f 193/220/4 185/221/4 196/222/4 195/218/4
f 5/33/5 17/21/5 10/20/5 8/223/5
f 94/1/1 2/30/1 92/2/1
f 31/224/6 30/225/6 200/226/6 199/227/6
f 74/145/6 14/147/6 206/171/6 205/228/6
f 30/225/42 35/103/42 197/104/42 200/226/42
f 203/61/1 202/229/1 59/62/1
f 82/139/1 202/85/1 66/88/1
f 59/62/1 202/230/1 82/139/1
f 58/97/1 203/61/1 93/60/1
f 22/76/5 208/231/5 174/206/5
f 74/145/5 205/228/5 15/146/5
f 123/156/6 124/51/6 57/53/6
f 174/206/5 176/41/5 22/232/5
f 178/45/2 171/203/2 21/233/2
f 21/233/2 171/203/2 207/234/2
f 34/235/2 36/167/2 118/166/2 116/236/2
f 207/234/1 171/203/1 174/206/1 208/231/1
f 116/236/6 117/237/6 33/238/6 34/235/6
f 18/239/5 33/238/5 117/237/5 115/240/5
f 81/159/6 204/35/6 53/37/6
f 147/28/6 144/58/6 21/46/6 22/29/6
f 68/22/43 17/21/43 73/34/43
f 2/30/44 16/5/44 72/31/44
usemtl Material.012
f 139/179/3 137/180/3 156/193/3 158/190/3
f 84/131/4 78/241/4 50/242/4 12/132/4
f 14/147/40 171/203/40 172/191/40 170/194/40
f 174/206/41 74/145/41 179/195/41 173/198/41
f 96/243/4 51/244/4 11/111/4 97/110/4
f 95/245/4 50/242/4 13/117/4 99/116/4
f 86/137/4 77/246/4 51/244/4 49/138/4
f 98/114/4 95/245/4 42/125/4 46/115/4
f 78/241/4 60/120/4 47/128/4 83/127/4
f 100/118/4 96/243/4 39/123/4 48/119/4
f 77/246/4 65/129/4 41/135/4 85/134/4
f 51/244/45 77/246/45 85/134/45 11/111/45
f 50/242/45 78/241/45 83/127/45 13/117/45
f 45/130/4 65/129/4 77/246/4 86/137/4
f 38/121/4 60/120/4 78/241/4 84/131/4
f 171/203/4 14/147/4 74/145/4 174/206/4
f 49/138/4 51/244/4 96/243/4 100/118/4
f 12/132/4 50/242/4 95/245/4 98/114/4
f 42/125/4 95/245/4 99/116/4 43/126/4
f 39/123/4 96/243/4 97/110/4 40/124/4
f 158/190/2 156/193/2 170/194/2 172/191/2
f 25/207/40 26/200/40 157/199/40 155/213/40
f 27/201/40 20/211/40 160/214/40 159/202/40
f 168/56/5 162/197/5 173/198/5 179/195/5
f 140/55/3 141/181/3 162/197/3 168/56/3
f 28/208/41 23/205/41 163/204/41 167/215/41
f 24/210/41 19/209/41 165/216/41 166/212/41
usemtl Material.011
f 128/247/1 127/248/1 129/174/1 130/173/1
f 88/158/4 102/170/4 106/101/4 104/100/4
f 94/1/3 75/4/3 105/99/3 103/102/3
f 75/4/5 88/158/5 104/100/5 105/99/5
f 120/165/3 119/150/3 128/247/3 130/173/3
f 119/150/5 125/162/5 127/248/5 128/247/5
f 126/70/4 129/174/4 127/248/4 125/162/4
f 102/170/2 94/1/2 103/102/2 106/101/2
f 144/58/38 147/28/38 148/249/38 149/250/38
f 151/185/6 150/186/6 149/250/6 148/249/6
f 150/186/4 151/185/4 152/188/4 153/187/4
f 147/28/5 146/17/5 151/185/5 148/249/5
f 146/17/5 134/16/5 152/188/5 151/185/5
f 145/59/2 144/58/2 149/250/2 150/186/2
f 135/168/2 145/59/2 150/186/2 153/187/2
usemtl Material.010
f 110/251/2 107/252/2 111/253/2 114/254/2
f 103/102/46 105/99/46 109/255/46 107/252/46
f 104/100/47 106/101/47 110/251/47 108/256/47
f 107/252/48 109/255/48 113/257/48 111/253/48
f 105/99/49 104/100/49 108/256/49 109/255/49
f 114/254/1 111/253/1 113/257/1 112/258/1
f 108/256/50 110/251/50 114/254/50 112/258/50
f 108/256/5 112/258/5 113/257/5 109/255/5
f 106/101/51 103/102/51 107/252/51 110/251/51
usemtl Material.009
f 116/236/2 118/166/2 122/92/2 124/91/2
f 207/234/1 208/231/1 32/66/1 35/103/1
f 21/46/6 30/225/6 31/224/6 22/29/6
f 15/157/1 18/151/1 36/167/1 29/78/1
f 115/240/5 117/237/5 123/108/5 121/259/5
f 197/104/1 198/69/1 202/229/1 203/96/1
f 115/149/1 121/161/1 125/162/1 119/150/1
f 120/165/1 126/70/1 122/73/1 118/166/1
f 133/219/5 132/172/5 194/13/5 185/176/5
f 193/220/4 135/168/4 134/16/4 185/260/4
f 132/172/3 131/9/3 184/14/3 194/13/3
f 196/175/5 191/12/5 188/25/5 189/24/5
f 131/9/2 192/11/2 193/217/2 184/14/2
f 187/152/4 195/218/4 196/222/4 189/153/4
f 193/217/4 192/11/4 135/168/4
f 185/260/4 134/16/4 133/19/4
f 190/15/2 195/218/2 187/152/2 186/38/2
f 190/15/3 186/38/3 188/25/3 191/12/3
f 21/46/2 207/234/2 35/103/2 30/225/2
f 124/51/6 123/108/6 117/237/6 116/236/6
f 199/68/10 204/86/10 202/85/10 198/69/10
f 200/226/11 197/104/11 203/96/11 201/79/11
f 29/78/2 36/167/2 34/235/2 206/171/2
f 208/231/5 22/76/5 31/67/5 32/66/5
f 200/226/6 201/36/6 204/261/6 199/227/6
f 34/235/6 33/238/6 205/228/6 206/171/6
f 15/65/5 205/228/5 33/238/5 18/239/5
