# Blender v2.91.0 OBJ File: 'Pistol.blend'
# www.blender.org
mtllib Pistol.mtl
o Pistol_Cylinder
v 0.021614 -0.069134 -0.457530
v -0.021614 -0.142001 -0.240626
v 0.021614 0.047567 -0.043985
v 0.033114 -0.175507 -0.009971
v 0.029120 -0.175507 0.028709
v 0.011500 -0.175507 0.053955
v -0.011501 -0.175507 0.053955
v -0.029120 -0.175507 0.028709
v -0.033114 -0.175507 -0.009971
v -0.033114 0.111112 -0.009971
v 0.021614 -0.142001 -0.240626
v -0.021614 0.047567 -0.043985
v 0.019328 0.124242 -0.037226
v 0.026258 0.124242 -0.016730
v 0.028397 0.124242 -0.003211
v 0.033114 0.111112 -0.009971
v 0.025799 0.124242 0.021950
v 0.018245 0.124242 0.035468
v 0.029120 0.111112 0.028709
v 0.010060 0.124242 0.047196
v 0.011500 0.111112 0.053955
v -0.010060 0.124242 0.047196
v -0.011501 0.111112 0.053955
v -0.018245 0.124242 0.035468
v -0.025799 0.124242 0.021950
v -0.029120 0.111112 0.028709
v -0.028397 0.124242 -0.003211
v -0.026258 0.124242 -0.016730
v -0.021614 0.111112 -0.043985
v -0.012548 0.111849 0.015033
v 0.021614 0.111112 -0.043985
v -0.019329 0.124242 -0.037225
v 0.005563 0.068579 -0.458841
v -0.005563 0.068579 -0.458841
v 0.019328 0.119379 -0.452081
v -0.019329 0.119379 -0.452081
v -0.005563 0.080373 -0.458841
v 0.021614 0.106486 -0.438579
v -0.019329 0.119616 -0.431820
v 0.019328 0.119616 -0.431820
v 0.021614 0.042941 -0.438579
v -0.021614 0.106486 -0.438579
v -0.021614 0.042941 -0.438579
v -0.021614 -0.069134 -0.457530
v 0.021614 -0.039565 -0.437268
v -0.021614 -0.039565 -0.437268
v 0.022115 -0.175335 -0.043664
v -0.021762 -0.175339 -0.043386
v -0.021688 -0.173891 -0.250458
v 0.021864 -0.173890 -0.250597
v 0.021614 -0.141126 -0.043985
v -0.021614 -0.141126 -0.043985
v 0.021614 0.046723 -0.067344
v -0.021614 0.046723 -0.067344
v 0.021614 -0.012842 -0.043985
v -0.021614 -0.012842 -0.043985
v 0.021614 -0.025671 -0.069279
v -0.021614 -0.025671 -0.069279
v 0.021614 0.005340 -0.059873
v -0.021614 0.005340 -0.059873
v 0.021614 0.109570 -0.319607
v 0.029500 0.108028 -0.388267
v -0.019329 0.121158 -0.381507
v -0.019329 0.122700 -0.312848
v 0.019328 0.121158 -0.381507
v 0.019328 0.122700 -0.312848
v -0.029501 0.108028 -0.388267
v -0.021614 0.109570 -0.319607
v 0.021614 0.045462 -0.351365
v 0.021614 0.044202 -0.404145
v -0.021614 0.045462 -0.351365
v -0.021614 0.044202 -0.404145
v 0.128410 -0.066264 -0.158199
v 0.128410 -0.131439 -0.196861
v 0.175265 -0.067613 -0.180982
v -0.128410 -0.066264 -0.158199
v -0.175266 -0.067613 -0.180982
v -0.128410 -0.131439 -0.196861
v -0.019329 0.133218 -0.452306
v 0.019328 0.133218 -0.452306
v -0.019329 0.133456 -0.432044
v 0.019328 0.133456 -0.432044
v -0.000000 0.119379 -0.452081
v -0.000000 0.119616 -0.431820
v -0.000000 0.124280 -0.452306
v -0.000000 0.124517 -0.432044
v -0.007868 0.074476 -0.458841
v 0.007868 0.074476 -0.458841
v -0.000000 0.082815 -0.458841
v -0.000000 0.066137 -0.458841
v -0.021614 0.074476 -0.458841
v -0.021614 0.106248 -0.458841
v 0.021614 0.074476 -0.458841
v 0.021614 0.042703 -0.458841
v -0.000000 0.106248 -0.458841
v -0.000000 0.042703 -0.458841
v -0.021614 0.042703 -0.458841
v 0.021614 0.106248 -0.458841
v 0.005563 0.080373 -0.458841
v -0.000000 0.074476 -0.445400
v -0.007868 0.074476 -0.445400
v -0.000000 0.066137 -0.445400
v 0.005563 0.068579 -0.445400
v -0.005563 0.068579 -0.445400
v 0.007868 0.074476 -0.445400
v -0.000000 0.082815 -0.445400
v -0.005563 0.080373 -0.445400
v 0.005563 0.080373 -0.445400
v -0.021614 0.046012 -0.186080
v 0.021614 0.110242 -0.147404
v -0.019329 0.123372 -0.140645
v -0.021614 0.110084 -0.166166
v 0.021614 0.110084 -0.166166
v 0.021614 0.045883 -0.203217
v -0.021614 0.110242 -0.147404
v 0.019328 0.123214 -0.159407
v -0.019329 0.123214 -0.159407
v -0.021614 0.045883 -0.203217
v 0.019328 0.123372 -0.140645
v 0.021614 0.046012 -0.186080
v 0.019328 0.118264 -0.159365
v -0.019329 0.118264 -0.159365
v 0.017623 0.110242 -0.147404
v 0.017623 0.110084 -0.166166
v 0.017623 0.046012 -0.186080
v 0.017623 0.045883 -0.203217
v -0.018169 0.110084 -0.166166
v -0.018169 0.110242 -0.147404
v -0.018169 0.046012 -0.186080
v -0.018169 0.045883 -0.203217
vt 0.050757 0.323449
vt 0.050297 0.399167
vt 0.005612 0.346208
vt 0.005752 0.323176
vt 0.005292 0.398893
vt 0.049812 0.478815
vt 0.004807 0.478541
vt 0.298786 0.400678
vt 0.298302 0.480325
vt 0.253297 0.480052
vt 0.300225 0.164168
vt 0.299247 0.324960
vt 0.255481 0.120800
vt 0.299905 0.121284
vt 0.326196 0.104932
vt 0.369086 0.104740
vt 0.369086 0.159737
vt 0.326205 0.159115
vt 0.164051 0.498020
vt 0.174221 0.512782
vt 0.128485 0.512504
vt 0.138833 0.497867
vt 0.183586 0.529784
vt 0.186651 0.561341
vt 0.115465 0.560908
vt 0.118913 0.529391
vt 0.183868 0.578269
vt 0.203155 0.571599
vt 0.196938 0.516304
vt 0.105727 0.515750
vt 0.118043 0.577869
vt 0.098838 0.570965
vt 0.291088 0.497611
vt 0.263970 0.497447
vt 0.204558 0.479755
vt 0.244158 0.497200
vt 0.212453 0.497008
vt 0.175217 0.483146
vt 0.197109 0.514925
vt 0.137140 0.479346
vt 0.165970 0.479521
vt 0.105572 0.514368
vt 0.127849 0.482858
vt 0.098551 0.479111
vt 0.090447 0.496266
vt 0.058742 0.496073
vt 0.038929 0.496078
vt 0.011811 0.495914
vt 0.175026 0.603906
vt 0.126572 0.603611
vt 0.322674 0.348821
vt 0.376858 0.348821
vt 0.376858 0.428470
vt 0.322674 0.428470
vt 0.376516 0.473301
vt 0.322333 0.473301
vt 0.325198 0.454791
vt 0.373652 0.454791
vt 0.656148 0.650544
vt 0.664415 0.636764
vt 0.686158 0.638315
vt 0.677807 0.651931
vt 0.664672 0.705631
vt 0.656303 0.691913
vt 0.677951 0.690364
vt 0.686402 0.703918
vt 0.637993 0.821827
vt 0.634919 0.775889
vt 0.671536 0.773439
vt 0.674610 0.819377
vt 0.602435 0.692114
vt 0.918850 0.631941
vt 0.981334 0.634005
vt 0.973317 0.676480
vt 0.917440 0.674634
vt 0.689673 0.737766
vt 0.602280 0.650745
vt 0.656225 0.671228
vt 0.375085 0.333287
vt 0.320916 0.332017
vt 0.324684 0.171266
vt 0.378852 0.172536
vt 0.168153 0.120270
vt 0.139324 0.120094
vt 0.206742 0.120504
vt 0.254242 0.324686
vt 0.051996 0.119564
vt 0.100735 0.119860
vt 0.006729 0.162384
vt 0.007760 0.119506
vt 0.609875 0.633121
vt 0.430463 0.651387
vt 0.437722 0.637137
vt 0.536044 0.636770
vt 0.528785 0.651020
vt 0.536280 0.636892
vt 0.610169 0.633251
vt 0.430617 0.692757
vt 0.528940 0.692389
vt 0.437983 0.706952
vt 0.536305 0.706584
vt 0.610454 0.709549
vt 0.477500 0.568505
vt 0.477361 0.522244
vt 0.570019 0.521966
vt 0.570157 0.568227
vt 0.581887 0.825582
vt 0.578813 0.779644
vt 0.241078 0.637872
vt 0.241204 0.569868
vt 0.292185 0.569060
vt 0.570930 0.774870
vt 0.478273 0.775285
vt 0.610161 0.709681
vt 0.634138 0.566730
vt 0.670771 0.568906
vt 0.692334 0.570668
vt 0.689175 0.604443
vt 0.937404 0.557668
vt 0.944629 0.540840
vt 0.984368 0.542153
vt 0.906363 0.522510
vt 0.899138 0.539338
vt 0.859399 0.538025
vt 0.862433 0.446173
vt 0.921087 0.564198
vt 0.938530 0.523573
vt 0.922680 0.515980
vt 0.924918 0.448237
vt 0.987401 0.450301
vt 0.905237 0.556605
vt 0.856365 0.629877
vt 0.861562 0.672788
vt 0.693084 0.771516
vt 0.241973 0.775688
vt 0.241339 0.707687
vt 0.292959 0.776115
vt 0.117431 0.088316
vt 0.190431 0.088760
vt 0.112720 0.039805
vt 0.195731 0.040309
vt 0.127204 -0.001993
vt 0.182201 -0.002007
vt 0.407786 0.707065
vt 0.449816 0.775413
vt 0.292046 0.522799
vt 0.448905 0.522329
vt 0.449043 0.568590
vt 0.233973 0.693492
vt 0.400421 0.692869
vt 0.233819 0.652122
vt 0.400267 0.651500
vt 0.407525 0.637250
vt 0.000000 0.000000
vt 0.000000 0.000000
vt 0.000000 0.000000
vt 0.000000 0.000000
vt 0.437722 0.637137
vt 0.477500 0.568505
vt 0.430617 0.692757
vt 0.430463 0.651387
vt 0.407786 0.707065
vt 0.407525 0.637250
vt 0.449043 0.568590
vt 0.000000 0.000000
vt 0.000000 0.000000
vt 0.000000 0.000000
vt 0.000000 0.000000
vt 0.478273 0.775285
vt 0.437983 0.706952
vt 0.449816 0.775413
vt 0.536539 0.706460
vt 0.782204 0.647035
vt 0.784208 0.609604
vt 0.813241 0.583477
vt 0.830350 0.628901
vt 0.780201 0.684466
vt 0.828139 0.670205
vt 0.806279 0.713543
vt 0.787195 0.503702
vt 0.752970 0.488576
vt 0.767241 0.456286
vt 0.787262 0.476439
vt 0.767009 0.551019
vt 0.752896 0.518660
vt 0.787128 0.530965
vt 0.408173 0.142376
vt 0.425583 0.086324
vt 0.771008 0.084140
vt 0.771684 0.144238
vt 0.642151 0.463301
vt 0.556484 0.462479
vt 0.558055 0.298952
vt 0.643722 0.299774
vt 0.804990 0.008662
vt 0.864865 0.009327
vt 0.861198 0.339817
vt 0.801269 0.252477
vt 0.691540 0.385787
vt 0.698683 0.330350
vt 0.924556 0.358494
vt 0.997533 0.425210
vt 0.530387 0.930887
vt 0.529841 0.985790
vt 0.248231 0.982987
vt 0.248777 0.928083
vt 0.407932 0.218882
vt 0.771684 0.221315
vt 0.424435 0.275134
vt 0.769810 0.281396
vt 0.425102 0.010390
vt 0.770527 0.008206
vt 0.530255 0.785709
vt 0.536278 0.830838
vt 0.241521 0.830918
vt 0.248652 0.789134
vt 0.536310 0.885745
vt 0.241712 0.886236
vt 0.482105 0.288606
vt 0.482414 0.357347
vt 0.456016 0.357347
vt 0.455391 0.288836
vt 0.482414 0.420194
vt 0.456016 0.420194
vt 0.482105 0.488935
vt 0.455391 0.488705
vt 0.387502 0.357347
vt 0.387502 0.420194
vt 0.542583 0.420194
vt 0.542583 0.357347
vt 0.543215 0.288081
vt 0.683922 0.444920
vt 0.697399 0.680033
vt 0.699403 0.642602
vt 0.701407 0.605171
vt 0.847570 0.476587
vt 0.847503 0.503849
vt 0.847436 0.531112
vt 0.847367 0.559520
vt 0.787059 0.559372
vt 0.703495 0.566169
vt 0.786296 0.570602
vt 0.695312 0.719036
vt 0.778113 0.723468
vt 0.847639 0.448180
vt 0.787332 0.448032
vt 0.928733 0.010035
vt 0.988933 0.341235
vt 0.003481 0.908564
vt 0.021806 0.671306
vt 0.031061 0.951206
vt 0.967891 0.920640
vt 0.939566 0.958030
vt 0.967264 0.700842
vt 0.837893 0.675568
vt 0.899942 0.701703
vt 0.830935 0.721348
vt 0.770641 0.954994
vt 0.786943 0.735801
vt 0.833649 0.963382
vt 0.163513 0.654407
vt 0.167350 0.704392
vt 0.094423 0.677642
vt 0.144985 0.965490
vt 0.213686 0.723529
vt 0.213686 0.961493
vt 0.889491 0.988955
vt 0.082642 0.988616
vt 0.545008 0.922379
vt 0.545008 0.871545
vt 0.579732 0.871700
vt 0.579732 0.922534
vt 0.633156 0.871962
vt 0.686579 0.871700
vt 0.686579 0.922534
vt 0.633156 0.922797
vt 0.638265 0.933995
vt 0.594151 0.954124
vt 0.721303 0.871545
vt 0.721303 0.922379
vt 0.627936 0.860816
vt 0.671850 0.840253
vt 0.594461 0.840253
vt 0.638375 0.860816
vt 0.672161 0.954124
vt 0.628046 0.933995
vn -0.9473 0.0000 -0.3203
vn 0.9473 0.0000 -0.3203
vn 0.9480 0.0023 -0.3182
vn 0.0032 0.0135 0.9999
vn 0.0000 1.0000 -0.0000
vn 0.9056 0.3991 -0.1433
vn 0.7895 0.4268 0.4411
vn -0.7895 0.4268 0.4411
vn -0.9056 0.3991 -0.1433
vn 0.8997 0.3132 -0.3042
vn 0.9516 0.2913 0.0983
vn 0.7654 0.3590 0.5342
vn -0.0000 0.4577 0.8891
vn -0.7654 0.3590 0.5342
vn -0.9516 0.2913 0.0983
vn -0.8997 0.3132 -0.3042
vn 0.0000 0.0000 -1.0000
vn -0.0000 0.4577 -0.8891
vn 0.9850 0.1725 -0.0020
vn -0.9850 0.1725 -0.0020
vn 0.0000 -0.9993 0.0366
vn -0.9847 0.1741 -0.0053
vn -1.0000 0.0000 0.0000
vn 0.0000 0.9995 -0.0306
vn 0.0000 0.0000 1.0000
vn 0.8200 0.0000 0.5723
vn 0.9947 0.0000 0.1027
vn -0.9947 0.0000 0.1027
vn -0.9472 -0.0003 -0.3206
vn 0.7476 0.6498 -0.1371
vn -0.8200 -0.0000 0.5723
vn 0.9851 0.1718 -0.0006
vn 0.9872 0.1148 0.1108
vn 0.0000 1.0000 -0.0033
vn -0.9851 0.1718 -0.0006
vn -0.7870 0.6168 -0.0139
vn 0.0000 -1.0000 0.0028
vn 0.0000 -0.9997 0.0239
vn 1.0000 0.0000 0.0000
vn 0.0000 0.9997 -0.0225
vn -0.9946 -0.0503 -0.0909
vn 0.9946 -0.0503 -0.0909
vn 0.0000 -1.0000 0.0000
vn 0.0000 -1.0000 -0.0051
vn 0.0000 -1.0000 0.0060
vn -0.9851 0.1722 -0.0014
vn -0.0000 1.0000 -0.0084
vn 0.9851 0.1722 -0.0014
vn 0.5502 -0.4376 0.7112
vn 0.0000 -0.4998 0.8661
vn 0.0000 0.0084 1.0000
vn 0.0000 0.5159 -0.8567
vn -0.5956 -0.4086 0.6916
vn -0.9872 0.1148 0.1108
vn 0.7870 0.6168 -0.0139
vn 0.9847 0.1741 -0.0053
vn -0.7476 0.6498 -0.1371
vn -0.9900 -0.1413 0.0012
vn 0.9786 -0.2055 0.0017
vn 0.0000 -1.0000 0.0075
vn 0.0000 0.9647 -0.2633
vn -0.9944 -0.1022 0.0279
vn 0.9879 -0.1493 0.0407
vn 0.9999 0.0115 -0.0006
vn 0.0000 0.0159 0.9999
vn 0.0000 0.8869 0.4620
vn 0.0000 -1.0000 -0.0070
vn -1.0000 0.0034 -0.0002
vn 0.0000 1.0000 -0.0044
vn -1.0000 0.0010 0.0003
vn -0.0007 -0.8923 -0.4515
vn 1.0000 0.0035 0.0012
vn 0.0000 0.2903 -0.9569
vn 0.0000 -0.8919 0.4523
vn 0.0000 -0.1777 -0.9841
vn 0.0000 -0.0117 -0.9999
vn -0.4020 0.9156 0.0000
vn 0.4020 0.9156 0.0000
vn 0.4020 -0.9156 0.0000
vn -0.9314 -0.3640 0.0000
vn 0.9314 0.3640 0.0000
vn -0.9314 0.3640 0.0000
vn -0.4020 -0.9156 0.0000
vn 0.9314 -0.3640 0.0000
vn 0.7366 -0.6762 0.0162
vn -0.7366 -0.6762 0.0162
vn 0.3742 -0.4731 0.7976
vn -0.9017 -0.1920 0.3875
vn -0.9289 -0.1889 0.3185
vn 0.3120 0.7384 0.5979
vn -0.3742 -0.4731 0.7976
vn 0.9017 -0.1920 0.3875
vn -0.3120 0.7384 0.5979
vn 0.9289 -0.1889 0.3185
vn -0.6848 -0.3427 -0.6432
vn 0.6848 -0.3427 -0.6432
vn 0.7267 0.6835 0.0681
vn 0.8313 0.0353 -0.5547
vn -0.8313 0.0353 -0.5547
vn -0.7267 0.6835 0.0681
vn -0.4197 0.9076 -0.0106
vn -0.0055 -0.0239 -0.9997
vn -0.0055 0.0239 0.9997
vn 0.0055 0.0239 0.9997
vn 0.0055 -0.0239 -0.9997
vn 0.4197 0.9076 -0.0106
usemtl grey
s off
f 9/1/1 10/2/1 12/3/1 56/4/1
f 12/5/1 10/6/1 29/7/1
f 3/8/2 31/9/2 16/10/2
f 51/11/3 55/12/3 4/13/3 47/14/3
f 52/15/4 48/16/4 47/17/4 51/18/4
f 20/19/5 18/20/5 24/21/5 22/22/5
f 17/23/5 15/24/5 27/25/5 25/26/5
f 14/27/6 15/24/6 16/28/6
f 17/23/7 18/20/7 19/29/7
f 24/21/8 25/26/8 26/30/8
f 27/25/9 28/31/9 10/32/9
f 16/10/10 31/9/10 13/33/10 14/34/10
f 19/35/11 16/10/11 15/36/11 17/37/11
f 21/38/12 19/39/12 18/20/12 20/19/12
f 23/40/13 21/41/13 20/19/13 22/22/13
f 26/42/14 23/43/14 22/22/14 24/21/14
f 10/6/15 26/44/15 25/45/15 27/46/15
f 29/7/16 10/6/16 28/47/16 32/48/16
f 14/27/5 28/31/5 27/25/5 15/24/5
f 17/23/5 25/26/5 24/21/5 18/20/5
f 14/27/5 13/49/5 32/50/5 28/31/5
f 29/51/17 31/52/17 3/53/17 12/54/17
f 31/55/18 29/56/18 32/57/18 13/58/18
f 40/59/19 38/60/19 98/61/19 35/62/19
f 42/63/20 39/64/20 36/65/20 92/66/20
f 70/67/21 72/68/21 43/69/21 41/70/21
f 63/71/22 39/64/22 42/63/22
f 95/72/18 92/73/18 36/74/18 83/75/18
f 42/63/23 92/66/23 91/76/23
f 65/77/24 40/59/24 84/78/24
f 56/79/17 55/80/17 51/81/17 52/82/17
f 6/83/25 21/41/25 23/40/25 7/84/25
f 5/85/26 19/35/26 21/41/26 6/83/26
f 4/86/27 16/10/27 19/35/27 5/85/27
f 26/44/28 10/2/28 9/87/28 8/88/28
f 9/1/29 56/4/29 52/89/29 48/90/29
f 65/77/30 62/91/30 38/60/30
f 7/84/31 23/40/31 26/44/31 8/88/31
f 116/92/32 113/93/32 61/94/32 66/95/32
f 66/95/33 61/96/33 62/97/33
f 117/98/34 116/92/34 66/95/34 64/99/34
f 112/100/35 117/98/35 64/99/35 68/101/35
f 64/99/36 63/71/36 67/102/36
f 114/103/37 118/104/37 71/105/37 69/106/37
f 69/107/38 71/108/38 72/68/38 70/67/38
f 31/109/39 3/110/39 53/111/39
f 112/100/23 68/101/23 71/112/23 118/113/23
f 64/99/40 66/95/40 65/77/40 63/71/40
f 72/68/41 67/114/41 42/63/41 43/69/41
f 62/91/42 70/115/42 41/116/42 38/60/42
f 38/60/39 41/116/39 94/117/39 93/118/39
f 37/119/17 87/120/17 91/121/17 92/73/17
f 33/122/17 88/123/17 93/124/17 94/125/17
f 89/126/17 37/119/17 92/73/17 95/72/17
f 34/127/17 90/128/17 96/129/17 97/130/17
f 87/120/17 34/127/17 97/130/17 91/121/17
f 88/123/17 99/131/17 98/132/17 93/124/17
f 99/131/17 89/126/17 95/72/17 98/132/17
f 90/128/17 33/122/17 94/125/17 96/129/17
f 98/132/18 95/72/18 83/75/18 35/133/18
f 39/64/24 63/71/24 84/78/24
f 63/71/24 65/77/24 84/78/24
f 43/69/23 42/63/23 91/76/23 97/134/23
f 98/61/39 38/60/39 93/118/39
f 12/135/23 29/136/23 54/137/23
f 8/138/43 5/139/43 6/83/43 7/84/43
f 8/138/43 9/140/43 4/141/43 5/139/43
f 48/142/44 47/143/44 4/141/44 9/140/44
f 61/94/39 113/93/39 114/103/39 69/106/39
f 29/136/23 115/144/23 109/145/23 54/137/23
f 54/146/45 109/147/45 120/148/45 53/111/45
f 32/149/46 111/150/46 115/144/46 29/136/46
f 13/151/47 119/152/47 111/150/47 32/149/47
f 31/109/48 110/153/48 119/152/48 13/151/48
f 110/153/39 31/109/39 53/111/39 120/148/39
f 121/154/49 124/155/49 113/156/49 116/157/49
f 114/103/50 113/93/50 124/158/50 126/159/50
f 116/92/51 117/98/51 122/160/51 121/161/51
f 128/162/18 115/144/18 111/150/18
f 110/153/18 123/163/18 119/152/18
f 110/153/52 120/148/52 125/164/52 123/163/52
f 127/165/53 122/166/53 117/167/53 112/168/53
f 112/100/50 118/113/50 130/169/50 127/170/50
f 109/145/52 115/144/52 128/162/52 129/171/52
f 68/172/54 64/99/54 67/102/54
f 65/77/55 66/95/55 62/97/55
f 40/59/56 65/77/56 38/60/56
f 67/114/57 63/71/57 42/63/57
f 55/12/2 3/8/2 16/10/2 4/86/2
usemtl energy
f 102/173/17 104/174/17 101/175/17 100/176/17
f 103/177/17 102/173/17 100/178/17 105/179/17
f 106/180/17 100/181/17 101/182/17 107/183/17
f 105/184/17 100/185/17 106/180/17 108/186/17
f 127/170/58 128/162/58 122/166/58
f 124/158/59 121/154/59 123/163/59
f 124/158/39 123/163/39 125/164/39 126/159/39
f 128/162/23 127/170/23 130/169/23 129/171/23
f 130/169/60 126/159/60 125/164/60 129/171/60
f 111/150/61 119/152/61 121/161/61 122/160/61
f 128/162/62 111/150/62 122/166/62
f 121/154/63 119/152/63 123/163/63
usemtl black
f 50/187/64 11/188/64 51/189/64 47/190/64
f 41/191/65 43/192/65 46/193/65 45/194/65
f 43/195/23 97/196/23 44/197/23 46/198/23
f 94/199/39 41/200/39 45/201/39 1/202/39
f 45/203/66 46/204/66 2/205/66 11/206/66
f 49/207/67 50/187/67 47/190/67 48/208/67
f 2/209/68 49/207/68 48/208/68 52/210/68
f 11/188/69 2/211/69 52/212/69 51/189/69
f 46/213/70 44/214/70 49/215/70 2/216/70
f 1/217/71 50/218/71 49/215/71 44/214/71
f 1/217/72 45/203/72 11/206/72 50/218/72
f 12/219/23 60/220/23 58/221/23 56/222/23
f 59/223/73 57/224/73 58/221/73 60/220/73
f 3/225/39 55/226/39 57/224/39 59/223/39
f 56/227/74 58/221/74 57/224/74 55/228/74
f 3/225/39 59/223/39 53/229/39
f 53/229/75 59/223/75 60/220/75 54/230/75
f 12/231/23 54/230/23 60/220/23
f 96/232/76 94/199/76 1/202/76
f 33/233/77 90/234/77 102/173/77 103/177/77
f 90/234/78 34/235/78 104/174/78 102/173/78
f 37/236/79 89/237/79 106/180/79 107/183/79
f 99/238/80 88/239/80 105/240/80 108/186/80
f 34/235/81 87/241/81 101/242/81 104/174/81
f 88/243/82 33/233/82 103/177/82 105/244/82
f 89/237/83 99/238/83 108/186/83 106/180/83
f 87/245/84 37/236/84 107/183/84 101/246/84
f 96/247/76 1/248/76 44/197/76
f 97/196/76 96/247/76 44/197/76
usemtl grey.001
f 71/249/85 76/250/85 72/251/85
f 69/252/86 70/253/86 73/254/86
f 73/255/87 74/256/87 75/257/87
f 69/258/88 73/259/88 61/260/88
f 70/253/89 74/256/89 73/254/89
f 61/260/90 73/259/90 75/257/90
f 76/261/91 77/262/91 78/263/91
f 68/264/92 76/265/92 71/266/92
f 77/262/93 76/265/93 68/264/93
f 76/250/94 78/263/94 72/251/94
f 72/251/95 78/263/95 77/262/95
f 75/257/96 74/256/96 70/253/96
f 62/267/97 61/260/97 75/257/97
f 62/267/98 75/257/98 70/253/98
f 67/268/99 72/251/99 77/262/99
f 67/268/100 77/262/100 68/264/100
usemtl red
f 36/269/23 39/270/23 81/271/23 79/272/23
f 86/273/101 82/274/101 80/275/101 85/276/101
f 83/277/102 36/278/102 79/272/102 85/276/102
f 40/279/39 35/280/39 80/275/39 82/274/39
f 84/281/103 40/282/103 82/274/103 86/273/103
f 39/283/104 84/284/104 86/273/104 81/271/104
f 35/285/105 83/286/105 85/276/105 80/275/105
f 81/271/106 86/273/106 85/276/106 79/272/106
