# Blender v2.91.0 OBJ File: 'everything.blend'
# www.blender.org
mtllib SpeakerDrone.mtl
o Cube_Cube.002
v -0.264449 -0.132225 0.132225
v -0.264449 0.132225 0.132225
v -0.132225 -0.132225 -0.264449
v -0.132225 0.132225 -0.264449
v 0.264449 -0.132225 0.132225
v 0.264449 0.132225 0.132225
v 0.264449 -0.132225 -0.132225
v 0.264449 0.132225 -0.132225
v 0.132225 0.132225 -0.264449
v 0.132225 -0.132225 -0.264449
v 0.132225 -0.132225 0.264449
v 0.132225 0.132225 0.264449
v -0.264449 0.132225 -0.132225
v -0.264449 -0.132225 -0.132225
v 0.264449 -0.264449 -0.264449
v 0.044901 0.264449 -0.044901
v -0.264449 -0.264449 -0.264449
v -0.132225 -0.132225 0.264449
v -0.132225 0.132225 0.264449
v -0.044901 0.264449 -0.044901
v -0.264449 -0.264449 0.264449
v -0.044901 0.264449 0.044901
v 0.044901 0.264449 0.044901
v 0.264449 -0.264449 0.264449
v -0.528899 -0.172630 -0.172630
v -0.528899 -0.172630 0.172630
v -0.528899 0.172630 0.172630
v -0.528899 0.172630 -0.172630
v -0.172630 -0.172630 0.528899
v -0.172630 0.172630 0.528899
v 0.172630 0.172630 0.528899
v 0.172630 -0.172630 0.528899
v 0.528899 0.172630 -0.172630
v 0.528899 -0.172630 -0.172630
v 0.528899 -0.172630 0.172630
v 0.528899 0.172630 0.172630
v -0.172630 0.172630 -0.528899
v -0.172630 -0.172630 -0.528899
v 0.172630 -0.172630 -0.528899
v 0.172630 0.172630 -0.528899
v -0.213346 -0.264449 0.000000
v -0.661124 -0.264449 0.264449
v -0.661124 0.264449 0.264449
v -0.661124 0.264449 -0.264449
v -0.661124 -0.264449 -0.264449
v -0.264449 0.264449 0.661124
v 0.264449 -0.264449 0.661124
v 0.661124 -0.264449 -0.264449
v 0.661124 0.264449 0.264449
v 0.661124 -0.264449 0.264449
v -0.264449 -0.264449 -0.661124
v 0.264449 0.264449 -0.661124
v 0.264449 -0.264449 -0.661124
v 0.661124 0.264449 -0.264449
v -0.264449 -0.264449 0.661124
v 0.264449 0.264449 0.661124
v -0.264449 0.264449 -0.661124
v 0.661124 -0.172630 -0.172630
v 0.661124 0.172630 0.172630
v 0.661124 -0.172630 0.172630
v 0.661124 0.172630 -0.172630
v -0.172630 -0.172630 -0.661124
v 0.172630 0.172630 -0.661124
v 0.172630 -0.172630 -0.661124
v -0.172630 0.172630 -0.661124
v -0.661124 -0.172630 0.172630
v -0.661124 0.172630 0.172630
v -0.661124 0.172630 -0.172630
v -0.661124 -0.172630 -0.172630
v -0.172630 0.172630 0.661124
v 0.172630 -0.172630 0.661124
v -0.172630 -0.172630 0.661124
v 0.172630 0.172630 0.661124
v -0.264449 0.264449 -0.264449
v 0.264449 0.264449 -0.264449
v 0.264449 0.264449 0.264449
v -0.264449 0.264449 0.264449
v -0.044901 0.665287 -0.044901
v 0.044901 0.665287 -0.044901
v 0.044901 0.665287 0.044901
v -0.044901 0.665287 0.044901
v -0.150858 -0.264449 0.150858
v -0.000000 -0.264449 -0.213346
v -0.150858 -0.264449 -0.150858
v 0.213346 -0.264449 -0.000000
v 0.150858 -0.264449 -0.150858
v 0.000000 -0.264449 0.213346
v 0.150858 -0.264449 0.150858
v -0.264449 -0.264449 0.264449
v -0.264449 -0.264449 -0.264449
v 0.264449 -0.264449 -0.264449
v 0.264449 -0.264449 0.264449
v -0.000000 -0.282831 0.000000
v -0.466408 -0.506097 0.000000
v 0.466408 -0.506097 -0.000000
v -0.000000 -0.506097 -0.466408
v 0.000000 -0.506097 0.466408
v -0.329800 -0.506097 0.329800
v -0.329800 -0.506097 -0.329800
v 0.329800 -0.506097 -0.329800
v 0.329800 -0.506097 0.329800
vt 0.142366 0.517366
vt 0.142366 0.625000
vt 0.125000 0.500000
vt 0.357634 0.732634
vt 0.357634 0.625000
vt 0.375000 0.750000
vt 0.437500 0.562500
vt 0.437500 0.687500
vt 0.375000 0.750000
vt 0.375000 0.500000
vt 0.562500 0.562500
vt 0.625000 0.500000
vt 0.562500 0.687500
vt 0.625000 0.750000
vt 0.437500 0.312500
vt 0.437500 0.437500
vt 0.375000 0.250000
vt 0.562500 0.312500
vt 0.625000 0.250000
vt 0.562500 0.437500
vt 0.437500 0.062500
vt 0.437500 0.187500
vt 0.375000 0.000000
vt 0.562500 0.062500
vt 0.625000 0.000000
vt 0.562500 0.187500
vt 0.437500 0.937500
vt 0.562500 0.937500
vt 0.625000 1.000000
vt 0.375000 1.000000
vt 0.437500 0.812500
vt 0.375000 0.250000
vt 0.375000 0.000000
vt 0.562500 0.812500
vt 0.142366 0.732634
vt 0.250000 0.732634
vt 0.125000 0.750000
vt 0.375000 0.500000
vt 0.771224 0.646224
vt 0.771224 0.603776
vt 0.875000 0.500000
vt 0.875000 0.750000
vt 0.728776 0.603776
vt 0.728776 0.646224
vt 0.250000 0.517366
vt 0.357634 0.517366
vt 0.375000 1.000000
vt 0.562500 0.062500
vt 0.437500 0.062500
vt 0.437500 0.812500
vt 0.437500 0.937500
vt 0.437500 0.437500
vt 0.562500 0.437500
vt 0.562500 0.312500
vt 0.437500 0.312500
vt 0.562500 0.187500
vt 0.437500 0.187500
vt 0.562500 0.937500
vt 0.562500 0.562500
vt 0.437500 0.562500
vt 0.437500 0.687500
vt 0.562500 0.687500
vt 0.562500 0.812500
vt 0.459201 0.084201
vt 0.459201 0.165799
vt 0.771224 0.603776
vt 0.728776 0.603776
vt 0.728776 0.646224
vt 0.540799 0.084201
vt 0.540799 0.165799
vt 0.459201 0.915799
vt 0.540799 0.915799
vt 0.540799 0.834201
vt 0.459201 0.834201
vt 0.540799 0.584201
vt 0.459201 0.584201
vt 0.459201 0.665799
vt 0.540799 0.665799
vt 0.540799 0.334201
vt 0.459201 0.334201
vt 0.459201 0.415799
vt 0.540799 0.415799
vt 0.771224 0.646224
vt 0.540799 0.415799
vt 0.540799 0.334201
vt 0.459201 0.665799
vt 0.540799 0.665799
vt 0.459201 0.084201
vt 0.459201 0.165799
vt 0.540799 0.834201
vt 0.459201 0.834201
vt 0.540799 0.915799
vt 0.540799 0.584201
vt 0.459201 0.584201
vt 0.540799 0.084201
vt 0.459201 0.415799
vt 0.459201 0.334201
vt 0.540799 0.165799
vt 0.459201 0.915799
vt 0.250000 0.517366
vt 0.142366 0.517366
vt 0.250000 0.732634
vt 0.357634 0.732634
vt 0.357634 0.625000
vt 0.142366 0.732634
vt 0.357634 0.517366
vt 0.142366 0.625000
vt 0.250000 0.625000
vn 0.0000 -1.0000 0.0000
vn 1.0000 0.0000 0.0000
vn 0.0000 0.0000 -1.0000
vn -1.0000 0.0000 0.0000
vn 0.0000 0.0000 1.0000
vn 0.0000 1.0000 0.0000
vn 0.3162 0.0000 0.9487
vn 0.0000 -0.9487 -0.3162
vn 0.9487 0.0000 0.3162
vn -0.9487 0.0000 0.3162
vn 0.3162 0.9487 0.0000
vn 0.3162 0.0000 -0.9487
vn -0.9487 0.0000 -0.3162
vn -0.3162 0.0000 -0.9487
vn 0.3162 -0.9487 0.0000
vn 0.0000 -0.9487 0.3162
vn -0.3162 0.0000 0.9487
vn 0.9487 0.0000 -0.3162
vn 0.0000 0.9487 0.3162
vn -0.3162 0.9487 0.0000
vn 0.0000 0.9487 -0.3162
vn -0.3162 -0.9487 0.0000
vn -0.5704 0.8214 0.0000
vn -0.5704 0.0000 -0.8214
vn -0.5704 -0.8214 0.0000
vn -0.5704 0.0000 0.8214
vn 0.8214 0.0000 0.5704
vn -0.8214 0.0000 0.5704
vn 0.0000 0.8214 0.5704
vn 0.0000 -0.8214 0.5704
vn 0.5704 0.0000 0.8214
vn 0.5704 0.8214 0.0000
vn 0.5704 -0.8214 0.0000
vn 0.5704 0.0000 -0.8214
vn 0.8214 0.0000 -0.5704
vn 0.0000 0.8214 -0.5704
vn 0.0000 -0.8214 -0.5704
vn -0.8214 0.0000 -0.5704
vn -0.2750 0.6953 -0.6640
vn 0.2750 0.6953 0.6640
vn 0.6640 0.6953 0.2750
vn -0.2750 0.6953 0.6640
vn 0.2750 0.6953 -0.6640
vn -0.6640 0.6953 -0.2750
vn 0.6640 0.6953 -0.2750
vn -0.6640 0.6953 0.2750
vn -0.3053 -0.9020 -0.3053
vn -0.3053 -0.9020 0.3053
vn 0.3053 -0.9020 0.3053
vn 0.3053 -0.9020 -0.3053
usemtl Material.013
s off
f 84/1/1 41/2/1 90/3/1
f 88/4/1 85/5/1 92/6/1
f 7/7/2 5/8/2 24/9/2 15/10/2
f 8/11/2 7/7/2 15/10/2 75/12/2
f 5/8/2 6/13/2 76/14/2 24/9/2
f 3/15/3 10/16/3 15/10/3 17/17/3
f 4/18/3 3/15/3 17/17/3 74/19/3
f 6/13/2 8/11/2 75/12/2 76/14/2
f 10/16/3 9/20/3 75/12/3 15/10/3
f 1/21/4 14/22/4 17/17/4 21/23/4
f 2/24/4 1/21/4 21/23/4 77/25/4
f 14/22/4 13/26/4 74/19/4 17/17/4
f 18/27/5 19/28/5 77/29/5 21/30/5
f 9/20/3 4/18/3 74/19/3 75/12/3
f 11/31/5 18/27/5 21/30/5 24/9/5
f 13/26/4 2/24/4 77/25/4 74/19/4
f 21/23/5 17/17/5 90/32/5 89/33/5
f 12/34/5 11/31/5 24/9/5 76/14/5
f 19/28/5 12/34/5 76/14/5 77/29/5
f 82/35/1 87/36/1 89/37/1
f 15/10/5 24/9/5 92/6/5 91/38/5
f 22/39/6 20/40/6 74/41/6 77/42/6
f 20/40/6 16/43/6 75/12/6 74/41/6
f 16/43/6 23/44/6 76/14/6 75/12/6
f 23/44/6 22/39/6 77/42/6 76/14/6
f 17/17/5 15/10/5 91/38/5 90/32/5
f 90/3/1 41/2/1 89/37/1
f 41/2/1 82/35/1 89/37/1
f 83/45/1 84/1/1 90/3/1
f 85/5/1 86/46/1 91/38/1
f 87/36/1 88/4/1 92/6/1
f 89/37/1 87/36/1 92/6/1
f 24/9/5 21/30/5 89/47/5 92/6/5
f 86/46/1 83/45/1 91/38/1
f 91/38/1 83/45/1 90/3/1
f 85/5/1 91/38/1 92/6/1
usemtl Material.014
f 1/21/7 2/24/7 43/48/7 42/49/7
f 18/27/8 11/31/8 47/50/8 55/51/8
f 9/20/9 10/16/9 53/52/9 52/53/9
f 3/15/10 4/18/10 57/54/10 51/55/10
f 2/24/11 13/26/11 44/56/11 43/48/11
f 13/26/12 14/22/12 45/57/12 44/56/12
f 19/28/13 18/27/13 55/51/13 46/58/13
f 7/7/14 8/11/14 54/59/14 48/60/14
f 14/22/15 1/21/15 42/49/15 45/57/15
f 10/16/16 3/15/16 51/55/16 53/52/16
f 6/13/17 5/8/17 50/61/17 49/62/17
f 11/31/18 12/34/18 56/63/18 47/50/18
f 4/18/19 9/20/19 52/53/19 57/54/19
f 8/11/20 6/13/20 49/62/20 54/59/20
f 12/34/21 19/28/21 46/58/21 56/63/21
f 5/8/22 7/7/22 48/60/22 50/61/22
usemtl Material.015
f 26/64/23 25/65/23 45/57/23 42/49/23
f 16/43/3 20/40/3 78/66/3 79/67/3
f 79/67/2 80/68/2 23/44/2 16/43/2
f 27/69/24 26/64/24 42/49/24 43/48/24
f 28/70/25 27/69/25 43/48/25 44/56/25
f 25/65/26 28/70/26 44/56/26 45/57/26
f 29/71/27 30/72/27 46/58/27 55/51/27
f 31/73/28 32/74/28 47/50/28 56/63/28
f 32/74/29 29/71/29 55/51/29 47/50/29
f 30/72/30 31/73/30 56/63/30 46/58/30
f 33/75/31 34/76/31 48/60/31 54/59/31
f 34/76/32 35/77/32 50/61/32 48/60/32
f 36/78/33 33/75/33 54/59/33 49/62/33
f 35/77/34 36/78/34 49/62/34 50/61/34
f 37/79/35 38/80/35 51/55/35 57/54/35
f 38/80/36 39/81/36 53/52/36 51/55/36
f 40/82/37 37/79/37 57/54/37 52/53/37
f 39/81/38 40/82/38 52/53/38 53/52/38
f 79/67/6 78/66/6 81/83/6 80/68/6
f 80/68/5 81/83/5 22/39/5 23/44/5
f 20/40/4 22/39/4 81/83/4 78/66/4
usemtl Material.016
f 37/79/6 40/82/6 63/84/6 65/85/6
f 35/77/5 60/86/5 59/87/5 36/78/5
f 26/64/1 66/88/1 69/89/1 25/65/1
f 32/74/2 31/73/2 73/90/2 71/91/2
f 31/73/6 30/72/6 70/92/6 73/90/6
f 34/76/3 33/75/3 61/93/3 58/94/3
f 34/76/1 58/94/1 60/86/1 35/77/1
f 26/64/5 27/69/5 67/95/5 66/88/5
f 39/81/2 64/96/2 63/84/2 40/82/2
f 38/80/4 37/79/4 65/85/4 62/97/4
f 28/70/6 68/98/6 67/95/6 27/69/6
f 25/65/3 69/89/3 68/98/3 28/70/3
f 36/78/6 59/87/6 61/93/6 33/75/6
f 58/94/2 61/93/2 59/87/2 60/86/2
f 38/80/1 62/97/1 64/96/1 39/81/1
f 62/97/3 65/85/3 63/84/3 64/96/3
f 67/95/4 68/98/4 69/89/4 66/88/4
f 32/74/1 71/91/1 72/99/1 29/71/1
f 71/91/5 73/90/5 70/92/5 72/99/5
f 30/72/4 29/71/4 72/99/4 70/92/4
f 84/1/39 83/45/39 96/100/39 99/101/39
f 88/4/40 87/36/40 97/102/40 101/103/40
f 85/5/41 88/4/41 101/103/41 95/104/41
f 87/36/42 82/35/42 98/105/42 97/102/42
f 83/45/43 86/46/43 100/106/43 96/100/43
f 41/2/44 84/1/44 99/101/44 94/107/44
f 86/46/45 85/5/45 95/104/45 100/106/45
f 82/35/46 41/2/46 94/107/46 98/105/46
usemtl Material.017
f 93/108/47 95/104/47 101/103/47 97/102/47
f 96/100/48 100/106/48 95/104/48 93/108/48
f 99/101/49 96/100/49 93/108/49 94/107/49
f 94/107/50 93/108/50 97/102/50 98/105/50
