# Blender v2.91.0 OBJ File: 'Item_Spawner (1).blend'
# www.blender.org
mtllib spawner0.mtl
o Cone
v -0.500466 0.000173 -0.206003
v -0.208217 0.000173 -0.499549
v -0.000000 0.000173 0.000000
v -0.499549 0.000173 0.208217
v -0.000000 0.000173 0.000000
v 0.500466 0.000173 0.206002
v 0.499549 0.000173 -0.208217
v 0.206003 0.000173 -0.500466
v 0.000000 0.000173 0.000000
v 0.208217 0.000173 0.499549
v -0.206003 0.000173 0.500466
v 0.000000 0.000173 0.000000
v -0.163114 0.059010 -0.067141
v -0.067141 0.059010 0.163114
v 0.162815 0.059010 -0.067863
v 0.067141 0.059010 -0.163114
v 0.067863 0.059010 0.162815
v 0.163114 0.059010 0.067141
v -0.162815 0.059010 0.067863
v -0.067863 0.059010 -0.162815
v 0.208217 0.059010 0.499549
v 0.500466 0.059010 0.206002
v -0.206003 0.059010 0.500466
v 0.499549 0.059010 -0.208217
v 0.206003 0.059010 -0.500466
v -0.500466 0.059010 -0.206003
v -0.499549 0.059010 0.208217
v -0.208217 0.059010 -0.499549
v 0.030003 0.059010 0.071981
v 0.072113 0.059010 0.029683
v -0.029683 0.059010 0.072113
v 0.071981 0.059010 -0.030003
v 0.029683 0.059010 -0.072113
v -0.072113 0.059010 -0.029683
v -0.071981 0.059010 0.030003
v -0.030003 0.059010 -0.071981
v -0.000000 0.046544 0.000000
v 0.029683 0.046544 -0.072113
v -0.029683 0.046544 0.072113
v -0.071981 0.046544 0.030003
v 0.071981 0.046544 -0.030003
v 0.072113 0.046544 0.029683
v -0.072113 0.046544 -0.029683
v -0.030003 0.046544 -0.071981
v 0.030003 0.046544 0.071981
v 0.208218 0.117859 0.499549
v -0.206002 0.117859 0.500466
v 0.000000 0.117335 -0.000000
v 0.000282 0.117468 0.127281
v -0.133213 0.117808 0.451596
v 0.135212 0.117808 0.451002
v 0.000282 0.109979 0.127281
v -0.133213 0.110319 0.451596
v 0.135212 0.110319 0.451002
v 0.208218 0.059009 0.499549
v -0.206002 0.059009 0.500466
v 0.000000 0.104380 0.127630
v 0.500466 0.117859 0.206002
v 0.208218 0.117859 0.499549
v -0.000000 0.117335 -0.000000
v 0.090201 0.117468 0.089802
v 0.225131 0.117808 0.413523
v 0.414516 0.117808 0.223297
v 0.090201 0.109979 0.089802
v 0.225131 0.110319 0.413523
v 0.414516 0.110319 0.223297
v 0.500466 0.059009 0.206002
v 0.208218 0.059009 0.499549
v 0.090248 0.104380 0.090248
v 0.499549 0.117859 -0.208217
v 0.500466 0.117859 0.206002
v -0.000000 0.117335 -0.000000
v 0.127281 0.117468 -0.000282
v 0.451596 0.117808 0.133213
v 0.451002 0.117808 -0.135212
v 0.127281 0.109979 -0.000282
v 0.451596 0.110319 0.133213
v 0.451002 0.110319 -0.135212
v 0.499549 0.059009 -0.208217
v 0.500466 0.059009 0.206002
v 0.127630 0.104380 -0.000000
v 0.206002 0.117859 -0.500466
v 0.499549 0.117859 -0.208218
v 0.000000 0.117335 0.000000
v 0.089802 0.117468 -0.090201
v 0.413523 0.117808 -0.225131
v 0.223297 0.117808 -0.414516
v 0.089802 0.109979 -0.090201
v 0.413523 0.110319 -0.225131
v 0.223297 0.110319 -0.414516
v 0.206002 0.059009 -0.500466
v 0.499549 0.059009 -0.208218
v 0.090248 0.104380 -0.090248
v -0.208218 0.117859 -0.499549
v 0.206002 0.117859 -0.500466
v 0.000000 0.117335 -0.000000
v -0.000282 0.117468 -0.127281
v 0.133213 0.117808 -0.451596
v -0.135212 0.117808 -0.451002
v -0.000282 0.109979 -0.127281
v 0.133213 0.110319 -0.451596
v -0.135212 0.110319 -0.451002
v -0.208218 0.059009 -0.499549
v 0.206002 0.059009 -0.500466
v -0.000000 0.104380 -0.127631
v -0.500466 0.117859 -0.206002
v -0.208218 0.117859 -0.499549
v 0.000000 0.117335 0.000000
v -0.090201 0.117468 -0.089802
v -0.225131 0.117808 -0.413523
v -0.414516 0.117808 -0.223297
v -0.090201 0.109979 -0.089802
v -0.225131 0.110319 -0.413523
v -0.414516 0.110319 -0.223297
v -0.500466 0.059009 -0.206002
v -0.208218 0.059009 -0.499549
v -0.090248 0.104380 -0.090248
v -0.499549 0.117859 0.208218
v -0.500467 0.117859 -0.206002
v -0.000000 0.117335 -0.000000
v -0.127281 0.117468 0.000282
v -0.451597 0.117808 -0.133213
v -0.451002 0.117808 0.135213
v -0.127281 0.109979 0.000282
v -0.451597 0.110319 -0.133213
v -0.451002 0.110319 0.135213
v -0.499549 0.059009 0.208218
v -0.500467 0.059009 -0.206002
v -0.127631 0.104380 0.000000
v -0.206002 0.117859 0.500467
v -0.499549 0.117859 0.208218
v -0.000000 0.117335 0.000000
v -0.089802 0.117468 0.090201
v -0.413523 0.117808 0.225132
v -0.223297 0.117808 0.414516
v -0.089802 0.109979 0.090201
v -0.413523 0.110319 0.225132
v -0.223297 0.110319 0.414516
v -0.206002 0.059009 0.500467
v -0.499549 0.059009 0.208218
v -0.090248 0.104380 0.090249
vt 0.000000 0.000000
vt 0.000000 0.000000
vt 0.000000 0.000000
vt 0.000000 0.000000
vt 0.000000 0.000000
vt 0.000000 0.000000
vt 0.000000 0.000000
vt 0.000000 0.000000
vt 0.000000 0.000000
vt 0.000000 0.000000
vt 0.000000 0.000000
vt 0.000000 0.000000
vt 0.000000 0.000000
vt 0.000000 0.000000
vt 0.000000 0.000000
vt 0.000000 0.000000
vt 0.010000 0.250000
vt 0.010000 0.250000
vt 0.080294 0.080294
vt 0.010000 0.250000
vt 0.010000 0.250000
vt 0.080294 0.080294
vt 0.010000 0.250000
vt 0.010000 0.250000
vt 0.080294 0.080294
vt 0.010000 0.250000
vt 0.010000 0.250000
vt 0.080294 0.080294
vt 0.750000 0.250000
vt 0.750000 0.010000
vt 0.580294 0.080294
vt 0.510000 0.250000
vt 0.750000 0.250000
vt 0.580294 0.080294
vt 0.510000 0.250000
vt 0.750000 0.250000
vt 0.580294 0.080294
vt 0.750000 0.010000
vt 0.750000 0.250000
vt 0.580294 0.080294
vt 0.018947 0.228400
vt 0.018947 0.228400
vt 0.018947 0.228400
vt 0.018947 0.228400
vt 0.064500 0.118426
vt 0.064500 0.118426
vt 0.018947 0.228400
vt 0.018947 0.228400
vt 0.018947 0.228400
vt 0.018947 0.228400
vt 0.064500 0.118426
vt 0.064500 0.118426
vt 0.018947 0.228400
vt 0.018947 0.228400
vt 0.018947 0.228400
vt 0.018947 0.228400
vt 0.064500 0.118426
vt 0.064500 0.118426
vt 0.018947 0.228400
vt 0.018947 0.228400
vt 0.018947 0.228400
vt 0.018947 0.228400
vt 0.064500 0.118426
vt 0.064500 0.118426
vt 0.018947 0.228400
vt 0.018947 0.228400
vt 0.018947 0.228400
vt 0.018947 0.228400
vt 0.064500 0.118426
vt 0.064500 0.118426
vt 0.018947 0.228400
vt 0.018947 0.228400
vt 0.018947 0.228400
vt 0.018947 0.228400
vt 0.064500 0.118426
vt 0.064500 0.118426
vt 0.018947 0.228400
vt 0.018947 0.228400
vt 0.018947 0.228400
vt 0.018947 0.228400
vt 0.064500 0.118426
vt 0.064500 0.118426
vt 0.018947 0.228400
vt 0.018947 0.228400
vt 0.018947 0.228400
vt 0.018947 0.228400
vt 0.064500 0.118426
vt 0.064500 0.118426
vt 0.080294 0.080294
vt 0.010000 0.250000
vt 0.010000 0.250000
vt 0.080294 0.080294
vt 0.250000 0.010000
vt 0.250000 0.010000
vt 0.080294 0.080294
vt 0.080294 0.080294
vt 0.010000 0.250000
vt 0.010000 0.250000
vt 0.080294 0.080294
vt 0.080294 0.080294
vt 0.250000 0.010000
vt 0.250000 0.010000
vt 0.080294 0.080294
vt 0.080294 0.080294
vt 0.000000 0.000000
vt 0.000000 0.000000
vt 0.000000 0.000000
vt 0.000000 0.000000
vt 0.000000 0.000000
vt 0.000000 0.000000
vt 0.000000 0.000000
vt 0.000000 0.000000
vt 0.000000 0.000000
vt 0.000000 0.000000
vt 0.000000 0.000000
vt 0.000000 0.000000
vt 0.000000 0.000000
vt 0.000000 0.000000
vt 0.000000 0.000000
vt 0.000000 0.000000
vt 0.000000 0.000000
vt 0.080294 0.080294
vt 0.010000 0.250000
vt 0.010000 0.250000
vt 0.080294 0.080294
vt 0.080294 0.080294
vt 0.010000 0.250000
vt 0.010000 0.250000
vt 0.010000 0.250000
vt 0.010000 0.250000
vt 0.080294 0.080294
vt 0.010000 0.250000
vt 0.010000 0.250000
vt 0.080294 0.080294
vt 0.080294 0.080294
vt 0.010000 0.250000
vt 0.010000 0.250000
vt 0.010000 0.250000
vt 0.010000 0.250000
vt 0.080294 0.080294
vt 0.010000 0.250000
vt 0.010000 0.250000
vt 0.080294 0.080294
vt 0.080294 0.080294
vt 0.010000 0.250000
vt 0.010000 0.250000
vt 0.010000 0.250000
vt 0.010000 0.250000
vt 0.080294 0.080294
vt 0.010000 0.250000
vt 0.010000 0.250000
vt 0.080294 0.080294
vt 0.080294 0.080294
vt 0.010000 0.250000
vt 0.010000 0.250000
vt 0.010000 0.250000
vt 0.010000 0.250000
vn 0.0000 1.0000 -0.0000
vn -0.0003 -0.9927 -0.1209
vn -0.1209 -0.9927 0.0003
vn 0.0003 -0.9927 0.1209
vn 0.1209 -0.9927 -0.0003
vn 0.0000 -1.0000 0.0000
vn 0.9247 0.0000 0.3806
vn -0.0022 0.0000 -1.0000
vn -0.9230 0.0000 0.3847
vn 0.9230 0.0000 -0.3847
vn -0.7087 0.0000 -0.7055
vn -0.3806 0.0000 0.9247
vn 0.3806 0.0000 -0.9247
vn -1.0000 0.0000 0.0022
vn 0.3847 0.0000 0.9230
vn -0.3847 0.0000 -0.9230
vn -0.7055 0.0000 0.7087
vn -0.9247 0.0000 -0.3806
vn 0.0022 0.0000 1.0000
vn 0.7087 0.0000 0.7055
vn 1.0000 0.0000 -0.0022
vn 0.7055 0.0000 -0.7087
vn -0.0000 1.0000 -0.0010
vn -0.0007 1.0000 -0.0007
vn -0.0010 1.0000 0.0000
vn -0.0007 1.0000 0.0007
vn 0.0000 1.0000 0.0010
vn 0.0007 1.0000 0.0007
vn 0.0010 1.0000 -0.0000
vn 0.0007 1.0000 -0.0007
vn 0.8726 0.0000 -0.4885
vn -0.2406 -0.9657 -0.0980
vn -0.8753 0.0000 -0.4836
vn 0.2378 -0.9664 -0.0981
vn 0.2716 0.0000 -0.9624
vn -0.2394 -0.9657 0.1008
vn -0.9609 0.0000 0.2769
vn 0.0988 -0.9664 -0.2375
vn -0.4885 0.0000 -0.8726
vn -0.0980 -0.9657 0.2406
vn -0.4836 0.0000 0.8753
vn -0.0981 -0.9664 -0.2378
vn -0.9624 0.0000 -0.2716
vn 0.1008 -0.9657 0.2394
vn 0.2769 0.0000 0.9609
vn -0.2375 -0.9664 -0.0988
vn -0.8726 0.0000 0.4885
vn 0.2406 -0.9657 0.0980
vn 0.8753 0.0000 0.4836
vn -0.2378 -0.9664 0.0981
vn -0.2716 0.0000 0.9624
vn 0.2394 -0.9657 -0.1008
vn 0.9609 0.0000 -0.2769
vn -0.0988 -0.9664 0.2375
vn 0.4885 0.0000 0.8726
vn 0.0980 -0.9657 -0.2406
vn 0.4836 0.0000 -0.8753
vn 0.0981 -0.9664 0.2378
vn 0.9624 0.0000 0.2716
vn -0.1008 -0.9657 -0.2394
vn -0.2769 0.0000 -0.9609
vn 0.2375 -0.9664 0.0988
vn -0.0857 -0.9927 -0.0853
vn -0.0853 -0.9927 0.0857
vn 0.0857 -0.9927 0.0853
vn 0.0853 -0.9927 -0.0857
usemtl Material.001
s off
f 14/1/1 23/2/1 21/3/1 17/4/1
f 18/5/1 22/6/1 24/7/1 15/8/1
f 13/9/1 26/10/1 27/11/1 19/12/1
f 16/13/1 25/14/1 28/15/1 20/16/1
f 56/17/2 57/18/2 55/19/2
f 80/20/3 81/21/3 79/22/3
f 104/23/4 105/24/4 103/25/4
f 128/26/5 129/27/5 127/28/5
usemtl Material.002
f 3/29/6 1/30/6 2/31/6
f 8/32/6 3/29/6 2/31/6
f 5/33/6 4/34/6 1/30/6
f 11/35/6 4/34/6 5/33/6
f 9/36/6 7/37/6 6/38/6
f 8/32/6 7/37/6 9/36/6
f 12/39/6 6/38/6 10/40/6
f 11/35/6 12/39/6 10/40/6
f 49/41/7 50/42/7 53/43/7 52/44/7
f 50/42/8 51/45/8 54/46/8 53/43/8
f 51/45/9 49/41/9 52/44/9 54/46/9
f 61/47/10 62/48/10 65/49/10 64/50/10
f 62/48/11 63/51/11 66/52/11 65/49/11
f 63/51/12 61/47/12 64/50/12 66/52/12
f 73/53/13 74/54/13 77/55/13 76/56/13
f 74/54/14 75/57/14 78/58/14 77/55/14
f 75/57/15 73/53/15 76/56/15 78/58/15
f 85/59/16 86/60/16 89/61/16 88/62/16
f 86/60/17 87/63/17 90/64/17 89/61/17
f 87/63/7 85/59/7 88/62/7 90/64/7
f 97/65/18 98/66/18 101/67/18 100/68/18
f 98/66/19 99/69/19 102/70/19 101/67/19
f 99/69/10 97/65/10 100/68/10 102/70/10
f 109/71/9 110/72/9 113/73/9 112/74/9
f 110/72/20 111/75/20 114/76/20 113/73/20
f 111/75/13 109/71/13 112/74/13 114/76/13
f 121/77/12 122/78/12 125/79/12 124/80/12
f 122/78/21 123/81/21 126/82/21 125/79/21
f 123/81/16 121/77/16 124/80/16 126/82/16
f 133/83/15 134/84/15 137/85/15 136/86/15
f 134/84/22 135/87/22 138/88/22 137/85/22
f 135/87/18 133/83/18 136/86/18 138/88/18
usemtl Material.003
f 53/43/23 54/46/23 52/44/23
f 65/49/24 66/52/24 64/50/24
f 77/55/25 78/58/25 76/56/25
f 89/61/26 90/64/26 88/62/26
f 101/67/27 102/70/27 100/68/27
f 113/73/28 114/76/28 112/74/28
f 125/79/29 126/82/29 124/80/29
f 137/85/30 138/88/30 136/86/30
usemtl Material.004
f 28/89/8 25/90/8 8/91/8 2/92/8
f 26/93/11 28/89/11 2/92/11 1/94/11
f 27/95/17 4/96/17 11/97/17 23/98/17
f 26/93/14 1/94/14 4/96/14 27/95/14
f 24/99/22 7/100/22 8/91/22 25/90/22
f 22/101/21 6/102/21 7/100/21 24/99/21
f 21/103/19 23/98/19 11/97/19 10/104/19
f 22/101/20 21/103/20 10/104/20 6/102/20
f 29/105/8 45/106/8 39/107/8 31/108/8
f 33/109/17 38/110/17 41/111/17 32/112/17
f 31/108/22 39/107/22 40/113/22 35/114/22
f 36/115/19 44/116/19 38/110/19 33/109/19
f 30/117/11 42/118/11 45/106/11 29/105/11
f 32/112/14 41/111/14 42/118/14 30/117/14
f 35/114/21 40/113/21 43/119/21 34/120/21
f 34/120/20 43/119/20 44/116/20 36/115/20
usemtl Material.005
f 44/116/1 37/121/1 38/110/1
f 41/111/1 38/110/1 37/121/1
f 39/107/1 37/121/1 40/113/1
f 42/118/1 41/111/1 37/121/1
f 45/106/1 37/121/1 39/107/1
f 40/113/1 37/121/1 43/119/1
f 43/119/1 37/121/1 44/116/1
f 42/118/1 37/121/1 45/106/1
f 46/122/31 55/19/31 57/18/31
f 47/123/32 48/124/32 57/18/32
f 56/17/33 47/123/33 57/18/33
f 48/124/34 46/122/34 57/18/34
f 58/125/35 67/126/35 69/127/35
f 59/128/36 60/129/36 69/127/36
f 68/130/37 59/128/37 69/127/37
f 60/129/38 58/125/38 69/127/38
f 70/131/39 79/22/39 81/21/39
f 71/132/40 72/133/40 81/21/40
f 80/20/41 71/132/41 81/21/41
f 72/133/42 70/131/42 81/21/42
f 82/134/43 91/135/43 93/136/43
f 83/137/44 84/138/44 93/136/44
f 92/139/45 83/137/45 93/136/45
f 84/138/46 82/134/46 93/136/46
f 94/140/47 103/25/47 105/24/47
f 95/141/48 96/142/48 105/24/48
f 104/23/49 95/141/49 105/24/49
f 96/142/50 94/140/50 105/24/50
f 106/143/51 115/144/51 117/145/51
f 107/146/52 108/147/52 117/145/52
f 116/148/53 107/146/53 117/145/53
f 108/147/54 106/143/54 117/145/54
f 118/149/55 127/28/55 129/27/55
f 119/150/56 120/151/56 129/27/56
f 128/26/57 119/150/57 129/27/57
f 120/151/58 118/149/58 129/27/58
f 130/152/59 139/153/59 141/154/59
f 131/155/60 132/156/60 141/154/60
f 140/157/61 131/155/61 141/154/61
f 132/156/62 130/152/62 141/154/62
usemtl Material.006
f 50/42/23 49/41/23 48/124/23 47/123/23
f 49/41/23 51/45/23 46/122/23 48/124/23
f 51/45/23 50/42/23 47/123/23 46/122/23
f 46/122/19 47/123/19 56/17/19 55/19/19
f 62/48/24 61/47/24 60/129/24 59/128/24
f 61/47/24 63/51/24 58/125/24 60/129/24
f 63/51/24 62/48/24 59/128/24 58/125/24
f 58/125/20 59/128/20 68/130/20 67/126/20
f 74/54/25 73/53/25 72/133/25 71/132/25
f 73/53/25 75/57/25 70/131/25 72/133/25
f 75/57/25 74/54/25 71/132/25 70/131/25
f 70/131/21 71/132/21 80/20/21 79/22/21
f 86/60/26 85/59/26 84/138/26 83/137/26
f 85/59/26 87/63/26 82/134/26 84/138/26
f 87/63/26 86/60/26 83/137/26 82/134/26
f 82/134/22 83/137/22 92/139/22 91/135/22
f 98/66/27 97/65/27 96/142/27 95/141/27
f 97/65/27 99/69/27 94/140/27 96/142/27
f 99/69/27 98/66/27 95/141/27 94/140/27
f 94/140/8 95/141/8 104/23/8 103/25/8
f 110/72/28 109/71/28 108/147/28 107/146/28
f 109/71/28 111/75/28 106/143/28 108/147/28
f 111/75/28 110/72/28 107/146/28 106/143/28
f 106/143/11 107/146/11 116/148/11 115/144/11
f 122/78/29 121/77/29 120/151/29 119/150/29
f 121/77/29 123/81/29 118/149/29 120/151/29
f 123/81/29 122/78/29 119/150/29 118/149/29
f 118/149/14 119/150/14 128/26/14 127/28/14
f 134/84/30 133/83/30 132/156/30 131/155/30
f 133/83/30 135/87/30 130/152/30 132/156/30
f 135/87/30 134/84/30 131/155/30 130/152/30
f 130/152/17 131/155/17 140/157/17 139/153/17
usemtl Material.007
f 17/4/1 21/3/1 22/6/1 18/5/1
f 15/8/1 24/7/1 25/14/1 16/13/1
f 19/12/1 27/11/1 23/2/1 14/1/1
f 20/16/1 28/15/1 26/10/1 13/9/1
f 68/130/63 69/127/63 67/126/63
f 92/139/64 93/136/64 91/135/64
f 116/148/65 117/145/65 115/144/65
f 140/157/66 141/154/66 139/153/66
usemtl Material.008
f 29/105/1 17/4/1 18/5/1 30/117/1
f 31/108/1 14/1/1 17/4/1 29/105/1
f 30/117/1 18/5/1 15/8/1 32/112/1
f 32/112/1 15/8/1 16/13/1 33/109/1
f 34/120/1 13/9/1 19/12/1 35/114/1
f 35/114/1 19/12/1 14/1/1 31/108/1
f 36/115/1 20/16/1 13/9/1 34/120/1
f 33/109/1 16/13/1 20/16/1 36/115/1
