# Blender v2.91.0 OBJ File: 'Item_Spawner (1).blend'
# www.blender.org
mtllib spawner4.mtl
o Cone
v -0.500466 0.000173 -0.206003
v -0.208217 0.000173 -0.499549
v -0.000000 0.000173 0.000000
v -0.499549 0.000173 0.208217
v -0.000000 0.000173 0.000000
v 0.500466 0.000173 0.206002
v 0.499549 0.000173 -0.208217
v 0.206003 0.000173 -0.500466
v 0.000000 0.000173 0.000000
v 0.208217 0.000173 0.499549
v -0.206003 0.000173 0.500466
v 0.000000 0.000173 0.000000
v -0.163114 0.164128 -0.067141
v -0.067141 0.164128 0.163114
v 0.162815 0.164128 -0.067863
v 0.067141 0.164128 -0.163114
v 0.067863 0.164128 0.162815
v 0.163114 0.164128 0.067141
v -0.162815 0.164128 0.067863
v -0.067863 0.164128 -0.162815
v 0.208217 0.059010 0.499549
v 0.500466 0.059010 0.206002
v -0.206003 0.059010 0.500466
v 0.499549 0.059010 -0.208217
v 0.206003 0.059010 -0.500466
v -0.500466 0.059010 -0.206003
v -0.499549 0.059010 0.208217
v -0.208217 0.059010 -0.499549
v 0.030003 0.164128 0.071981
v 0.072113 0.164128 0.029683
v -0.029683 0.164128 0.072113
v 0.071981 0.164128 -0.030003
v 0.029683 0.164128 -0.072113
v -0.072113 0.164128 -0.029683
v -0.071981 0.164128 0.030003
v -0.030003 0.164128 -0.071981
v -0.000000 0.151663 0.000000
v 0.029683 0.151663 -0.072113
v -0.029683 0.151663 0.072113
v -0.071981 0.151663 0.030003
v 0.071981 0.151663 -0.030003
v 0.072113 0.151663 0.029683
v -0.072113 0.151663 -0.029683
v -0.030003 0.151663 -0.071981
v 0.030003 0.151663 0.071981
v 0.208218 0.002036 0.483819
v -0.206002 0.002213 0.482927
v 0.000000 -0.093443 0.969733
v 0.000282 -0.069115 0.845926
v -0.133213 -0.007128 0.530463
v 0.135212 -0.007242 0.531041
v 0.000282 -0.061833 0.848047
v -0.133213 0.000154 0.532584
v 0.135212 0.000040 0.533162
v 0.208218 0.059263 0.500488
v -0.206002 0.059439 0.499595
v 0.000000 -0.056320 0.849293
v 0.489252 0.001806 0.194925
v 0.195771 0.002447 0.487238
v 0.685580 -0.093439 0.685830
v 0.598249 -0.069112 0.598071
v 0.280840 -0.006975 0.469379
v 0.471023 -0.007390 0.279952
v 0.599757 -0.061830 0.599563
v 0.282348 0.000307 0.470870
v 0.472532 -0.000108 0.281443
v 0.501107 0.059033 0.206643
v 0.207626 0.059673 0.498956
v 0.600446 -0.056317 0.600637
v 0.483647 0.000828 -0.207702
v 0.483103 0.003446 0.206506
v 0.969735 -0.093423 0.000931
v 0.845928 -0.069097 0.000542
v 0.530577 -0.006324 0.133760
v 0.530930 -0.008020 -0.134658
v 0.848049 -0.061815 0.000477
v 0.532698 0.000958 0.133695
v 0.533051 -0.000738 -0.134723
v 0.500315 0.058053 -0.208213
v 0.499771 0.060671 0.205995
v 0.849296 -0.056301 0.000710
v 0.194574 0.003619 -0.489968
v 0.486507 0.000606 -0.196130
v 0.684842 -0.093462 -0.686563
v 0.597197 -0.069132 -0.599118
v 0.468671 -0.008174 -0.281305
v 0.279491 -0.006221 -0.471720
v 0.598757 -0.061850 -0.600558
v 0.470231 -0.000892 -0.282745
v 0.281051 0.001061 -0.473160
v 0.206833 0.060843 -0.501282
v 0.498766 0.057830 -0.207444
v 0.599883 -0.056340 -0.601195
v -0.208671 0.002856 -0.483937
v 0.205543 0.001380 -0.482809
v -0.000816 -0.093458 -0.969731
v -0.001007 -0.069129 -0.845925
v 0.132720 -0.007671 -0.530386
v -0.135702 -0.006714 -0.531117
v -0.000949 -0.061846 -0.848046
v 0.132778 -0.000389 -0.532507
v -0.135643 0.000568 -0.533238
v -0.208213 0.060082 -0.500605
v 0.206001 0.058605 -0.499476
v -0.000623 -0.056335 -0.849292
v -0.489492 0.002407 -0.194807
v -0.195888 0.001835 -0.486997
v -0.685906 -0.093448 -0.685502
v -0.598537 -0.069120 -0.597781
v -0.280993 -0.007374 -0.469145
v -0.471256 -0.007003 -0.279798
v -0.600023 -0.061837 -0.599295
v -0.282479 -0.000092 -0.470659
v -0.472742 0.000279 -0.281312
v -0.501167 0.059634 -0.206704
v -0.207564 0.059062 -0.498895
v -0.600694 -0.056326 -0.600386
v -0.483854 0.002277 0.208319
v -0.482892 0.001968 -0.205900
v -0.969732 -0.093446 0.000185
v -0.845925 -0.069118 0.000446
v -0.530440 -0.007288 -0.133103
v -0.531063 -0.007087 0.135322
v -0.848046 -0.061836 0.000433
v -0.532561 -0.000005 -0.133116
v -0.533184 0.000195 0.135309
v -0.500522 0.059503 0.208217
v -0.499560 0.059194 -0.206002
v -0.849293 -0.056324 0.000141
v -0.194854 0.002167 0.489396
v -0.487094 0.002080 0.195841
v -0.685633 -0.093444 0.685775
v -0.597897 -0.069117 0.598422
v -0.469239 -0.007214 0.280931
v -0.279859 -0.007158 0.471163
v -0.599402 -0.061834 0.599917
v -0.470743 0.000068 0.282426
v -0.281364 0.000124 0.472658
v -0.206679 0.059393 0.501144
v -0.498919 0.059307 0.207588
v -0.600487 -0.056322 0.600595
vt 0.000000 0.000000
vt 0.000000 0.000000
vt 0.000000 0.000000
vt 0.000000 0.000000
vt 0.000000 0.000000
vt 0.000000 0.000000
vt 0.000000 0.000000
vt 0.000000 0.000000
vt 0.000000 0.000000
vt 0.000000 0.000000
vt 0.000000 0.000000
vt 0.000000 0.000000
vt 0.000000 0.000000
vt 0.000000 0.000000
vt 0.000000 0.000000
vt 0.000000 0.000000
vt 0.010000 0.250000
vt 0.010000 0.250000
vt 0.080294 0.080294
vt 0.010000 0.250000
vt 0.010000 0.250000
vt 0.080294 0.080294
vt 0.010000 0.250000
vt 0.010000 0.250000
vt 0.080294 0.080294
vt 0.010000 0.250000
vt 0.010000 0.250000
vt 0.080294 0.080294
vt 0.750000 0.250000
vt 0.750000 0.010000
vt 0.580294 0.080294
vt 0.510000 0.250000
vt 0.750000 0.250000
vt 0.580294 0.080294
vt 0.510000 0.250000
vt 0.750000 0.250000
vt 0.580294 0.080294
vt 0.750000 0.010000
vt 0.750000 0.250000
vt 0.580294 0.080294
vt 0.018947 0.228400
vt 0.018947 0.228400
vt 0.018947 0.228400
vt 0.018947 0.228400
vt 0.064500 0.118426
vt 0.064500 0.118426
vt 0.018947 0.228400
vt 0.018947 0.228400
vt 0.018947 0.228400
vt 0.018947 0.228400
vt 0.064500 0.118426
vt 0.064500 0.118426
vt 0.018947 0.228400
vt 0.018947 0.228400
vt 0.018947 0.228400
vt 0.018947 0.228400
vt 0.064500 0.118426
vt 0.064500 0.118426
vt 0.018947 0.228400
vt 0.018947 0.228400
vt 0.018947 0.228400
vt 0.018947 0.228400
vt 0.064500 0.118426
vt 0.064500 0.118426
vt 0.018947 0.228400
vt 0.018947 0.228400
vt 0.018947 0.228400
vt 0.018947 0.228400
vt 0.064500 0.118426
vt 0.064500 0.118426
vt 0.018947 0.228400
vt 0.018947 0.228400
vt 0.018947 0.228400
vt 0.018947 0.228400
vt 0.064500 0.118426
vt 0.064500 0.118426
vt 0.018947 0.228400
vt 0.018947 0.228400
vt 0.018947 0.228400
vt 0.018947 0.228400
vt 0.064500 0.118426
vt 0.064500 0.118426
vt 0.018947 0.228400
vt 0.018947 0.228400
vt 0.018947 0.228400
vt 0.018947 0.228400
vt 0.064500 0.118426
vt 0.064500 0.118426
vt 0.080294 0.080294
vt 0.010000 0.250000
vt 0.010000 0.250000
vt 0.080294 0.080294
vt 0.250000 0.010000
vt 0.250000 0.010000
vt 0.080294 0.080294
vt 0.080294 0.080294
vt 0.010000 0.250000
vt 0.010000 0.250000
vt 0.080294 0.080294
vt 0.080294 0.080294
vt 0.250000 0.010000
vt 0.250000 0.010000
vt 0.080294 0.080294
vt 0.080294 0.080294
vt 0.000000 0.000000
vt 0.000000 0.000000
vt 0.000000 0.000000
vt 0.000000 0.000000
vt 0.000000 0.000000
vt 0.000000 0.000000
vt 0.000000 0.000000
vt 0.000000 0.000000
vt 0.000000 0.000000
vt 0.000000 0.000000
vt 0.000000 0.000000
vt 0.000000 0.000000
vt 0.000000 0.000000
vt 0.000000 0.000000
vt 0.000000 0.000000
vt 0.000000 0.000000
vt 0.000000 0.000000
vt 0.080294 0.080294
vt 0.010000 0.250000
vt 0.010000 0.250000
vt 0.080294 0.080294
vt 0.080294 0.080294
vt 0.010000 0.250000
vt 0.010000 0.250000
vt 0.010000 0.250000
vt 0.010000 0.250000
vt 0.080294 0.080294
vt 0.010000 0.250000
vt 0.010000 0.250000
vt 0.080294 0.080294
vt 0.080294 0.080294
vt 0.010000 0.250000
vt 0.010000 0.250000
vt 0.010000 0.250000
vt 0.010000 0.250000
vt 0.080294 0.080294
vt 0.010000 0.250000
vt 0.010000 0.250000
vt 0.080294 0.080294
vt 0.080294 0.080294
vt 0.010000 0.250000
vt 0.010000 0.250000
vt 0.010000 0.250000
vt 0.010000 0.250000
vt 0.080294 0.080294
vt 0.010000 0.250000
vt 0.010000 0.250000
vt 0.080294 0.080294
vt 0.080294 0.080294
vt 0.010000 0.250000
vt 0.010000 0.250000
vt 0.010000 0.250000
vt 0.010000 0.250000
vn 0.0007 0.9546 0.2977
vn 0.2977 0.9546 -0.0007
vn -0.2977 0.9546 0.0007
vn -0.0007 0.9546 -0.2977
vn -0.0003 0.9493 0.3144
vn 0.3144 0.9493 -0.0056
vn 0.0042 0.9493 -0.3144
vn -0.3144 0.9493 -0.0014
vn 0.0000 -1.0000 0.0000
vn 0.9230 0.1076 -0.3694
vn -0.0022 -0.2797 0.9601
vn -0.9213 0.1088 -0.3734
vn 0.3914 0.1061 -0.9141
vn 0.6772 -0.2797 0.6806
vn -0.9153 0.1103 0.3874
vn -0.3703 0.0996 -0.9235
vn 0.9601 -0.2796 0.0030
vn -0.3725 0.1167 0.9207
vn -0.9125 0.1180 -0.3917
vn 0.6797 -0.2797 -0.6781
vn 0.3871 0.0983 0.9168
vn -0.9225 0.1147 0.3686
vn 0.0016 -0.2797 -0.9601
vn 0.9217 0.1016 0.3742
vn -0.3915 0.1101 0.9136
vn -0.6775 -0.2797 -0.6803
vn 0.9158 0.1063 -0.3873
vn 0.3693 0.1092 0.9229
vn -0.9601 -0.2796 -0.0020
vn 0.3736 0.1072 -0.9214
vn 0.9138 0.1085 0.3914
vn -0.6804 -0.2797 0.6774
vn -0.3874 0.1079 -0.9156
vn -0.0000 -0.9812 -0.1928
vn -0.1371 -0.9812 -0.1355
vn -0.1928 -0.9812 0.0059
vn -0.1418 -0.9812 0.1308
vn -0.0040 -0.9812 0.1928
vn 0.1350 -0.9812 0.1376
vn 0.1928 -0.9812 0.0012
vn 0.1368 -0.9812 -0.1359
vn -0.0022 0.0000 -1.0000
vn -0.7087 0.0000 -0.7055
vn -0.7055 0.0000 0.7087
vn -1.0000 0.0000 0.0022
vn 0.7055 0.0000 -0.7087
vn 1.0000 0.0000 -0.0022
vn 0.0022 0.0000 1.0000
vn 0.7087 0.0000 0.7055
vn 0.0000 1.0000 -0.0000
vn 0.8699 -0.1379 0.4736
vn -0.2446 0.9266 0.2856
vn -0.8727 -0.1366 0.4689
vn 0.2418 0.9273 0.2858
vn 0.9498 -0.1394 -0.2803
vn 0.0298 0.9269 0.3742
vn -0.2855 -0.1351 0.9488
vn 0.3738 0.9270 0.0303
vn 0.4727 -0.1454 -0.8692
vn 0.2856 0.9281 0.2388
vn 0.4697 -0.1290 0.8733
vn 0.2858 0.9257 -0.2476
vn -0.2800 -0.1281 -0.9514
vn 0.3803 0.9246 -0.0235
vn 0.9471 -0.1464 0.2857
vn 0.0366 0.9292 -0.3677
vn -0.8705 -0.1312 -0.4744
vn 0.2487 0.9255 -0.2857
vn 0.8720 -0.1433 -0.4680
vn -0.2377 0.9283 -0.2858
vn -0.9503 -0.1356 0.2802
vn -0.0277 0.9261 -0.3762
vn 0.2856 -0.1389 -0.9482
vn -0.3718 0.9277 -0.0324
vn -0.4737 -0.1364 0.8700
vn -0.2856 0.9263 -0.2458
vn -0.4687 -0.1381 -0.8725
vn -0.2858 0.9276 0.2406
vn 0.2802 -0.1371 0.9501
vn -0.3754 0.9264 0.0285
vn -0.9485 -0.1374 -0.2855
vn -0.0316 0.9274 0.3726
vn 0.0022 0.2797 -0.9601
vn -0.6772 0.2796 -0.6806
vn -0.9601 0.2796 -0.0030
vn -0.6797 0.2797 0.6781
vn -0.0016 0.2797 0.9601
vn 0.6775 0.2797 0.6803
vn 0.9601 0.2797 0.0020
vn 0.6804 0.2797 -0.6774
vn 0.2110 0.9546 0.2101
vn 0.2101 0.9546 -0.2110
vn -0.2101 0.9546 0.2110
vn -0.2110 0.9546 -0.2101
vn 0.2229 0.9493 0.2217
vn 0.2279 0.9493 -0.2167
vn -0.2209 0.9493 -0.2238
vn -0.2230 0.9493 0.2217
usemtl Material.001
s off
f 14/1/1 23/2/1 21/3/1 17/4/1
f 18/5/2 22/6/2 24/7/2 15/8/2
f 13/9/3 26/10/3 27/11/3 19/12/3
f 16/13/4 25/14/4 28/15/4 20/16/4
f 56/17/5 57/18/5 55/19/5
f 80/20/6 81/21/6 79/22/6
f 104/23/7 105/24/7 103/25/7
f 128/26/8 129/27/8 127/28/8
usemtl Material.002
f 3/29/9 1/30/9 2/31/9
f 8/32/9 3/29/9 2/31/9
f 5/33/9 4/34/9 1/30/9
f 11/35/9 4/34/9 5/33/9
f 9/36/9 7/37/9 6/38/9
f 8/32/9 7/37/9 9/36/9
f 12/39/9 6/38/9 10/40/9
f 11/35/9 12/39/9 10/40/9
f 49/41/10 50/42/10 53/43/10 52/44/10
f 50/42/11 51/45/11 54/46/11 53/43/11
f 51/45/12 49/41/12 52/44/12 54/46/12
f 61/47/13 62/48/13 65/49/13 64/50/13
f 62/48/14 63/51/14 66/52/14 65/49/14
f 63/51/15 61/47/15 64/50/15 66/52/15
f 73/53/16 74/54/16 77/55/16 76/56/16
f 74/54/17 75/57/17 78/58/17 77/55/17
f 75/57/18 73/53/18 76/56/18 78/58/18
f 85/59/19 86/60/19 89/61/19 88/62/19
f 86/60/20 87/63/20 90/64/20 89/61/20
f 87/63/21 85/59/21 88/62/21 90/64/21
f 97/65/22 98/66/22 101/67/22 100/68/22
f 98/66/23 99/69/23 102/70/23 101/67/23
f 99/69/24 97/65/24 100/68/24 102/70/24
f 109/71/25 110/72/25 113/73/25 112/74/25
f 110/72/26 111/75/26 114/76/26 113/73/26
f 111/75/27 109/71/27 112/74/27 114/76/27
f 121/77/28 122/78/28 125/79/28 124/80/28
f 122/78/29 123/81/29 126/82/29 125/79/29
f 123/81/30 121/77/30 124/80/30 126/82/30
f 133/83/31 134/84/31 137/85/31 136/86/31
f 134/84/32 135/87/32 138/88/32 137/85/32
f 135/87/33 133/83/33 136/86/33 138/88/33
usemtl Material.003
f 53/43/34 54/46/34 52/44/34
f 65/49/35 66/52/35 64/50/35
f 77/55/36 78/58/36 76/56/36
f 89/61/37 90/64/37 88/62/37
f 101/67/38 102/70/38 100/68/38
f 113/73/39 114/76/39 112/74/39
f 125/79/40 126/82/40 124/80/40
f 137/85/41 138/88/41 136/86/41
usemtl Material.004
f 28/89/42 25/90/42 8/91/42 2/92/42
f 26/93/43 28/89/43 2/92/43 1/94/43
f 27/95/44 4/96/44 11/97/44 23/98/44
f 26/93/45 1/94/45 4/96/45 27/95/45
f 24/99/46 7/100/46 8/91/46 25/90/46
f 22/101/47 6/102/47 7/100/47 24/99/47
f 21/103/48 23/98/48 11/97/48 10/104/48
f 22/101/49 21/103/49 10/104/49 6/102/49
f 29/105/42 45/106/42 39/107/42 31/108/42
f 33/109/44 38/110/44 41/111/44 32/112/44
f 31/108/46 39/107/46 40/113/46 35/114/46
f 36/115/48 44/116/48 38/110/48 33/109/48
f 30/117/43 42/118/43 45/106/43 29/105/43
f 32/112/45 41/111/45 42/118/45 30/117/45
f 35/114/47 40/113/47 43/119/47 34/120/47
f 34/120/49 43/119/49 44/116/49 36/115/49
usemtl Material.005
f 44/116/50 37/121/50 38/110/50
f 41/111/50 38/110/50 37/121/50
f 39/107/50 37/121/50 40/113/50
f 42/118/50 41/111/50 37/121/50
f 45/106/50 37/121/50 39/107/50
f 40/113/50 37/121/50 43/119/50
f 43/119/50 37/121/50 44/116/50
f 42/118/50 37/121/50 45/106/50
f 46/122/51 55/19/51 57/18/51
f 47/123/52 48/124/52 57/18/52
f 56/17/53 47/123/53 57/18/53
f 48/124/54 46/122/54 57/18/54
f 58/125/55 67/126/55 69/127/55
f 59/128/56 60/129/56 69/127/56
f 68/130/57 59/128/57 69/127/57
f 60/129/58 58/125/58 69/127/58
f 70/131/59 79/22/59 81/21/59
f 71/132/60 72/133/60 81/21/60
f 80/20/61 71/132/61 81/21/61
f 72/133/62 70/131/62 81/21/62
f 82/134/63 91/135/63 93/136/63
f 83/137/64 84/138/64 93/136/64
f 92/139/65 83/137/65 93/136/65
f 84/138/66 82/134/66 93/136/66
f 94/140/67 103/25/67 105/24/67
f 95/141/68 96/142/68 105/24/68
f 104/23/69 95/141/69 105/24/69
f 96/142/70 94/140/70 105/24/70
f 106/143/71 115/144/71 117/145/71
f 107/146/72 108/147/72 117/145/72
f 116/148/73 107/146/73 117/145/73
f 108/147/74 106/143/74 117/145/74
f 118/149/75 127/28/75 129/27/75
f 119/150/76 120/151/76 129/27/76
f 128/26/77 119/150/77 129/27/77
f 120/151/78 118/149/78 129/27/78
f 130/152/79 139/153/79 141/154/79
f 131/155/80 132/156/80 141/154/80
f 140/157/81 131/155/81 141/154/81
f 132/156/82 130/152/82 141/154/82
usemtl Material.006
f 50/42/34 49/41/34 48/124/34 47/123/34
f 49/41/34 51/45/34 46/122/34 48/124/34
f 51/45/34 50/42/34 47/123/34 46/122/34
f 46/122/83 47/123/83 56/17/83 55/19/83
f 62/48/35 61/47/35 60/129/35 59/128/35
f 61/47/35 63/51/35 58/125/35 60/129/35
f 63/51/35 62/48/35 59/128/35 58/125/35
f 58/125/84 59/128/84 68/130/84 67/126/84
f 74/54/36 73/53/36 72/133/36 71/132/36
f 73/53/36 75/57/36 70/131/36 72/133/36
f 75/57/36 74/54/36 71/132/36 70/131/36
f 70/131/85 71/132/85 80/20/85 79/22/85
f 86/60/37 85/59/37 84/138/37 83/137/37
f 85/59/37 87/63/37 82/134/37 84/138/37
f 87/63/37 86/60/37 83/137/37 82/134/37
f 82/134/86 83/137/86 92/139/86 91/135/86
f 98/66/38 97/65/38 96/142/38 95/141/38
f 97/65/38 99/69/38 94/140/38 96/142/38
f 99/69/38 98/66/38 95/141/38 94/140/38
f 94/140/87 95/141/87 104/23/87 103/25/87
f 110/72/39 109/71/39 108/147/39 107/146/39
f 109/71/39 111/75/39 106/143/39 108/147/39
f 111/75/39 110/72/39 107/146/39 106/143/39
f 106/143/88 107/146/88 116/148/88 115/144/88
f 122/78/40 121/77/40 120/151/40 119/150/40
f 121/77/40 123/81/40 118/149/40 120/151/40
f 123/81/40 122/78/40 119/150/40 118/149/40
f 118/149/89 119/150/89 128/26/89 127/28/89
f 134/84/41 133/83/41 132/156/41 131/155/41
f 133/83/41 135/87/41 130/152/41 132/156/41
f 135/87/41 134/84/41 131/155/41 130/152/41
f 130/152/90 131/155/90 140/157/90 139/153/90
usemtl Material.007
f 17/4/91 21/3/91 22/6/91 18/5/91
f 15/8/92 24/7/92 25/14/92 16/13/92
f 19/12/93 27/11/93 23/2/93 14/1/93
f 20/16/94 28/15/94 26/10/94 13/9/94
f 68/130/95 69/127/95 67/126/95
f 92/139/96 93/136/96 91/135/96
f 116/148/97 117/145/97 115/144/97
f 140/157/98 141/154/98 139/153/98
usemtl Material.008
f 29/105/50 17/4/50 18/5/50 30/117/50
f 31/108/50 14/1/50 17/4/50 29/105/50
f 30/117/50 18/5/50 15/8/50 32/112/50
f 32/112/50 15/8/50 16/13/50 33/109/50
f 34/120/50 13/9/50 19/12/50 35/114/50
f 35/114/50 19/12/50 14/1/50 31/108/50
f 36/115/50 20/16/50 13/9/50 34/120/50
f 33/109/50 16/13/50 20/16/50 36/115/50
