{
    "asset" : {
        "generator" : "Khronos glTF Blender I/O v1.3.48",
        "version" : "2.0"
    },
    "scene" : 0,
    "scenes" : [
        {
            "name" : "Scene",
            "nodes" : [
                0
            ]
        }
    ],
    "nodes" : [
        {
            "mesh" : 0,
            "name" : "Cube.001"
        }
    ],
    "meshes" : [
        {
            "name" : "Cube",
            "primitives" : [
                {
                    "attributes" : {
                        "POSITION" : 0,
                        "NORMAL" : 1,
                        "TEXCOORD_0" : 2
                    },
                    "indices" : 3
                }
            ]
        }
    ],
    "accessors" : [
        {
            "bufferView" : 0,
            "componentType" : 5126,
            "count" : 1390,
            "max" : [
                0.731301486492157,
                3.168700695037842,
                0.25
            ],
            "min" : [
                -1.1980689764022827,
                -0.8538107872009277,
                -0.25
            ],
            "type" : "VEC3"
        },
        {
            "bufferView" : 1,
            "componentType" : 5126,
            "count" : 1390,
            "type" : "VEC3"
        },
        {
            "bufferView" : 2,
            "componentType" : 5126,
            "count" : 1390,
            "type" : "VEC2"
        },
        {
            "bufferView" : 3,
            "componentType" : 5123,
            "count" : 1998,
            "type" : "SCALAR"
        }
    ],
    "bufferViews" : [
        {
            "buffer" : 0,
            "byteLength" : 16680,
            "byteOffset" : 0
        },
        {
            "buffer" : 0,
            "byteLength" : 16680,
            "byteOffset" : 16680
        },
        {
            "buffer" : 0,
            "byteLength" : 11120,
            "byteOffset" : 33360
        },
        {
            "buffer" : 0,
            "byteLength" : 3996,
            "byteOffset" : 44480
        }
    ],
    "buffers" : [
        {
            "byteLength" : 48476,
            "uri" : "data:application/octet-stream;base64,"
        }
    ]
}
