# Blender v2.90.1 OBJ File: ''
# www.blender.org
o Sphere
v 0.000000 -0.000000 -3.644199
v -0.000000 1.000000 -0.000000
v 0.270598 0.923880 -0.270598
v 0.500000 0.707107 -0.500000
v 0.527883 0.226104 -3.644199
v 0.639392 -0.000000 -0.736235
v 0.527883 -0.226104 -3.644199
v 0.500000 -0.707107 -0.500000
v 0.270598 -0.923880 -0.270598
v 0.382683 0.923880 -0.000000
v 0.707107 0.707107 -0.000000
v 0.923879 0.382683 -0.000000
v 1.000000 -0.000000 -0.000000
v 0.923879 -0.382684 -0.000000
v 0.707107 -0.707107 -0.000000
v 0.382683 -0.923880 -0.000000
v 0.000000 -1.000000 -0.000000
v 0.270598 0.923880 0.270598
v 0.500000 0.707107 0.500000
v 0.653281 0.382683 0.653281
v 0.707107 -0.000000 0.707106
v 0.653281 -0.382684 0.653281
v 0.500000 -0.707107 0.500000
v 0.270598 -0.923880 0.270598
v 0.000000 0.923880 0.382683
v 0.000000 0.707107 0.707106
v 0.000000 0.382683 0.923879
v 0.000000 -0.000000 1.000000
v 0.000000 -0.382684 0.923879
v 0.000000 -0.707107 0.707106
v 0.000000 -0.923880 0.382683
v -0.270598 0.923880 0.270598
v -0.500000 0.707107 0.500000
v -0.653281 0.382683 0.653281
v -0.707107 -0.000000 0.707106
v -0.653281 -0.382684 0.653281
v -0.500000 -0.707107 0.500000
v -0.270598 -0.923880 0.270598
v -0.382683 0.923880 -0.000000
v -0.707107 0.707107 -0.000000
v -0.923879 0.382683 -0.000000
v -1.000000 -0.000000 -0.000000
v -0.923879 -0.382684 -0.000000
v -0.707107 -0.707107 -0.000000
v -0.382683 -0.923880 -0.000000
v -0.270598 0.923880 -0.270598
v -0.500000 0.707107 -0.500000
v -0.527883 0.226104 -3.644199
v -0.639392 -0.000000 -0.736234
v -0.527883 -0.226104 -3.644199
v -0.500000 -0.707107 -0.500000
v -0.270598 -0.923880 -0.270598
v -0.000000 0.923880 -0.382683
v -0.000000 0.707107 -0.707107
v -0.000000 0.310032 -0.936214
v -0.000000 -0.310032 -0.936214
v -0.000000 -0.707107 -0.707107
v -0.000000 -0.923880 -0.382683
v 0.653281 0.382683 -0.653282
v 0.707107 -0.000000 -0.707107
v 0.653281 -0.382684 -0.653282
v -0.653281 0.382683 -0.653281
v -0.707107 -0.000000 -0.707107
v -0.653281 -0.382684 -0.653281
v -0.000000 -0.382684 -0.923879
v -0.000000 0.382683 -0.923879
v 0.595343 0.310380 -0.691663
v 0.618083 -0.000000 -3.644199
v 0.595343 -0.310380 -0.691663
v -0.595343 0.310380 -0.691662
v -0.618083 -0.000000 -3.644199
v -0.595343 -0.310380 -0.691662
v -0.000000 -0.287202 -3.644199
v -0.000000 0.287201 -3.644199
v 0.577146 0.287655 -3.644199
v 0.589020 -0.000000 -3.644199
v 0.577146 -0.287656 -3.644199
v -0.577146 0.287655 -3.644199
v -0.589020 -0.000000 -3.644199
v -0.577146 -0.287656 -3.644199
v -0.000000 -0.256079 -3.644199
v -0.000000 0.256078 -3.644199
v 0.552347 0.256676 -3.644199
v 0.560320 -0.000000 -3.644199
v 0.552347 -0.256676 -3.644199
v -0.552347 0.256676 -3.644199
v -0.560320 -0.000000 -3.644199
v -0.552347 -0.256676 -3.644199
v -0.000000 -0.225366 -3.644199
v -0.000000 0.225366 -3.644199
vt 0.750000 0.125000
vt 0.750000 0.250000
vt 0.625000 0.250000
vt 0.625000 0.125000
vt 0.749748 0.426164
vt 0.750000 0.500000
vt 0.651082 0.500115
vt 0.652112 0.426165
vt 0.750000 0.625000
vt 0.750000 0.750000
vt 0.625000 0.750000
vt 0.625000 0.625000
vt 0.750000 0.875000
vt 0.687500 1.000000
vt 0.625000 0.875000
vt 0.687500 0.000000
vt 0.750000 0.375000
vt 0.625000 0.375000
vt 0.749748 0.573836
vt 0.652112 0.573872
vt 0.562500 0.000000
vt 0.500000 0.125000
vt 0.500000 0.375000
vt 0.500000 0.250000
vt 0.625000 0.500000
vt 0.500000 0.625000
vt 0.500000 0.500000
vt 0.500000 0.875000
vt 0.500000 0.750000
vt 0.562500 1.000000
vt 0.375000 0.625000
vt 0.375000 0.500000
vt 0.375000 0.875000
vt 0.375000 0.750000
vt 0.375000 0.250000
vt 0.375000 0.125000
vt 0.375000 0.375000
vt 0.437500 1.000000
vt 0.437500 0.000000
vt 0.250000 0.250000
vt 0.250000 0.125000
vt 0.250000 0.500000
vt 0.250000 0.375000
vt 0.250000 0.750000
vt 0.250000 0.625000
vt 0.312500 1.000000
vt 0.250000 0.875000
vt 0.312500 0.000000
vt 0.125000 0.750000
vt 0.125000 0.625000
vt 0.187500 1.000000
vt 0.125000 0.875000
vt 0.187500 0.000000
vt 0.125000 0.125000
vt 0.125000 0.375000
vt 0.125000 0.250000
vt 0.125000 0.500000
vt 0.062500 0.000000
vt 0.000000 0.125000
vt 0.000000 0.375000
vt 0.000000 0.250000
vt 0.000000 0.625000
vt 0.000000 0.500000
vt 0.000000 0.875000
vt 0.000000 0.750000
vt 0.062500 1.000000
vt 1.000000 0.750000
vt 1.000000 0.875000
vt 0.875000 0.875000
vt 0.875000 0.750000
vt 1.000000 0.125000
vt 1.000000 0.250000
vt 0.875000 0.250000
vt 0.875000 0.125000
vt 1.000000 0.375000
vt 1.000000 0.500000
vt 0.875000 0.500000
vt 0.875000 0.375000
vt 1.000000 0.625000
vt 0.875000 0.625000
vt 0.937500 1.000000
vt 0.937500 0.000000
vt 0.847857 0.426165
vt 0.848918 0.500115
vt 0.812500 1.000000
vt 0.812500 0.000000
vt 0.847857 0.573872
vt 0.637039 0.500058
vt 0.637710 0.601383
vt 0.637710 0.398617
vt 0.862290 0.601383
vt 0.862961 0.500058
vt 0.862290 0.398617
vt 0.749866 0.398617
vt 0.749866 0.601383
vt 0.640825 0.500074
vt 0.641630 0.593964
vt 0.641630 0.406044
vt 0.858363 0.593964
vt 0.859175 0.500074
vt 0.858363 0.406044
vt 0.749831 0.406043
vt 0.749831 0.593957
vt 0.645986 0.500095
vt 0.646931 0.583851
vt 0.646931 0.416169
vt 0.853050 0.583851
vt 0.854014 0.500095
vt 0.853051 0.416169
vt 0.749787 0.416169
vt 0.749787 0.583831
vn 0.2243 -0.8103 -0.5414
vn 0.0000 0.0000 -1.0000
vn 0.3256 0.5253 -0.7862
vn 0.0805 0.9776 -0.1945
vn 0.0805 -0.9776 -0.1945
vn 0.3256 -0.5253 -0.7862
vn 0.2243 0.8103 -0.5414
vn 0.1945 -0.9776 -0.0805
vn 0.7862 -0.5253 -0.3256
vn 0.9087 0.1807 -0.3764
vn 0.5414 0.8103 -0.2243
vn 0.5414 -0.8103 -0.2243
vn 0.9087 -0.1807 -0.3764
vn 0.7862 0.5253 -0.3256
vn 0.1945 0.9776 -0.0805
vn 0.9087 0.1807 0.3764
vn 0.5414 0.8103 0.2243
vn 0.5414 -0.8103 0.2243
vn 0.9087 -0.1807 0.3764
vn 0.7862 0.5253 0.3256
vn 0.1945 0.9776 0.0805
vn 0.1945 -0.9776 0.0805
vn 0.7862 -0.5253 0.3256
vn 0.2243 -0.8103 0.5414
vn 0.3764 -0.1807 0.9087
vn 0.3256 0.5253 0.7862
vn 0.0805 0.9776 0.1945
vn 0.0805 -0.9776 0.1945
vn 0.3256 -0.5253 0.7862
vn 0.3764 0.1807 0.9087
vn 0.2243 0.8103 0.5414
vn -0.3256 0.5253 0.7862
vn -0.0805 0.9776 0.1945
vn -0.0805 -0.9776 0.1945
vn -0.3256 -0.5253 0.7862
vn -0.3764 0.1807 0.9087
vn -0.2243 0.8103 0.5414
vn -0.2243 -0.8103 0.5414
vn -0.3764 -0.1807 0.9087
vn -0.1945 -0.9776 0.0805
vn -0.7862 -0.5253 0.3256
vn -0.9087 0.1807 0.3764
vn -0.5414 0.8103 0.2243
vn -0.5414 -0.8103 0.2243
vn -0.9087 -0.1807 0.3764
vn -0.7862 0.5253 0.3256
vn -0.1945 0.9776 0.0805
vn -0.5414 0.8103 -0.2243
vn -0.5414 -0.8103 -0.2243
vn -0.9087 -0.1807 -0.3764
vn -0.7862 0.5253 -0.3256
vn -0.1945 0.9776 -0.0805
vn -0.1945 -0.9776 -0.0805
vn -0.7862 -0.5253 -0.3256
vn -0.9087 0.1807 -0.3764
vn -0.2243 -0.8103 -0.5414
vn -0.3256 0.5253 -0.7862
vn -0.0805 0.9776 -0.1945
vn -0.0805 -0.9776 -0.1945
vn -0.3256 -0.5253 -0.7862
vn -0.2243 0.8103 -0.5414
vn 0.3818 0.1825 -0.9061
vn 0.3818 -0.1825 -0.9061
vn -0.3818 0.1825 -0.9061
vn -0.3818 -0.1825 -0.9061
vn -0.3759 -0.1686 -0.9112
vn -0.3759 0.1686 -0.9112
vn 0.3759 -0.1686 -0.9112
vn 0.3759 0.1686 -0.9112
vn 0.9900 0.1412 -0.0072
vn 0.9900 -0.1412 -0.0072
vn -0.9900 0.1412 -0.0072
vn -0.9900 -0.1412 -0.0072
vn -0.0010 -1.0000 -0.0081
vn -0.0010 1.0000 -0.0081
vn 0.0010 -1.0000 -0.0081
vn 0.0010 1.0000 -0.0081
s off
f 58/1/1 57/2/1 8/3/1 9/4/1
f 89/5/2 1/6/2 84/7/2 7/8/2
f 66/9/3 54/10/3 4/11/3 59/12/3
f 53/13/4 2/14/4 3/15/4
f 17/16/5 58/1/5 9/4/5
f 57/2/6 65/17/6 61/18/6 8/3/6
f 1/6/2 90/19/2 5/20/2 84/7/2
f 54/10/7 53/13/7 3/15/7 4/11/7
f 17/21/8 9/4/8 16/22/8
f 8/3/9 61/18/9 14/23/9 15/24/9
f 60/25/10 59/12/10 12/26/10 13/27/10
f 4/11/11 3/15/11 10/28/11 11/29/11
f 9/4/12 8/3/12 15/24/12 16/22/12
f 61/18/13 60/25/13 13/27/13 14/23/13
f 59/12/14 4/11/14 11/29/14 12/26/14
f 3/15/15 2/30/15 10/28/15
f 13/27/16 12/26/16 20/31/16 21/32/16
f 11/29/17 10/28/17 18/33/17 19/34/17
f 16/22/18 15/24/18 23/35/18 24/36/18
f 14/23/19 13/27/19 21/32/19 22/37/19
f 12/26/20 11/29/20 19/34/20 20/31/20
f 10/28/21 2/38/21 18/33/21
f 17/39/22 16/22/22 24/36/22
f 15/24/23 14/23/23 22/37/23 23/35/23
f 24/36/24 23/35/24 30/40/24 31/41/24
f 22/37/25 21/32/25 28/42/25 29/43/25
f 20/31/26 19/34/26 26/44/26 27/45/26
f 18/33/27 2/46/27 25/47/27
f 17/48/28 24/36/28 31/41/28
f 23/35/29 22/37/29 29/43/29 30/40/29
f 21/32/30 20/31/30 27/45/30 28/42/30
f 19/34/31 18/33/31 25/47/31 26/44/31
f 27/45/32 26/44/32 33/49/32 34/50/32
f 25/47/33 2/51/33 32/52/33
f 17/53/34 31/41/34 38/54/34
f 30/40/35 29/43/35 36/55/35 37/56/35
f 28/42/36 27/45/36 34/50/36 35/57/36
f 26/44/37 25/47/37 32/52/37 33/49/37
f 31/41/38 30/40/38 37/56/38 38/54/38
f 29/43/39 28/42/39 35/57/39 36/55/39
f 17/58/40 38/54/40 45/59/40
f 37/56/41 36/55/41 43/60/41 44/61/41
f 35/57/42 34/50/42 41/62/42 42/63/42
f 33/49/43 32/52/43 39/64/43 40/65/43
f 38/54/44 37/56/44 44/61/44 45/59/44
f 36/55/45 35/57/45 42/63/45 43/60/45
f 34/50/46 33/49/46 40/65/46 41/62/46
f 32/52/47 2/66/47 39/64/47
f 40/67/48 39/68/48 46/69/48 47/70/48
f 45/71/49 44/72/49 51/73/49 52/74/49
f 43/75/50 42/76/50 63/77/50 64/78/50
f 41/79/51 40/67/51 47/70/51 62/80/51
f 39/68/52 2/81/52 46/69/52
f 17/82/53 45/71/53 52/74/53
f 44/72/54 43/75/54 64/78/54 51/73/54
f 42/76/55 41/79/55 62/80/55 63/77/55
f 52/74/56 51/73/56 57/2/56 58/1/56
f 50/83/2 87/84/2 1/6/2 89/5/2
f 62/80/57 47/70/57 54/10/57 66/9/57
f 46/69/58 2/85/58 53/13/58
f 17/86/59 52/74/59 58/1/59
f 51/73/60 64/78/60 65/17/60 57/2/60
f 87/84/2 48/87/2 90/19/2 1/6/2
f 47/70/61 46/69/61 53/13/61 54/10/61
f 6/88/62 67/89/62 59/12/62 60/25/62
f 69/90/63 6/88/63 60/25/63 61/18/63
f 70/91/64 49/92/64 63/77/64 62/80/64
f 49/92/65 72/93/65 64/78/65 63/77/65
f 72/93/66 56/94/66 65/17/66 64/78/66
f 55/95/67 70/91/67 62/80/67 66/9/67
f 56/94/68 69/90/68 61/18/68 65/17/68
f 67/89/69 55/95/69 66/9/69 59/12/69
f 68/96/70 75/97/70 67/89/70 6/88/70
f 77/98/71 68/96/71 6/88/71 69/90/71
f 78/99/72 71/100/72 49/92/72 70/91/72
f 71/100/73 80/101/73 72/93/73 49/92/73
f 80/101/74 73/102/74 56/94/74 72/93/74
f 74/103/75 78/99/75 70/91/75 55/95/75
f 73/102/76 77/98/76 69/90/76 56/94/76
f 75/97/77 74/103/77 55/95/77 67/89/77
f 76/104/2 83/105/2 75/97/2 68/96/2
f 85/106/2 76/104/2 68/96/2 77/98/2
f 86/107/2 79/108/2 71/100/2 78/99/2
f 79/108/2 88/109/2 80/101/2 71/100/2
f 88/109/2 81/110/2 73/102/2 80/101/2
f 82/111/2 86/107/2 78/99/2 74/103/2
f 81/110/2 85/106/2 77/98/2 73/102/2
f 83/105/2 82/111/2 74/103/2 75/97/2
f 84/7/2 5/20/2 83/105/2 76/104/2
f 7/8/2 84/7/2 76/104/2 85/106/2
f 48/87/2 87/84/2 79/108/2 86/107/2
f 87/84/2 50/83/2 88/109/2 79/108/2
f 50/83/2 89/5/2 81/110/2 88/109/2
f 90/19/2 48/87/2 86/107/2 82/111/2
f 89/5/2 7/8/2 85/106/2 81/110/2
f 5/20/2 90/19/2 82/111/2 83/105/2
