# Blender v2.90.1 OBJ File: 'drone.blend'
# www.blender.org
mtllib drone3.mtl
o Plane.003_Plane.006
v -0.000000 1.000000 0.000000
v 0.000000 -1.000000 0.000000
v 0.212119 1.000000 0.366975
v 0.214306 -1.000000 0.370758
v -0.000000 1.000000 0.000000
v 0.000000 -1.000000 -0.000000
v 0.389629 0.694686 0.674073
v 0.468360 0.291045 0.810282
v 0.472734 -0.312895 0.817849
v 0.372862 -0.776263 0.645066
v 0.367295 1.000000 0.211565
v 0.371082 -1.000000 0.213746
v -0.000000 1.000000 0.000000
v 0.000000 -1.000000 -0.000000
v 0.674661 0.694687 0.388611
v 0.810988 0.291045 0.467136
v 0.818561 -0.312895 0.471499
v 0.645629 -0.776263 0.371888
v 0.423869 1.000000 -0.000640
v 0.428239 -1.000000 -0.000647
v 0.000000 1.000000 0.000000
v -0.000000 -1.000000 -0.000000
v 0.778578 0.694687 -0.001175
v 0.935904 0.291045 -0.001413
v 0.944644 -0.312895 -0.001426
v 0.745074 -0.776263 -0.001125
v 0.366654 1.000000 -0.212673
v 0.370435 -1.000000 -0.214866
v 0.000000 1.000000 0.000000
v -0.000000 -1.000000 -0.000000
v 0.673484 0.694687 -0.390646
v 0.809574 0.291045 -0.469583
v 0.817134 -0.312895 -0.473968
v 0.644503 -0.776263 -0.373836
v 0.211010 1.000000 -0.367614
v 0.213186 -1.000000 -0.371404
v 0.000000 1.000000 0.000000
v -0.000000 -1.000000 -0.000000
v 0.387592 0.694686 -0.675247
v 0.465911 0.291045 -0.811692
v 0.470262 -0.312895 -0.819272
v 0.370913 -0.776263 -0.646189
v -0.001280 1.000000 -0.423868
v -0.001293 -1.000000 -0.428238
v 0.000000 1.000000 -0.000000
v -0.000000 -1.000000 0.000000
v -0.002351 0.694686 -0.778576
v -0.002826 0.291045 -0.935901
v -0.002852 -0.312895 -0.944641
v -0.002250 -0.776263 -0.745072
v -0.213226 1.000000 -0.366333
v -0.215425 -1.000000 -0.370110
v 0.000000 1.000000 -0.000000
v -0.000000 -1.000000 0.000000
v -0.391663 0.694686 -0.672894
v -0.470805 0.291045 -0.808864
v -0.475201 -0.312895 -0.816418
v -0.374808 -0.776263 -0.643938
v -0.367932 1.000000 -0.210455
v -0.371725 -1.000000 -0.212625
v 0.000000 1.000000 -0.000000
v -0.000000 -1.000000 0.000000
v -0.675831 0.694686 -0.386572
v -7.680927 -6.343460 -3.411550
v -7.682138 6.294960 -3.425488
v -0.646748 -0.776263 -0.369937
v -0.423865 1.000000 0.001920
v -0.428235 -1.000000 0.001940
v -0.000000 1.000000 -0.000000
v 0.000000 -1.000000 0.000000
v -0.778571 0.694686 0.003526
v -0.937862 0.145088 0.004248
v -0.944635 -0.312895 0.004279
v -0.745067 -0.776263 0.003375
v -0.366011 1.000000 0.213779
v -0.369784 -1.000000 0.215983
v -0.000000 1.000000 -0.000000
v 0.000000 -1.000000 0.000000
v -0.672302 0.694686 0.392678
v -7.678998 -6.343802 3.419548
v -7.680205 6.294614 3.433738
v -0.643371 -0.776263 0.375780
v -0.209900 1.000000 0.368249
v -0.212063 -1.000000 0.372046
v -0.000000 1.000000 -0.000000
v 0.000000 -1.000000 0.000000
v -0.385551 0.694686 0.676414
v -0.463458 0.291045 0.813095
v -0.467787 -0.312895 0.820689
v -0.368960 -0.776263 0.647306
v 0.002560 1.000000 0.423862
v 0.002586 -1.000000 0.428232
v -0.000000 1.000000 0.000000
v 0.000000 -1.000000 -0.000000
v 0.004702 0.694686 0.778565
v 0.005652 0.291045 0.935888
v 0.005705 -0.312895 0.944628
v 0.004499 -0.776263 0.745061
v -0.812395 0.291045 -0.464685
v -0.819981 -0.312895 -0.469025
v -0.942665 -0.166917 0.004270
v -0.935895 0.291045 0.004239
v -0.808152 0.291045 0.472025
v -0.815699 -0.312895 0.476434
v -0.851386 0.146274 -0.325278
v -0.855311 -0.168105 -0.327632
v -7.547277 -0.078194 0.004067
v -7.544325 0.056348 0.004054
v -0.848410 0.146274 0.332976
v -0.852314 -0.168106 0.335373
v -7.544654 0.056112 -0.239289
v -7.548109 -0.078440 -0.240274
v -7.579877 6.390633 0.004067
v -7.577829 -6.397196 0.004058
v -7.542165 0.056108 0.247402
v -7.545606 -0.078445 0.248405
v -7.578505 -6.399415 -3.422206
v -7.580996 6.388915 -3.436078
v -7.680795 6.316664 0.004066
v -7.679980 -6.321633 0.004063
v -7.576329 -6.399415 3.430198
v -7.578812 6.388929 3.444327
vt 0.000000 0.000000
vt 0.000000 0.000000
vt 0.000000 0.000000
vt 0.000000 0.000000
vt 0.000000 0.000000
vt 0.000000 0.000000
vt 0.000000 0.000000
vt 0.000000 0.000000
vt 0.000000 0.000000
vt 0.000000 0.000000
vt 0.000000 0.000000
vt 0.000000 0.000000
vt 0.000000 0.000000
vt 0.000000 0.000000
vt 0.000000 0.000000
vt 0.000000 0.000000
vt 0.000000 0.000000
vt 0.000000 0.000000
vt 0.000000 0.000000
vt 0.000000 0.000000
vt 0.000000 0.000000
vt 0.000000 0.000000
vt 0.000000 0.000000
vt 0.000000 0.000000
vt 0.000000 0.000000
vt 0.000000 0.000000
vt 0.000000 0.000000
vt 0.000000 0.000000
vt 0.000000 0.000000
vt 0.000000 0.000000
vt 0.000000 0.000000
vt 0.000000 0.000000
vt 0.000000 0.000000
vt 0.000000 0.000000
vt 0.000000 0.000000
vt 0.000000 0.000000
vt 0.000000 0.000000
vt 0.000000 0.000000
vt 0.000000 0.000000
vt 0.000000 0.000000
vt 0.000000 0.000000
vt 0.000000 0.000000
vt 0.000000 0.000000
vt 0.000000 0.000000
vt 0.000000 0.000000
vt 0.000000 0.000000
vt 0.000000 0.000000
vt 0.000000 0.000000
vt 0.000000 0.000000
vt 0.000000 0.000000
vt 0.000000 0.000000
vt 0.000000 0.000000
vt 0.000000 0.000000
vt 0.000000 0.000000
vt 0.000000 0.000000
vt 0.000000 0.000000
vt 0.000000 0.000000
vt 0.000000 0.000000
vt 0.000000 0.000000
vt 0.000000 0.000000
vt 0.000000 0.000000
vt 0.000000 0.000000
vt 0.000000 0.000000
vt 0.000000 0.000000
vt 0.000000 0.000000
vt 0.000000 0.000000
vt 0.000000 0.000000
vt 0.000000 0.000000
vt 0.000000 0.000000
vt 0.000000 0.000000
vt 0.000000 0.000000
vt 0.000000 0.000000
vt 0.000000 0.000000
vt 0.000000 0.000000
vt 0.000000 0.000000
vt 0.000000 0.000000
vt 0.000000 0.000000
vt 0.000000 0.000000
vt 0.000000 0.000000
vt 0.000000 0.000000
vt 0.000000 0.000000
vt 0.000000 0.000000
vt 0.000000 0.000000
vt 0.000000 0.000000
vt 0.000000 0.000000
vt 0.000000 0.000000
vt 0.000000 0.000000
vt 0.000000 0.000000
vt 0.000000 0.000000
vt 0.000000 0.000000
vt 0.000000 0.000000
vt 0.000000 0.000000
vt 0.000000 0.000000
vt 0.000000 0.000000
vt 0.000000 0.000000
vt 0.000000 0.000000
vt 0.000000 0.000000
vt 0.000000 0.000000
vt 0.000000 0.000000
vt 0.000000 0.000000
vt 0.000000 0.000000
vt 0.000000 0.000000
vt 0.000000 0.000000
vt 0.000000 0.000000
vt 0.000000 0.000000
vt 0.000000 0.000000
vt 0.000000 0.000000
vt 0.000000 0.000000
vt 0.000000 0.000000
vt 0.000000 0.000000
vt 0.000000 0.000000
vt 0.000000 0.000000
vt 0.000000 0.000000
vt 0.000000 0.000000
vt 0.000000 0.000000
vt 0.000000 0.000000
vt 0.000000 0.000000
vt 0.000000 0.000000
vt 0.000000 0.000000
vn 0.6623 0.3523 0.6613
vn 0.0000 -1.0000 0.0000
vn 0.0000 1.0000 -0.0000
vn 0.7076 0.0140 0.7065
vn 0.4708 0.7466 0.4701
vn 0.4177 -0.8073 0.4170
vn 0.6534 -0.3841 0.6524
vn 0.9662 0.0140 0.2576
vn 0.6429 0.7466 0.1714
vn 0.5703 -0.8073 0.1520
vn 0.8921 -0.3841 0.2378
vn 0.9043 0.3523 0.2411
vn 0.9654 0.0140 -0.2605
vn 0.6423 0.7466 -0.1733
vn 0.5698 -0.8073 -0.1538
vn 0.8914 -0.3841 -0.2405
vn 0.9036 0.3523 -0.2438
vn 0.4694 0.7466 -0.4715
vn 0.4164 -0.8073 -0.4183
vn 0.6514 -0.3841 -0.6543
vn 0.6603 0.3523 -0.6633
vn 0.7054 0.0140 -0.7086
vn 0.2365 -0.3841 -0.8925
vn 0.2397 0.3523 -0.9047
vn 0.2561 0.0140 -0.9665
vn 0.1704 0.7466 -0.6431
vn 0.1512 -0.8073 -0.5705
vn -0.2419 -0.3841 -0.8911
vn -0.2452 0.3523 -0.9032
vn -0.2620 0.0140 -0.9650
vn -0.1743 0.7466 -0.6421
vn -0.1546 -0.8073 -0.5696
vn -0.7097 0.0140 -0.7044
vn -0.4722 0.7466 -0.4687
vn -0.4189 -0.8073 -0.4158
vn -0.6553 -0.3841 -0.6504
vn -0.6643 0.3523 -0.6593
vn 1.0000 0.0001 -0.0003
vn -0.6434 0.7466 -0.1694
vn -0.5707 -0.8073 -0.1503
vn -0.8929 -0.3841 -0.2352
vn -0.9050 0.3523 -0.2384
vn 1.0000 0.0001 -0.0002
vn -0.6418 0.7466 0.1753
vn -0.5694 -0.8073 0.1555
vn -0.8907 -0.3841 0.2432
vn -0.9028 0.3523 0.2465
vn -0.4151 -0.8073 0.4195
vn -0.6494 -0.3841 0.6563
vn -0.6583 0.3523 0.6653
vn -0.7033 0.0140 0.7108
vn -0.4680 0.7466 0.4729
vn -0.2338 -0.3841 0.8932
vn -0.2370 0.3523 0.9054
vn -0.2532 0.0140 0.9673
vn -0.1685 0.7466 0.6436
vn -0.1495 -0.8073 0.5710
vn 0.1742 0.7468 0.6418
vn 0.2452 0.3526 0.9031
vn 0.2620 0.0140 0.9650
vn 0.2419 -0.3843 0.8909
vn 0.1545 -0.8075 0.5693
vn -0.9666 0.0140 -0.2558
vn -0.9670 0.0129 -0.2546
vn -0.9670 0.0143 -0.2543
vn -0.9642 0.0140 0.2646
vn -0.9646 0.0128 0.2634
vn -0.9647 0.0143 0.2630
vn -0.0129 0.0076 -0.9999
vn -0.0134 -0.9999 0.0005
vn -0.0135 0.9999 -0.0004
vn -0.0129 0.0078 0.9999
vn -0.0134 -0.9999 -0.0004
vn -0.0135 0.9999 0.0005
vn -0.9999 -0.0005 0.0105
vn -1.0000 -0.0049 0.0005
vn -1.0000 0.0052 0.0003
vn -0.9999 -0.0005 -0.0106
vn -1.0000 -0.0053 0.0007
vn -1.0000 0.0055 0.0010
vn 0.1036 0.0011 0.9946
vn 0.6392 -0.7690 0.0024
vn 0.5407 0.8412 -0.0031
vn 0.1033 0.0011 -0.9946
vn 0.6396 -0.7687 -0.0028
vn 0.5392 0.8422 0.0028
usemtl None
s off
f 7/1/1 8/2/1 16/3/1 15/4/1
f 4/5/2 6/6/2 14/7/2 12/8/2
f 3/9/3 11/10/3 13/11/3 93/12/3
f 8/2/4 9/13/4 17/14/4 16/3/4
f 3/9/5 7/1/5 15/4/5 11/10/5
f 10/15/6 4/5/6 12/8/6 18/16/6
f 9/13/7 10/15/7 18/16/7 17/14/7
f 13/11/3 11/10/3 19/17/3 21/18/3
f 16/3/8 17/14/8 25/19/8 24/20/8
f 11/10/9 15/4/9 23/21/9 19/17/9
f 18/16/10 12/8/10 20/22/10 26/23/10
f 17/14/11 18/16/11 26/23/11 25/19/11
f 15/4/12 16/3/12 24/20/12 23/21/12
f 12/8/2 14/7/2 22/24/2 20/22/2
f 24/20/13 25/19/13 33/25/13 32/26/13
f 19/17/14 23/21/14 31/27/14 27/28/14
f 26/23/15 20/22/15 28/29/15 34/30/15
f 25/19/16 26/23/16 34/30/16 33/25/16
f 23/21/17 24/20/17 32/26/17 31/27/17
f 20/22/2 22/24/2 30/31/2 28/29/2
f 21/18/3 19/17/3 27/28/3 29/32/3
f 27/28/18 31/27/18 39/33/18 35/34/18
f 34/30/19 28/29/19 36/35/19 42/36/19
f 33/25/20 34/30/20 42/36/20 41/37/20
f 31/27/21 32/26/21 40/38/21 39/33/21
f 28/29/2 30/31/2 38/39/2 36/35/2
f 29/32/3 27/28/3 35/34/3 37/40/3
f 32/26/22 33/25/22 41/37/22 40/38/22
f 41/37/23 42/36/23 50/41/23 49/42/23
f 39/33/24 40/38/24 48/43/24 47/44/24
f 36/35/2 38/39/2 46/45/2 44/46/2
f 37/40/3 35/34/3 43/47/3 45/48/3
f 40/38/25 41/37/25 49/42/25 48/43/25
f 35/34/26 39/33/26 47/44/26 43/47/26
f 42/36/27 36/35/27 44/46/27 50/41/27
f 49/42/28 50/41/28 58/49/28 57/50/28
f 47/44/29 48/43/29 56/51/29 55/52/29
f 44/46/2 46/45/2 54/53/2 52/54/2
f 45/48/3 43/47/3 51/55/3 53/56/3
f 48/43/30 49/42/30 57/50/30 56/51/30
f 43/47/31 47/44/31 55/52/31 51/55/31
f 50/41/32 44/46/32 52/54/32 58/49/32
f 52/54/2 54/53/2 62/57/2 60/58/2
f 53/56/3 51/55/3 59/59/3 61/60/3
f 56/51/33 57/50/33 100/61/33 99/62/33
f 51/55/34 55/52/34 63/63/34 59/59/34
f 58/49/35 52/54/35 60/58/35 66/64/35
f 57/50/36 58/49/36 66/64/36 100/61/36
f 55/52/37 56/51/37 99/62/37 63/63/37
f 64/65/38 65/66/38 119/67/38 120/68/38
f 59/59/39 63/63/39 71/69/39 67/70/39
f 66/64/40 60/58/40 68/71/40 74/72/40
f 100/61/41 66/64/41 74/72/41 73/73/41
f 63/63/42 99/62/42 102/74/42 71/69/42
f 60/58/2 62/57/2 70/75/2 68/71/2
f 61/60/3 59/59/3 67/70/3 69/76/3
f 120/68/43 119/67/43 81/77/43 80/78/43
f 67/70/44 71/69/44 79/79/44 75/80/44
f 74/72/45 68/71/45 76/81/45 82/82/45
f 73/73/46 74/72/46 82/82/46 104/83/46
f 71/69/47 102/74/47 103/84/47 79/79/47
f 68/71/2 70/75/2 78/85/2 76/81/2
f 69/76/3 67/70/3 75/80/3 77/86/3
f 82/82/48 76/81/48 84/87/48 90/88/48
f 104/83/49 82/82/49 90/88/49 89/89/49
f 79/79/50 103/84/50 88/90/50 87/91/50
f 76/81/2 78/85/2 86/92/2 84/87/2
f 77/86/3 75/80/3 83/93/3 85/94/3
f 103/84/51 104/83/51 89/89/51 88/90/51
f 75/80/52 79/79/52 87/91/52 83/93/52
f 89/89/53 90/88/53 98/95/53 97/96/53
f 87/91/54 88/90/54 96/97/54 95/98/54
f 84/87/2 86/92/2 94/99/2 92/100/2
f 85/94/3 83/93/3 91/101/3 93/12/3
f 88/90/55 89/89/55 97/96/55 96/97/55
f 83/93/56 87/91/56 95/98/56 91/101/56
f 90/88/57 84/87/57 92/100/57 98/95/57
f 7/1/58 3/9/58 91/101/58 95/98/58
f 93/12/3 91/101/3 3/9/3
f 8/2/59 7/1/59 95/98/59 96/97/59
f 9/13/60 8/2/60 96/97/60 97/96/60
f 10/15/61 9/13/61 97/96/61 98/95/61
f 4/5/62 10/15/62 98/95/62 92/100/62
f 4/5/2 92/100/2 6/6/2 94/99/2
f 106/102/63 105/103/63 99/62/63 100/61/63
f 101/104/64 106/102/64 100/61/64 73/73/64
f 105/103/65 72/105/65 102/74/65 99/62/65
f 109/106/66 110/107/66 104/83/66 103/84/66
f 110/107/67 101/104/67 73/73/67 104/83/67
f 72/105/68 109/106/68 103/84/68 102/74/68
f 112/108/69 111/109/69 105/103/69 106/102/69
f 107/110/70 112/108/70 106/102/70 101/104/70
f 111/109/71 108/111/71 72/105/71 105/103/71
f 115/112/72 116/113/72 110/107/72 109/106/72
f 116/113/73 107/110/73 101/104/73 110/107/73
f 108/111/74 115/112/74 109/106/74 72/105/74
f 118/114/75 117/115/75 111/109/75 112/108/75
f 113/116/76 118/114/76 112/108/76 107/110/76
f 117/115/77 114/117/77 108/111/77 111/109/77
f 121/118/78 122/119/78 116/113/78 115/112/78
f 122/119/79 113/116/79 107/110/79 116/113/79
f 114/117/80 121/118/80 115/112/80 108/111/80
f 65/66/81 64/65/81 117/115/81 118/114/81
f 119/67/82 65/66/82 118/114/82 113/116/82
f 64/65/83 120/68/83 114/117/83 117/115/83
f 80/78/84 81/77/84 122/119/84 121/118/84
f 81/77/85 119/67/85 113/116/85 122/119/85
f 120/68/86 80/78/86 121/118/86 114/117/86
l 5 1
l 2 6
l 13 5
