# Blender v2.91.0 OBJ File: ''
# www.blender.org
mtllib quagmire.mtl
o Cube
v 0.658161 3.220350 -0.658161
v 1.000000 -0.061952 -1.000000
v 0.658161 3.220350 0.658161
v 1.000000 -0.061952 1.000000
v -0.658161 3.220350 -0.658161
v -1.000000 -0.061952 -1.000000
v -0.658161 3.220350 0.658161
v -1.000000 -0.061952 1.000000
v 0.000000 -0.061952 -1.000000
v 0.000000 3.220350 0.658161
v 0.000000 -0.061952 1.000000
v 0.000000 3.220350 -0.658161
v 1.000000 1.811595 -1.000000
v -1.000000 1.811594 1.000000
v 1.000000 1.811595 1.000000
v -1.000000 1.811595 -1.000000
v 0.000000 0.874573 -1.000000
v 0.000000 0.874573 1.000000
v -1.000000 2.631356 1.000000
v 1.000000 2.631356 -1.000000
v 1.000000 2.631356 1.000000
v -1.000000 2.631356 -1.000000
v 0.000000 1.694333 -1.000000
v 0.000000 1.694333 1.000000
v 0.000000 3.220350 1.000000
v -1.000000 3.220350 1.000000
v 1.000000 3.220350 -1.000000
v 1.000000 3.220350 1.000000
v -1.000000 3.220350 -1.000000
v 0.000000 3.220350 -1.000000
v 0.000000 3.452732 -0.658161
v 0.000000 3.452732 0.658161
v -0.658161 3.452732 0.658161
v 0.658161 3.452732 -0.658161
v 0.658161 3.452732 0.658161
v -0.658161 3.452732 -0.658161
v 0.000000 3.452732 -0.890003
v 0.000000 3.452732 0.890003
v -0.890003 3.452732 0.890003
v 0.890003 3.452732 -0.890003
v 0.890003 3.452732 0.890003
v -0.890003 3.452732 -0.890003
v 0.000000 4.732426 -0.890003
v 0.000000 4.732426 0.890003
v -0.890003 4.732426 0.890003
v 0.890003 4.732426 -0.890003
v 0.890003 4.732426 0.890003
v -0.890003 4.732426 -0.890003
v -0.890003 3.825976 -0.890003
v 0.000000 3.825976 -0.890003
v 0.890003 3.825976 -0.890003
v 0.890003 3.825976 0.890003
v 0.000000 3.825976 0.890003
v -0.890003 3.825976 0.890003
v 0.100000 3.552732 1.291178
v -0.790003 3.552732 1.291178
v 0.790003 3.552732 1.291178
v 0.790003 3.725976 1.291178
v 0.100000 3.725976 1.291178
v -0.790003 3.725976 1.291178
v 0.890003 3.452732 1.210139
v -0.100000 3.552732 1.291178
v 0.890003 3.825976 1.210139
v -0.100000 3.725976 1.291178
v 0.000000 3.452732 1.210139
v -0.890003 3.452732 1.210139
v 0.000000 3.825976 1.210139
v -0.890003 3.825976 1.210139
v 3.730099 2.631356 -1.000000
v 3.730099 1.811595 -1.000000
v 3.730099 2.631356 1.000000
v 3.730099 1.811595 1.000000
v -3.730099 2.631356 -1.000000
v -3.730099 1.811595 -1.000000
v -3.730099 1.811594 1.000000
v -3.730099 2.631356 1.000000
v -1.500000 -3.720785 -1.000000
v -1.500000 -3.720785 1.000000
v -0.500000 -3.720785 -1.000000
v -0.500000 -3.720785 1.000000
v 0.500000 -3.720785 1.000000
v 1.500000 -3.720785 1.000000
v 1.500000 -3.720785 -1.000000
v 0.500000 -3.720785 -1.000000
v 4.533642 2.631356 -1.000000
v 4.533642 1.811595 -1.000000
v 4.533642 2.631356 1.000000
v 4.533642 1.811595 1.000000
v -4.533642 2.631356 -1.000000
v -4.533642 1.811595 -1.000000
v -4.533642 1.811594 1.000000
v -4.533642 2.631356 1.000000
vt 0.562229 0.875000
vt 0.625000 0.875000
vt 0.625000 1.000000
vt 0.562229 1.000000
vt 0.562229 0.000000
vt 0.625000 0.000000
vt 0.625000 0.250000
vt 0.562229 0.250000
vt 0.562229 0.500000
vt 0.625000 0.500000
vt 0.625000 0.750000
vt 0.562229 0.750000
vt 0.562229 0.375000
vt 0.625000 0.375000
vt 0.375000 0.750000
vt 0.528509 0.750000
vt 0.528509 0.875000
vt 0.375000 0.875000
vt 0.375000 0.250000
vt 0.528509 0.250000
vt 0.528509 0.375000
vt 0.375000 0.375000
vt 0.528509 0.500000
vt 0.375000 0.500000
vt 0.375000 0.000000
vt 0.528509 0.000000
vt 0.528509 1.000000
vt 0.375000 1.000000
vt 0.562229 0.500000
vt 0.528509 0.500000
vt 0.562229 0.250000
vt 0.562229 0.000000
vt 0.750000 0.707270
vt 0.832270 0.707270
vt 0.875000 0.750000
vt 0.750000 0.750000
vt 0.667730 0.542730
vt 0.667730 0.707270
vt 0.832270 0.542730
vt 0.875000 0.500000
vt 0.750000 0.542730
vt 0.750000 0.500000
vt 0.528509 0.750000
vt 0.528509 0.250000
vt 0.562229 1.000000
vt 0.528509 1.000000
vt 0.562229 0.750000
vt 0.528509 0.000000
vt 0.667730 0.707270
vt 0.750000 0.707270
vt 0.667730 0.542730
vt 0.832270 0.542730
vt 0.832270 0.707270
vt 0.832270 0.707270
vt 0.832270 0.542730
vt 0.667730 0.707270
vt 0.750000 0.707270
vt 0.750000 0.542730
vt 0.667730 0.542730
vt 0.750000 0.542730
vt 0.750000 0.542730
vt 0.667730 0.542730
vt 0.832270 0.542730
vt 0.832270 0.542730
vt 0.750000 0.542730
vt 0.667730 0.542730
vt 0.832270 0.707270
vt 0.750000 0.707270
vt 0.667730 0.707270
vt 0.667730 0.707270
vt 0.750000 0.707270
vt 0.832270 0.707270
vt 0.667730 0.707270
vt 0.667730 0.707270
vt 0.750000 0.707270
vt 0.823026 0.707270
vt 0.759244 0.707270
vt 0.759244 0.707270
vt 0.823026 0.707270
vt 0.740756 0.707270
vt 0.676974 0.707270
vt 0.676974 0.707270
vt 0.740756 0.707270
vt 0.832270 0.707270
vt 0.832270 0.707270
vt 0.750000 0.707270
vt 0.562229 1.000000
vt 0.528509 1.000000
vt 0.562229 0.250000
vt 0.562229 0.000000
vt 0.528509 0.500000
vt 0.562229 0.500000
vt 0.562229 0.750000
vt 0.528509 0.750000
vt 0.528509 0.000000
vt 0.528509 0.250000
vt 0.375000 0.500000
vt 0.375000 0.375000
vt 0.375000 1.000000
vt 0.375000 0.875000
vt 0.125000 0.500000
vt 0.250000 0.500000
vt 0.250000 0.750000
vt 0.125000 0.750000
vt 0.375000 0.375000
vt 0.375000 0.250000
vt 0.250000 0.500000
vt 0.250000 0.750000
vt 0.375000 0.000000
vt 0.250000 0.500000
vt 0.375000 0.750000
vt 0.250000 0.750000
vt 0.375000 0.875000
vn 0.0000 0.0000 1.0000
vn -1.0000 0.0000 0.0000
vn 1.0000 0.0000 0.0000
vn 0.0000 0.0000 -1.0000
vn 0.0000 1.0000 0.0000
vn 0.0000 -1.0000 0.0000
vn 0.0000 -0.6296 0.7769
vn 0.6296 0.0000 0.7769
vn -0.6296 0.0000 0.7769
vn 0.0000 0.6296 0.7769
vn 0.9908 -0.1354 0.0000
vn -0.9908 0.1354 0.0000
vn -0.9908 -0.1354 0.0000
vn 0.9908 0.1354 0.0000
usemtl Red
s off
f 24/1/1 25/2/1 26/3/1 19/4/1
f 19/5/2 26/6/2 29/7/2 22/8/2
f 20/9/3 27/10/3 28/11/3 21/12/3
f 23/13/4 30/14/4 27/10/4 20/9/4
f 22/8/4 29/7/4 30/14/4 23/13/4
f 21/12/1 28/11/1 25/2/1 24/1/1
f 4/15/1 15/16/1 18/17/1 11/18/1
f 6/19/4 16/20/4 17/21/4 9/22/4
f 9/22/4 17/21/4 13/23/4 2/24/4
f 2/24/3 13/23/3 15/16/3 4/15/3
f 8/25/2 14/26/2 16/20/2 6/19/2
f 11/18/1 18/17/1 14/27/1 8/28/1
f 15/16/1 21/12/1 24/1/1 18/17/1
f 16/20/4 22/8/4 23/13/4 17/21/4
f 17/21/4 23/13/4 20/9/4 13/23/4
f 13/23/4 20/9/4 69/29/4 70/30/4
f 19/5/5 22/8/5 73/31/5 76/32/5
f 18/17/1 24/1/1 19/4/1 14/27/1
f 10/33/5 7/34/5 26/35/5 25/36/5
f 1/37/5 3/38/5 28/11/5 27/10/5
f 7/34/5 5/39/5 29/40/5 26/35/5
f 12/41/5 1/37/5 27/10/5 30/42/5
f 3/38/5 10/33/5 25/36/5 28/11/5
f 5/39/5 12/41/5 30/42/5 29/40/5
f 15/16/6 13/23/6 70/30/6 72/43/6
f 22/8/4 16/20/4 74/44/4 73/31/4
f 14/27/1 19/4/1 76/45/1 75/46/1
f 20/9/5 21/12/5 71/47/5 69/29/5
f 16/20/6 14/26/6 75/48/6 74/44/6
f 21/12/1 15/16/1 72/43/1 71/47/1
usemtl skin
f 10/33/1 3/38/1 35/49/1 32/50/1
f 3/38/3 1/37/3 34/51/3 35/49/3
f 36/52/6 33/53/6 39/54/6 42/55/6
f 32/50/6 35/49/6 41/56/6 38/57/6
f 5/39/2 7/34/2 33/53/2 36/52/2
f 7/34/1 10/33/1 32/50/1 33/53/1
f 12/41/4 5/39/4 36/52/4 31/58/4
f 1/37/4 12/41/4 31/58/4 34/51/4
f 51/59/4 50/60/4 43/61/4 46/62/4
f 50/60/4 49/63/4 48/64/4 43/61/4
f 33/53/6 32/50/6 38/57/6 39/54/6
f 31/58/6 36/52/6 42/55/6 37/65/6
f 34/51/6 31/58/6 37/65/6 40/66/6
f 35/49/6 34/51/6 40/66/6 41/56/6
f 43/61/5 48/64/5 45/67/5 44/68/5
f 46/62/5 43/61/5 44/68/5 47/69/5
f 52/70/3 51/59/3 46/62/3 47/69/3
f 53/71/1 52/70/1 47/69/1 44/68/1
f 49/63/2 54/72/2 45/67/2 48/64/2
f 54/72/1 53/71/1 44/68/1 45/67/1
f 41/56/3 52/70/3 63/73/3 61/74/3
f 42/55/2 39/54/2 54/72/2 49/63/2
f 52/70/5 53/71/5 67/75/5 63/73/5
f 41/56/3 40/66/3 51/59/3 52/70/3
f 37/65/4 42/55/4 49/63/4 50/60/4
f 40/66/4 37/65/4 50/60/4 51/59/4
f 56/76/1 62/77/1 64/78/1 60/79/1
f 55/80/1 57/81/1 58/82/1 59/83/1
f 53/71/5 54/72/5 68/84/5 67/75/5
f 54/72/2 39/54/2 66/85/2 68/84/2
f 38/57/6 41/56/6 61/74/6 65/86/6
f 39/54/6 38/57/6 65/86/6 66/85/6
f 57/81/7 55/80/7 65/86/7 61/74/7
f 58/82/8 57/81/8 61/74/8 63/73/8
f 55/80/9 59/83/9 67/75/9 65/86/9
f 59/83/10 58/82/10 63/73/10 67/75/10
f 62/77/7 56/76/7 66/85/7 65/86/7
f 64/78/8 62/77/8 65/86/8 67/75/8
f 56/76/9 60/79/9 68/84/9 66/85/9
f 60/79/10 64/78/10 67/75/10 68/84/10
f 75/46/1 76/45/1 92/87/1 91/88/1
f 76/32/5 73/31/5 89/89/5 92/90/5
f 86/91/3 85/92/3 87/93/3 88/94/3
f 91/95/2 92/90/2 89/89/2 90/96/2
f 72/43/6 70/30/6 86/91/6 88/94/6
f 71/47/1 72/43/1 88/94/1 87/93/1
f 69/29/5 71/47/5 87/93/5 85/92/5
f 74/44/6 75/48/6 91/95/6 90/96/6
f 73/31/4 74/44/4 90/96/4 89/89/4
f 70/30/4 69/29/4 85/92/4 86/91/4
usemtl pants
f 9/22/4 2/24/4 83/97/4 84/98/4
f 11/18/1 8/28/1 78/99/1 80/100/1
f 77/101/6 79/102/6 80/103/6 78/104/6
f 6/19/4 9/22/4 79/105/4 77/106/4
f 9/107/11 11/108/11 80/103/11 79/102/11
f 8/25/12 6/19/12 77/106/12 78/109/12
f 84/110/6 83/97/6 82/111/6 81/112/6
f 4/15/1 11/18/1 81/113/1 82/111/1
f 11/108/13 9/107/13 84/110/13 81/112/13
f 2/24/14 4/15/14 82/111/14 83/97/14
