# Blender v2.90.1 OBJ File: ''
# www.blender.org
mtllib shield1.mtl
o Sphere.001
v 0.000000 -0.000000 -1.000000
v -0.000000 1.000000 -0.000000
v 0.270598 0.923880 -0.270598
v 0.500000 0.707107 -0.500000
v 0.653281 0.382683 -0.653282
v 0.707107 -0.000000 -0.707107
v 0.653281 -0.382684 -0.653282
v 0.500000 -0.707107 -0.500000
v 0.270598 -0.923880 -0.270598
v 0.382683 0.923880 -0.000000
v 0.707107 0.707107 -0.000000
v 0.923879 0.382683 -0.000000
v 1.000000 -0.000000 -0.000000
v 0.923879 -0.382684 -0.000000
v 0.707107 -0.707107 -0.000000
v 0.382683 -0.923880 -0.000000
v 0.000000 -1.000000 -0.000000
v 0.270598 0.923880 0.270598
v 0.307468 0.405973 2.348063
v 0.547047 0.367471 0.705389
v 0.597516 -0.000000 0.754247
v 0.547047 -0.367471 0.705389
v 0.307468 -0.405973 2.348063
v 0.270598 -0.923880 0.270598
v 0.000000 0.923880 0.382683
v 0.000000 0.601603 0.767278
v 0.000000 0.382683 2.348063
v 0.000000 -0.000000 2.348063
v 0.000000 -0.382684 2.348063
v 0.000000 -0.707107 0.707106
v 0.000000 -0.923880 0.382683
v -0.270598 0.923880 0.270598
v -0.307468 0.405973 2.348063
v -0.547046 0.367471 0.705389
v -0.597516 -0.000000 0.754247
v -0.547046 -0.367471 0.705389
v -0.307468 -0.405973 2.348063
v -0.270598 -0.923880 0.270598
v -0.382683 0.923880 -0.000000
v -0.707107 0.707107 -0.000000
v -0.923879 0.382683 -0.000000
v -1.000000 -0.000000 -0.000000
v -0.923879 -0.382684 -0.000000
v -0.707107 -0.707107 -0.000000
v -0.382683 -0.923880 -0.000000
v -0.270598 0.923880 -0.270598
v -0.500000 0.707107 -0.500000
v -0.653281 0.382683 -0.653281
v -0.707107 -0.000000 -0.707107
v -0.653281 -0.382684 -0.653281
v -0.500000 -0.707107 -0.500000
v -0.270598 -0.923880 -0.270598
v -0.000000 0.923880 -0.382683
v -0.000000 0.707107 -0.707107
v -0.000000 0.382683 -0.923879
v -0.000000 -0.382684 -0.923879
v -0.000000 -0.707107 -0.707107
v -0.000000 -0.923880 -0.382683
v 0.500000 0.707107 0.500000
v 0.653281 0.382683 0.653281
v 0.707107 -0.000000 0.707106
v 0.653281 -0.382684 0.653281
v 0.500000 -0.707107 0.500000
v 0.000000 -0.601603 0.767278
v 0.000000 0.707107 0.707106
v -0.500000 0.707107 0.500000
v -0.653281 0.382683 0.653281
v -0.707107 -0.000000 0.707106
v -0.653281 -0.382684 0.653281
v -0.500000 -0.707107 0.500000
v 0.435341 0.605866 0.594429
v 0.431041 0.350717 0.761705
v 0.477794 -0.000000 0.804998
v 0.431041 -0.350717 0.761705
v 0.435341 -0.605866 0.594429
v 0.000000 -0.487294 0.834244
v 0.000000 0.487294 0.834244
v -0.435341 0.605866 0.594429
v -0.431040 0.350717 0.761705
v -0.477794 -0.000000 0.804998
v -0.431040 -0.350717 0.761705
v -0.435341 -0.605866 0.594429
v 0.365157 0.496033 0.698074
v 0.334559 0.336684 2.348063
v 0.378125 -0.000000 2.348063
v 0.334559 -0.336684 2.348063
v 0.365157 -0.496033 0.698074
v 0.000000 -0.393603 2.348063
v 0.000000 0.393603 2.348063
v -0.365157 0.496033 0.698074
v -0.334559 0.336684 2.348063
v -0.378125 -0.000000 2.348063
v -0.334559 -0.336684 2.348063
v -0.365157 -0.496033 0.698074
vt 0.687500 0.000000
vt 0.750000 0.125000
vt 0.625000 0.125000
vt 0.750000 0.250000
vt 0.750000 0.375000
vt 0.625000 0.375000
vt 0.625000 0.250000
vt 0.750000 0.500000
vt 0.750000 0.625000
vt 0.625000 0.625000
vt 0.625000 0.500000
vt 0.750000 0.750000
vt 0.750000 0.875000
vt 0.625000 0.875000
vt 0.625000 0.750000
vt 0.687500 1.000000
vt 0.500000 0.250000
vt 0.500000 0.125000
vt 0.500000 0.500000
vt 0.500000 0.375000
vt 0.500000 0.750000
vt 0.500000 0.625000
vt 0.562500 1.000000
vt 0.500000 0.875000
vt 0.562500 0.000000
vt 0.375000 0.500000
vt 0.375000 0.375000
vt 0.375000 0.750000
vt 0.375000 0.625000
vt 0.437500 1.000000
vt 0.375000 0.875000
vt 0.437500 0.000000
vt 0.375000 0.125000
vt 0.375000 0.250000
vt 0.312500 0.000000
vt 0.250000 0.125000
vt 0.309160 0.366821
vt 0.312361 0.391393
vt 0.250000 0.375000
vt 0.248832 0.366692
vt 0.316658 0.500157
vt 0.312458 0.609287
vt 0.250000 0.625000
vt 0.250000 0.500000
vt 0.250000 0.875000
vt 0.250000 0.750000
vt 0.250000 0.250000
vt 0.309285 0.633478
vt 0.248830 0.633313
vt 0.312500 1.000000
vt 0.187542 0.609287
vt 0.183342 0.500157
vt 0.125000 0.875000
vt 0.125000 0.750000
vt 0.125000 0.250000
vt 0.125000 0.125000
vt 0.187763 0.391393
vt 0.190522 0.633478
vt 0.187500 1.000000
vt 0.187500 0.000000
vt 0.190660 0.366821
vt 0.000000 0.250000
vt 0.000000 0.125000
vt 0.125000 0.375000
vt 0.125000 0.500000
vt 0.000000 0.500000
vt 0.000000 0.375000
vt 0.125000 0.625000
vt 0.000000 0.750000
vt 0.000000 0.625000
vt 0.062500 1.000000
vt 0.000000 0.875000
vt 0.062500 0.000000
vt 1.000000 0.625000
vt 1.000000 0.750000
vt 0.875000 0.750000
vt 0.875000 0.625000
vt 1.000000 0.875000
vt 0.937500 1.000000
vt 0.875000 0.875000
vt 0.937500 0.000000
vt 1.000000 0.125000
vt 0.875000 0.125000
vt 1.000000 0.250000
vt 1.000000 0.375000
vt 0.875000 0.375000
vt 0.875000 0.250000
vt 1.000000 0.500000
vt 0.875000 0.500000
vt 0.812500 0.000000
vt 0.812500 1.000000
vt 0.349837 0.710992
vt 0.354029 0.619759
vt 0.355516 0.500094
vt 0.353850 0.380533
vt 0.349837 0.289008
vt 0.249427 0.289008
vt 0.249427 0.710992
vt 0.145971 0.619759
vt 0.150163 0.710992
vt 0.144484 0.500094
vt 0.146150 0.380533
vt 0.150163 0.289008
vt 0.326116 0.668575
vt 0.331262 0.614036
vt 0.334281 0.500154
vt 0.331044 0.386512
vt 0.326055 0.331525
vt 0.248967 0.331508
vt 0.248966 0.668493
vt 0.168738 0.614036
vt 0.173742 0.668575
vt 0.165719 0.500154
vt 0.168984 0.386512
vt 0.173804 0.331525
vn 0.0805 -0.9776 -0.1945
vn 0.3256 -0.5253 -0.7862
vn 0.3764 0.1807 -0.9087
vn 0.2243 0.8103 -0.5414
vn 0.2243 -0.8103 -0.5414
vn 0.3764 -0.1807 -0.9087
vn 0.3256 0.5253 -0.7862
vn 0.0805 0.9776 -0.1945
vn 0.5414 -0.8103 -0.2243
vn 0.9087 -0.1807 -0.3764
vn 0.7862 0.5253 -0.3256
vn 0.1945 0.9776 -0.0805
vn 0.1945 -0.9776 -0.0805
vn 0.7862 -0.5253 -0.3256
vn 0.9087 0.1807 -0.3764
vn 0.5414 0.8103 -0.2243
vn 0.9087 -0.1807 0.3764
vn 0.7862 0.5253 0.3256
vn 0.1945 0.9776 0.0805
vn 0.1945 -0.9776 0.0805
vn 0.7862 -0.5253 0.3256
vn 0.9087 0.1807 0.3764
vn 0.5414 0.8103 0.2243
vn 0.5414 -0.8103 0.2243
vn 0.0805 -0.9776 0.1945
vn 0.0000 0.0000 1.0000
vn 0.2243 0.8103 0.5414
vn 0.2243 -0.8103 0.5414
vn 0.0805 0.9776 0.1945
vn -0.2243 0.8103 0.5414
vn -0.2243 -0.8103 0.5414
vn -0.0805 0.9776 0.1945
vn -0.0805 -0.9776 0.1945
vn -0.5414 -0.8103 0.2243
vn -0.9087 -0.1807 0.3764
vn -0.7862 0.5253 0.3256
vn -0.1945 0.9776 0.0805
vn -0.1945 -0.9776 0.0805
vn -0.7862 -0.5253 0.3256
vn -0.9087 0.1807 0.3764
vn -0.5414 0.8103 0.2243
vn -0.7862 0.5253 -0.3256
vn -0.1945 0.9776 -0.0805
vn -0.1945 -0.9776 -0.0805
vn -0.7862 -0.5253 -0.3256
vn -0.9087 0.1807 -0.3764
vn -0.5414 0.8103 -0.2243
vn -0.5414 -0.8103 -0.2243
vn -0.9087 -0.1807 -0.3764
vn -0.0805 -0.9776 -0.1945
vn -0.3256 -0.5253 -0.7862
vn -0.3764 0.1807 -0.9087
vn -0.2243 0.8103 -0.5414
vn -0.2243 -0.8103 -0.5414
vn -0.3764 -0.1807 -0.9087
vn -0.3256 0.5253 -0.7862
vn -0.0805 0.9776 -0.1945
vn 0.3215 0.5222 0.7899
vn 0.4006 0.1787 0.8986
vn 0.4006 -0.1787 0.8986
vn 0.3215 -0.5222 0.7899
vn 0.3241 -0.4994 0.8034
vn 0.3241 0.4994 0.8034
vn -0.3215 0.5222 0.7899
vn -0.4006 0.1787 0.8986
vn -0.4006 -0.1787 0.8986
vn -0.3215 -0.5222 0.7899
vn -0.3241 0.4994 0.8034
vn -0.3241 -0.4994 0.8034
vn 0.3311 0.5134 0.7917
vn 0.3975 0.1695 0.9018
vn 0.3975 -0.1695 0.9018
vn 0.3311 -0.5134 0.7917
vn 0.3012 -0.5161 0.8019
vn 0.3012 0.5161 0.8019
vn -0.3311 0.5134 0.7917
vn -0.3975 0.1695 0.9018
vn -0.3975 -0.1695 0.9018
vn -0.3311 -0.5134 0.7917
vn -0.3012 0.5161 0.8019
vn -0.3012 -0.5161 0.8019
vn 0.9099 0.4110 0.0566
vn 0.9890 0.1339 0.0626
vn 0.9890 -0.1339 0.0626
vn 0.9099 -0.4110 0.0566
vn -0.0197 -0.9981 0.0576
vn -0.0197 0.9981 0.0576
vn -0.9099 0.4110 0.0566
vn -0.9890 0.1339 0.0626
vn -0.9890 -0.1339 0.0626
vn -0.9099 -0.4110 0.0566
vn 0.0197 0.9981 0.0576
vn 0.0197 -0.9981 0.0576
usemtl None
s off
f 17/1/1 58/2/1 9/3/1
f 57/4/2 56/5/2 7/6/2 8/7/2
f 1/8/3 55/9/3 5/10/3 6/11/3
f 54/12/4 53/13/4 3/14/4 4/15/4
f 58/2/5 57/4/5 8/7/5 9/3/5
f 56/5/6 1/8/6 6/11/6 7/6/6
f 55/9/7 54/12/7 4/15/7 5/10/7
f 53/13/8 2/16/8 3/14/8
f 9/3/9 8/7/9 15/17/9 16/18/9
f 7/6/10 6/11/10 13/19/10 14/20/10
f 5/10/11 4/15/11 11/21/11 12/22/11
f 3/14/12 2/23/12 10/24/12
f 17/25/13 9/3/13 16/18/13
f 8/7/14 7/6/14 14/20/14 15/17/14
f 6/11/15 5/10/15 12/22/15 13/19/15
f 4/15/16 3/14/16 10/24/16 11/21/16
f 14/20/17 13/19/17 61/26/17 62/27/17
f 12/22/18 11/21/18 59/28/18 60/29/18
f 10/24/19 2/30/19 18/31/19
f 17/32/20 16/18/20 24/33/20
f 15/17/21 14/20/21 62/27/21 63/34/21
f 13/19/22 12/22/22 60/29/22 61/26/22
f 11/21/23 10/24/23 18/31/23 59/28/23
f 16/18/24 15/17/24 63/34/24 24/33/24
f 17/35/25 24/33/25 31/36/25
f 23/37/26 86/38/26 29/39/26 88/40/26
f 85/41/26 84/42/26 27/43/26 28/44/26
f 59/28/27 18/31/27 25/45/27 65/46/27
f 24/33/28 63/34/28 30/47/28 31/36/28
f 86/38/26 85/41/26 28/44/26 29/39/26
f 84/42/26 19/48/26 89/49/26 27/43/26
f 18/31/29 2/50/29 25/45/29
f 28/44/26 27/43/26 91/51/26 92/52/26
f 65/46/30 25/45/30 32/53/30 66/54/30
f 31/36/31 30/47/31 70/55/31 38/56/31
f 29/39/26 28/44/26 92/52/26 93/57/26
f 27/43/26 89/49/26 33/58/26 91/51/26
f 25/45/32 2/59/32 32/53/32
f 17/60/33 31/36/33 38/56/33
f 88/40/26 29/39/26 93/57/26 37/61/26
f 38/56/34 70/55/34 44/62/34 45/63/34
f 69/64/35 68/65/35 42/66/35 43/67/35
f 67/68/36 66/54/36 40/69/36 41/70/36
f 32/53/37 2/71/37 39/72/37
f 17/73/38 38/56/38 45/63/38
f 70/55/39 69/64/39 43/67/39 44/62/39
f 68/65/40 67/68/40 41/70/40 42/66/40
f 66/54/41 32/53/41 39/72/41 40/69/41
f 41/74/42 40/75/42 47/76/42 48/77/42
f 39/78/43 2/79/43 46/80/43
f 17/81/44 45/82/44 52/83/44
f 44/84/45 43/85/45 50/86/45 51/87/45
f 42/88/46 41/74/46 48/77/46 49/89/46
f 40/75/47 39/78/47 46/80/47 47/76/47
f 45/82/48 44/84/48 51/87/48 52/83/48
f 43/85/49 42/88/49 49/89/49 50/86/49
f 17/90/50 52/83/50 58/2/50
f 51/87/51 50/86/51 56/5/51 57/4/51
f 49/89/52 48/77/52 55/9/52 1/8/52
f 47/76/53 46/80/53 53/13/53 54/12/53
f 52/83/54 51/87/54 57/4/54 58/2/54
f 50/86/55 49/89/55 1/8/55 56/5/55
f 48/77/56 47/76/56 54/12/56 55/9/56
f 46/80/57 2/91/57 53/13/57
f 71/92/58 20/93/58 60/29/58 59/28/58
f 20/93/59 21/94/59 61/26/59 60/29/59
f 21/94/60 22/95/60 62/27/60 61/26/60
f 22/95/61 75/96/61 63/34/61 62/27/61
f 75/96/62 64/97/62 30/47/62 63/34/62
f 26/98/63 71/92/63 59/28/63 65/46/63
f 34/99/64 78/100/64 66/54/64 67/68/64
f 35/101/65 34/99/65 67/68/65 68/65/65
f 36/102/66 35/101/66 68/65/66 69/64/66
f 82/103/67 36/102/67 69/64/67 70/55/67
f 78/100/68 26/98/68 65/46/68 66/54/68
f 64/97/69 82/103/69 70/55/69 30/47/69
f 83/104/70 72/105/70 20/93/70 71/92/70
f 72/105/71 73/106/71 21/94/71 20/93/71
f 73/106/72 74/107/72 22/95/72 21/94/72
f 74/107/73 87/108/73 75/96/73 22/95/73
f 87/108/74 76/109/74 64/97/74 75/96/74
f 77/110/75 83/104/75 71/92/75 26/98/75
f 79/111/76 90/112/76 78/100/76 34/99/76
f 80/113/77 79/111/77 34/99/77 35/101/77
f 81/114/78 80/113/78 35/101/78 36/102/78
f 94/115/79 81/114/79 36/102/79 82/103/79
f 90/112/80 77/110/80 26/98/80 78/100/80
f 76/109/81 94/115/81 82/103/81 64/97/81
f 19/48/82 84/42/82 72/105/82 83/104/82
f 84/42/83 85/41/83 73/106/83 72/105/83
f 85/41/84 86/38/84 74/107/84 73/106/84
f 86/38/85 23/37/85 87/108/85 74/107/85
f 23/37/86 88/40/86 76/109/86 87/108/86
f 89/49/87 19/48/87 83/104/87 77/110/87
f 91/51/88 33/58/88 90/112/88 79/111/88
f 92/52/89 91/51/89 79/111/89 80/113/89
f 93/57/90 92/52/90 80/113/90 81/114/90
f 37/61/91 93/57/91 81/114/91 94/115/91
f 33/58/92 89/49/92 77/110/92 90/112/92
f 88/40/93 37/61/93 94/115/93 76/109/93
