# Blender v2.90.1 OBJ File: ''
# www.blender.org
mtllib sword0.mtl
o Cylinder
v -0.000000 -1.000000 -0.171037
v 0.000000 1.000000 -0.000000
v 0.120942 -1.000000 -0.120941
v -0.500000 0.810150 -0.000000
v 0.171037 -1.000000 0.000000
v -0.353553 0.810150 0.353553
v 0.120942 -1.000000 0.120941
v -0.000000 0.810150 0.500000
v -0.000000 -1.000000 0.171037
v 0.353553 0.810150 0.353553
v -0.120942 -1.000000 0.120941
v 0.500000 0.810150 0.000000
v -0.171037 -1.000000 -0.000000
v 0.353553 0.810150 -0.353553
v -0.120942 -1.000000 -0.120941
v 0.000000 0.810150 -0.500000
v 0.353553 1.000000 -0.353553
v 0.000000 1.000000 -0.500000
v 0.500000 1.000000 0.000000
v 0.353553 1.000000 0.353553
v -0.000000 1.000000 0.500000
v -0.353553 1.000000 0.353553
v -0.500000 1.000000 -0.000000
v -0.353553 1.000000 -0.353553
v 0.220984 1.000000 -0.220984
v -0.000000 1.000000 -0.312519
v 0.312519 1.000000 0.000000
v 0.220984 1.000000 0.220984
v -0.000000 1.000000 0.312519
v -0.220984 1.000000 0.220984
v -0.312519 1.000000 -0.000000
v -0.220984 1.000000 -0.220984
v 0.182353 1.000000 -0.182353
v -0.000000 1.000000 -0.257886
v 0.257886 1.000000 0.000000
v 0.182353 1.000000 0.182353
v -0.000000 1.000000 0.257886
v -0.182353 1.000000 0.182353
v -0.257886 1.000000 -0.000000
v -0.182353 1.000000 -0.182353
v 0.145401 1.000000 -0.145401
v -0.000000 1.000000 -0.205628
v 0.205628 1.000000 0.000000
v 0.145401 1.000000 0.145401
v -0.000000 1.000000 0.205628
v -0.145401 1.000000 0.145401
v -0.205628 1.000000 -0.000000
v -0.145401 1.000000 -0.145401
v 0.117644 1.000000 -0.117644
v 0.000000 1.000000 -0.166373
v 0.166373 1.000000 0.000000
v 0.117644 1.000000 0.117644
v -0.000000 1.000000 0.166373
v -0.117644 1.000000 0.117644
v -0.166373 1.000000 -0.000000
v -0.117644 1.000000 -0.117644
v 0.083135 1.000000 -0.083135
v 0.000000 1.000000 -0.117571
v 0.117571 1.000000 0.000000
v 0.083135 1.000000 0.083135
v -0.000000 1.000000 0.117571
v -0.083135 1.000000 0.083135
v -0.117571 1.000000 -0.000000
v -0.083135 1.000000 -0.083135
v 0.062149 1.000000 -0.062149
v 0.000000 1.000000 -0.087893
v 0.087893 1.000000 0.000000
v 0.062150 1.000000 0.062149
v 0.000000 1.000000 0.087893
v -0.062149 1.000000 0.062149
v -0.087893 1.000000 -0.000000
v -0.062150 1.000000 -0.062149
v 0.026585 1.000000 -0.026585
v 0.000000 1.000000 -0.037597
v 0.037597 1.000000 0.000000
v 0.026585 1.000000 0.026585
v 0.000000 1.000000 0.037597
v -0.026585 1.000000 0.026585
v -0.037597 1.000000 -0.000000
v -0.026585 1.000000 -0.026585
v -0.353553 0.810150 -0.353553
v 0.120942 0.810150 -0.120941
v 0.171037 0.810150 0.000000
v 0.120942 0.810150 0.120941
v -0.000000 0.810150 0.171037
v -0.120942 0.810150 0.120941
v -0.171037 0.810150 -0.000000
v -0.120942 0.810150 -0.120941
v -0.000000 0.810150 -0.171037
vt 1.000000 0.952537
vt 1.000000 1.000000
vt 0.875000 1.000000
vt 0.875000 0.952537
vt 0.750000 1.000000
vt 0.750000 0.952537
vt 0.625000 1.000000
vt 0.625000 0.952537
vt 0.500000 1.000000
vt 0.500000 0.952537
vt 0.375000 1.000000
vt 0.375000 0.952537
vt 0.250000 1.000000
vt 0.250000 0.952537
vt 0.750000 0.952537
vt 0.625000 0.952537
vt 0.125000 1.000000
vt 0.125000 0.952537
vt 0.000000 1.000000
vt 0.000000 0.952537
vt 0.750000 0.490000
vt 0.919706 0.419706
vt 0.990000 0.250000
vt 0.919706 0.080294
vt 0.750000 0.010000
vt 0.580294 0.080294
vt 0.510000 0.250000
vt 0.580294 0.419706
vt 0.250000 0.464979
vt 0.402013 0.402013
vt 0.419706 0.419706
vt 0.250000 0.490000
vt 0.464979 0.250000
vt 0.490000 0.250000
vt 0.402013 0.097987
vt 0.419706 0.080294
vt 0.250000 0.035021
vt 0.250000 0.010000
vt 0.097987 0.097987
vt 0.080294 0.080294
vt 0.035021 0.250000
vt 0.010000 0.250000
vt 0.097987 0.402013
vt 0.080294 0.419706
vt 0.250000 0.427397
vt 0.375439 0.375439
vt 0.427397 0.250000
vt 0.375439 0.124561
vt 0.250000 0.072603
vt 0.124561 0.124561
vt 0.072603 0.250000
vt 0.124561 0.375439
vt 0.250000 0.391449
vt 0.350020 0.350020
vt 0.391450 0.250000
vt 0.350020 0.149980
vt 0.250000 0.108551
vt 0.149980 0.149980
vt 0.108551 0.250000
vt 0.149980 0.350020
vt 0.250000 0.364446
vt 0.330926 0.330926
vt 0.364446 0.250000
vt 0.330926 0.169074
vt 0.250000 0.135554
vt 0.169074 0.169074
vt 0.135554 0.250000
vt 0.169074 0.330926
vt 0.250000 0.330876
vt 0.307188 0.307188
vt 0.330876 0.250000
vt 0.307188 0.192812
vt 0.250000 0.169124
vt 0.192812 0.192812
vt 0.169124 0.250000
vt 0.192812 0.307188
vt 0.250000 0.292188
vt 0.279832 0.279832
vt 0.292189 0.250000
vt 0.279832 0.220168
vt 0.250000 0.207812
vt 0.220168 0.220168
vt 0.207812 0.250000
vt 0.220168 0.279832
vt 0.250000 0.268046
vt 0.262761 0.262761
vt 0.268046 0.250000
vt 0.262761 0.237239
vt 0.250000 0.231954
vt 0.237239 0.237239
vt 0.231954 0.250000
vt 0.237239 0.262761
vt 0.257912 0.257912
vt 0.261189 0.250000
vt 0.257912 0.242088
vt 0.250000 0.238811
vt 0.242088 0.242088
vt 0.238811 0.250000
vt 0.242088 0.257912
vt 0.250000 0.261189
vt 0.500000 0.952537
vt 0.375000 0.952537
vt 0.250000 0.952537
vt 0.125000 0.952537
vt 0.000000 0.952537
vt 0.875000 0.952537
vt 1.000000 0.952537
vt 1.000000 0.500000
vt 0.875000 0.500000
vt 0.750000 0.500000
vt 0.125000 0.500000
vt 0.000000 0.500000
vt 0.250000 0.500000
vt 0.375000 0.500000
vt 0.500000 0.500000
vt 0.625000 0.500000
vn 0.3827 0.0000 -0.9239
vn 0.9239 0.0000 -0.3827
vn 0.9239 0.0000 0.3827
vn 0.3827 0.0000 0.9239
vn -0.3827 0.0000 0.9239
vn -0.9239 0.0000 0.3827
vn 0.0000 -1.0000 0.0000
vn -0.9239 0.0000 -0.3827
vn -0.3827 0.0000 -0.9239
vn 0.0000 1.0000 0.0000
usemtl None
s off
f 16/1/1 18/2/1 17/3/1 14/4/1
f 14/4/2 17/3/2 19/5/2 12/6/2
f 12/6/3 19/5/3 20/7/3 10/8/3
f 10/8/4 20/7/4 21/9/4 8/10/4
f 8/10/5 21/9/5 22/11/5 6/12/5
f 6/12/6 22/11/6 23/13/6 4/14/6
f 83/15/7 12/6/7 10/8/7 84/16/7
f 4/14/8 23/13/8 24/17/8 81/18/8
f 81/18/9 24/17/9 18/19/9 16/20/9
f 1/21/7 3/22/7 5/23/7 7/24/7 9/25/7 11/26/7 13/27/7 15/28/7
f 26/29/10 25/30/10 17/31/10 18/32/10
f 25/30/10 27/33/10 19/34/10 17/31/10
f 27/33/10 28/35/10 20/36/10 19/34/10
f 28/35/10 29/37/10 21/38/10 20/36/10
f 29/37/10 30/39/10 22/40/10 21/38/10
f 30/39/10 31/41/10 23/42/10 22/40/10
f 31/41/10 32/43/10 24/44/10 23/42/10
f 32/43/10 26/29/10 18/32/10 24/44/10
f 34/45/10 33/46/10 25/30/10 26/29/10
f 33/46/10 35/47/10 27/33/10 25/30/10
f 35/47/10 36/48/10 28/35/10 27/33/10
f 36/48/10 37/49/10 29/37/10 28/35/10
f 37/49/10 38/50/10 30/39/10 29/37/10
f 38/50/10 39/51/10 31/41/10 30/39/10
f 39/51/10 40/52/10 32/43/10 31/41/10
f 40/52/10 34/45/10 26/29/10 32/43/10
f 42/53/10 41/54/10 33/46/10 34/45/10
f 41/54/10 43/55/10 35/47/10 33/46/10
f 43/55/10 44/56/10 36/48/10 35/47/10
f 44/56/10 45/57/10 37/49/10 36/48/10
f 45/57/10 46/58/10 38/50/10 37/49/10
f 46/58/10 47/59/10 39/51/10 38/50/10
f 47/59/10 48/60/10 40/52/10 39/51/10
f 48/60/10 42/53/10 34/45/10 40/52/10
f 50/61/10 49/62/10 41/54/10 42/53/10
f 49/62/10 51/63/10 43/55/10 41/54/10
f 51/63/10 52/64/10 44/56/10 43/55/10
f 52/64/10 53/65/10 45/57/10 44/56/10
f 53/65/10 54/66/10 46/58/10 45/57/10
f 54/66/10 55/67/10 47/59/10 46/58/10
f 55/67/10 56/68/10 48/60/10 47/59/10
f 56/68/10 50/61/10 42/53/10 48/60/10
f 58/69/10 57/70/10 49/62/10 50/61/10
f 57/70/10 59/71/10 51/63/10 49/62/10
f 59/71/10 60/72/10 52/64/10 51/63/10
f 60/72/10 61/73/10 53/65/10 52/64/10
f 61/73/10 62/74/10 54/66/10 53/65/10
f 62/74/10 63/75/10 55/67/10 54/66/10
f 63/75/10 64/76/10 56/68/10 55/67/10
f 64/76/10 58/69/10 50/61/10 56/68/10
f 66/77/10 65/78/10 57/70/10 58/69/10
f 65/78/10 67/79/10 59/71/10 57/70/10
f 67/79/10 68/80/10 60/72/10 59/71/10
f 68/80/10 69/81/10 61/73/10 60/72/10
f 69/81/10 70/82/10 62/74/10 61/73/10
f 70/82/10 71/83/10 63/75/10 62/74/10
f 71/83/10 72/84/10 64/76/10 63/75/10
f 72/84/10 66/77/10 58/69/10 64/76/10
f 74/85/10 73/86/10 65/78/10 66/77/10
f 73/86/10 75/87/10 67/79/10 65/78/10
f 75/87/10 76/88/10 68/80/10 67/79/10
f 76/88/10 77/89/10 69/81/10 68/80/10
f 77/89/10 78/90/10 70/82/10 69/81/10
f 78/90/10 79/91/10 71/83/10 70/82/10
f 79/91/10 80/92/10 72/84/10 71/83/10
f 80/92/10 74/85/10 66/77/10 72/84/10
f 2/93/10 73/86/10 74/85/10
f 2/94/10 75/87/10 73/86/10
f 2/95/10 76/88/10 75/87/10
f 2/96/10 77/89/10 76/88/10
f 2/97/10 78/90/10 77/89/10
f 2/98/10 79/91/10 78/90/10
f 2/99/10 80/92/10 79/91/10
f 2/100/10 74/85/10 80/92/10
f 84/16/7 10/8/7 8/10/7 85/101/7
f 85/101/7 8/10/7 6/12/7 86/102/7
f 86/102/7 6/12/7 4/14/7 87/103/7
f 87/103/7 4/14/7 81/18/7 88/104/7
f 88/104/7 81/18/7 16/20/7 89/105/7
f 82/106/7 14/4/7 12/6/7 83/15/7
f 89/107/7 16/1/7 14/4/7 82/106/7
f 1/108/1 89/107/1 82/106/1 3/109/1
f 3/109/2 82/106/2 83/15/2 5/110/2
f 15/111/9 88/104/9 89/105/9 1/112/9
f 13/113/8 87/103/8 88/104/8 15/111/8
f 11/114/6 86/102/6 87/103/6 13/113/6
f 9/115/5 85/101/5 86/102/5 11/114/5
f 7/116/4 84/16/4 85/101/4 9/115/4
f 5/110/3 83/15/3 84/16/3 7/116/3
