# Blender v2.91.0 OBJ File: ''
# www.blender.org
mtllib toilet1.mtl
o Cube
v 1.603932 -0.124381 -1.878682
v 0.000000 -0.390330 -1.493246
v 1.603932 -0.124381 1.329181
v 0.000000 -0.390330 0.943745
v -1.603932 -0.124381 -1.878682
v 0.000000 -0.390330 -1.493246
v -1.603932 -0.124381 1.329181
v 0.000000 -0.390330 0.943745
v -0.000000 -0.390330 -1.493246
v 0.000000 -0.124381 1.329181
v -0.000000 -0.390330 0.943745
v 0.000000 -0.124381 -1.878682
v 0.000000 -0.390330 -1.493246
v 0.000000 -0.390330 0.943745
v 0.000000 -0.390330 0.943745
v 0.000000 -0.390330 -1.493246
v -0.000000 -0.390330 -1.493246
v -0.000000 -0.390330 0.943745
v 0.000000 -0.390330 0.943745
v 0.000000 -0.390330 -2.384907
v 0.000000 -0.390330 1.835406
v 0.000000 -0.390330 -2.384907
v -0.000000 -0.390330 -1.493246
v -0.000000 -0.390330 0.943745
v -0.000000 -0.390330 1.835406
v -2.000000 -0.390330 1.835406
v 2.000000 -0.390330 -2.384907
v 2.000000 -0.390330 1.835406
v -2.000000 -0.390330 -2.384907
v -0.000000 -0.390330 -1.493246
v 0.000000 2.211163 -1.878682
v 0.000000 2.211163 1.329181
v -1.603932 2.211163 1.329181
v 1.603932 2.211163 -1.878682
v 1.603932 2.211163 1.329181
v -1.603932 2.211163 -1.878682
v 0.000000 2.211163 -2.443680
v 0.000000 2.211163 1.894179
v -2.168929 2.211163 1.894179
v 2.168929 2.211163 -2.443680
v 2.168929 2.211163 1.894179
v -2.168929 2.211163 -2.443680
v 0.000000 6.165228 -2.443680
v 0.000000 6.165228 -1.318349
v -2.168929 6.165228 -1.318349
v 2.168929 6.165228 -2.443680
v 2.168929 6.165228 -1.318349
v -2.168929 6.165228 -2.443680
v -2.168929 3.120755 -2.443680
v 0.000000 3.120755 -2.443680
v 2.168929 3.120755 -2.443680
v 2.168929 3.120755 -1.318349
v 0.000000 3.120755 -1.318349
v -2.168929 3.120755 -1.318349
v 1.049432 2.243054 3.174178
v -1.925230 2.243054 2.643123
v 1.925230 2.243054 2.643123
v 1.925230 3.088864 2.643123
v 1.049432 3.088864 3.174178
v -1.925230 3.088864 2.643123
v 2.168929 2.211163 2.067571
v -1.049432 2.243054 3.174178
v 2.168929 3.120755 2.067571
v -1.049432 3.088864 3.174178
v 0.000000 2.211163 3.402566
v -2.168929 2.211163 2.067571
v 0.000000 3.120755 3.402566
v -2.168929 3.120755 2.067571
v 0.000000 -0.390330 -1.493246
v 0.000000 -0.390330 -1.493246
v 0.000000 -0.390330 0.943745
v 0.000000 -0.390330 0.943745
v 0.000000 -0.390330 -1.493246
v 0.000000 -0.390330 -1.493246
v 0.000000 -0.390330 0.943745
v 0.000000 -0.390330 0.943745
v 0.000000 -0.390330 -1.493246
v 0.000000 -0.390330 0.943745
v -0.000000 -0.390330 -1.493246
v -0.000000 -0.390330 0.943745
v -0.000000 -0.390330 0.943745
v 0.000000 -0.390330 0.943745
v 0.000000 -0.390330 -1.493246
v -0.000000 -0.390330 -1.493246
v 0.000000 -0.390330 -1.493246
v 0.000000 -0.390330 -1.493246
v 0.000000 -0.390330 0.943745
v 0.000000 -0.390330 0.943745
v 0.000000 -0.390330 -1.493246
v 0.000000 -0.390330 -1.493246
v 0.000000 -0.390330 0.943745
v 0.000000 -0.390330 0.943745
vt 0.562229 0.875000
vt 0.625000 0.875000
vt 0.625000 1.000000
vt 0.562229 1.000000
vt 0.562229 0.000000
vt 0.625000 0.000000
vt 0.625000 0.250000
vt 0.562229 0.250000
vt 0.562229 0.500000
vt 0.625000 0.500000
vt 0.625000 0.750000
vt 0.562229 0.750000
vt 0.562229 0.375000
vt 0.625000 0.375000
vt 0.375000 0.750000
vt 0.528509 0.750000
vt 0.528509 0.875000
vt 0.375000 0.875000
vt 0.375000 0.250000
vt 0.528509 0.250000
vt 0.528509 0.375000
vt 0.375000 0.375000
vt 0.528509 0.500000
vt 0.375000 0.500000
vt 0.375000 0.000000
vt 0.528509 0.000000
vt 0.528509 1.000000
vt 0.375000 1.000000
vt 0.562229 0.500000
vt 0.528509 0.500000
vt 0.562229 0.250000
vt 0.562229 0.000000
vt 0.750000 0.707270
vt 0.832270 0.707270
vt 0.875000 0.750000
vt 0.750000 0.750000
vt 0.667730 0.542730
vt 0.667730 0.707270
vt 0.832270 0.542730
vt 0.875000 0.500000
vt 0.750000 0.542730
vt 0.750000 0.500000
vt 0.528509 0.750000
vt 0.528509 0.250000
vt 0.562229 1.000000
vt 0.528509 1.000000
vt 0.562229 0.750000
vt 0.528509 0.000000
vt 0.667730 0.707270
vt 0.750000 0.707270
vt 0.667730 0.542730
vt 0.832270 0.542730
vt 0.832270 0.707270
vt 0.832270 0.707270
vt 0.832270 0.542730
vt 0.667730 0.707270
vt 0.750000 0.707270
vt 0.750000 0.542730
vt 0.667730 0.542730
vt 0.750000 0.542730
vt 0.750000 0.542730
vt 0.667730 0.542730
vt 0.832270 0.542730
vt 0.832270 0.542730
vt 0.750000 0.542730
vt 0.667730 0.542730
vt 0.832270 0.707270
vt 0.750000 0.707270
vt 0.667730 0.707270
vt 0.667730 0.707270
vt 0.750000 0.707270
vt 0.832270 0.707270
vt 0.667730 0.707270
vt 0.667730 0.707270
vt 0.750000 0.707270
vt 0.823026 0.707270
vt 0.759244 0.707270
vt 0.759244 0.707270
vt 0.823026 0.707270
vt 0.740756 0.707270
vt 0.676974 0.707270
vt 0.676974 0.707270
vt 0.740756 0.707270
vt 0.832270 0.707270
vt 0.832270 0.707270
vt 0.750000 0.707270
vt 0.562229 1.000000
vt 0.528509 1.000000
vt 0.562229 0.250000
vt 0.562229 0.000000
vt 0.528509 0.500000
vt 0.562229 0.500000
vt 0.562229 0.750000
vt 0.528509 0.750000
vt 0.528509 0.000000
vt 0.528509 0.250000
vt 0.375000 0.500000
vt 0.375000 0.375000
vt 0.375000 1.000000
vt 0.375000 0.875000
vt 0.125000 0.500000
vt 0.250000 0.500000
vt 0.250000 0.750000
vt 0.125000 0.750000
vt 0.375000 0.375000
vt 0.375000 0.250000
vt 0.250000 0.500000
vt 0.250000 0.750000
vt 0.375000 0.000000
vt 0.250000 0.500000
vt 0.375000 0.750000
vt 0.250000 0.750000
vt 0.375000 0.875000
vn 0.0000 -1.0000 0.0000
vn 0.0000 1.0000 0.0000
vn 0.0000 0.0000 1.0000
vn 0.0000 0.8853 0.4651
vn 0.5575 0.8302 0.0000
vn -0.5575 0.8302 0.0000
vn -0.2400 0.0416 -0.9699
vn 0.2400 0.0416 -0.9699
vn 1.0000 0.0000 0.0000
vn -1.0000 0.0000 0.0000
vn 0.0000 0.0000 -1.0000
vn -0.5185 0.0000 0.8551
vn 0.5185 0.0000 0.8551
vn 0.0463 -0.9961 0.0755
vn 0.9209 0.0000 0.3899
vn 0.2127 -0.0000 0.9771
vn 0.0463 0.9961 0.0755
vn -0.0463 -0.9961 0.0755
vn -0.2127 -0.0000 0.9771
vn -0.9209 0.0000 0.3899
vn -0.0463 0.9961 0.0755
usemtl Redw
s off
f 24/1/1 25/2/1 26/3/1 19/4/1
f 19/5/1 26/6/1 29/7/1 22/8/1
f 20/9/1 27/10/1 28/11/1 21/12/1
f 23/13/2 30/14/2 27/10/2 20/9/2
f 22/8/2 29/7/2 30/14/2 23/13/2
f 21/12/1 28/11/1 25/2/1 24/1/1
f 4/15/3 15/16/3 18/17/3 11/18/3
f 6/19/3 16/20/3 17/21/3 9/22/3
f 9/22/3 17/21/3 13/23/3 2/24/3
f 2/24/3 13/23/3 15/16/3 4/15/3
f 8/25/3 14/26/3 16/20/3 6/19/3
f 11/18/3 18/17/3 14/27/3 8/28/3
f 15/16/1 21/12/1 24/1/1 18/17/1
f 16/20/2 22/8/2 23/13/2 17/21/2
f 17/21/1 23/13/1 20/9/1 13/23/1
f 13/23/3 20/9/3 69/29/3 70/30/3
f 19/5/1 22/8/1 73/31/1 76/32/1
f 18/17/3 24/1/3 19/4/3 14/27/3
f 10/33/4 7/34/4 26/35/4 25/36/4
f 1/37/5 3/38/5 28/11/5 27/10/5
f 7/34/6 5/39/6 29/40/6 26/35/6
f 12/41/7 1/37/7 27/10/7 30/42/7
f 3/38/4 10/33/4 25/36/4 28/11/4
f 5/39/8 12/41/8 30/42/8 29/40/8
f 15/16/3 13/23/3 70/30/3 72/43/3
f 22/8/3 16/20/3 74/44/3 73/31/3
f 14/27/3 19/4/3 76/45/3 75/46/3
f 20/9/3 21/12/3 71/47/3 69/29/3
f 16/20/3 14/26/3 75/48/3 74/44/3
f 21/12/3 15/16/3 72/43/3 71/47/3
usemtl skinw
f 10/33/3 3/38/3 35/49/3 32/50/3
f 3/38/9 1/37/9 34/51/9 35/49/9
f 36/52/1 33/53/1 39/54/1 42/55/1
f 32/50/1 35/49/1 41/56/1 38/57/1
f 5/39/10 7/34/10 33/53/10 36/52/10
f 7/34/3 10/33/3 32/50/3 33/53/3
f 12/41/11 5/39/11 36/52/11 31/58/11
f 1/37/11 12/41/11 31/58/11 34/51/11
f 51/59/11 50/60/11 43/61/11 46/62/11
f 50/60/11 49/63/11 48/64/11 43/61/11
f 33/53/1 32/50/1 38/57/1 39/54/1
f 31/58/1 36/52/1 42/55/1 37/65/1
f 34/51/1 31/58/1 37/65/1 40/66/1
f 35/49/1 34/51/1 40/66/1 41/56/1
f 43/61/2 48/64/2 45/67/2 44/68/2
f 46/62/2 43/61/2 44/68/2 47/69/2
f 52/70/9 51/59/9 46/62/9 47/69/9
f 53/71/3 52/70/3 47/69/3 44/68/3
f 49/63/10 54/72/10 45/67/10 48/64/10
f 54/72/3 53/71/3 44/68/3 45/67/3
f 41/56/9 52/70/9 63/73/9 61/74/9
f 42/55/10 39/54/10 54/72/10 49/63/10
f 52/70/2 53/71/2 67/75/2 63/73/2
f 41/56/9 40/66/9 51/59/9 52/70/9
f 37/65/11 42/55/11 49/63/11 50/60/11
f 40/66/11 37/65/11 50/60/11 51/59/11
f 56/76/12 62/77/12 64/78/12 60/79/12
f 55/80/13 57/81/13 58/82/13 59/83/13
f 53/71/2 54/72/2 68/84/2 67/75/2
f 54/72/10 39/54/10 66/85/10 68/84/10
f 38/57/1 41/56/1 61/74/1 65/86/1
f 39/54/1 38/57/1 65/86/1 66/85/1
f 57/81/14 55/80/14 65/86/14 61/74/14
f 58/82/15 57/81/15 61/74/15 63/73/15
f 55/80/16 59/83/16 67/75/16 65/86/16
f 59/83/17 58/82/17 63/73/17 67/75/17
f 62/77/18 56/76/18 66/85/18 65/86/18
f 64/78/19 62/77/19 65/86/19 67/75/19
f 56/76/20 60/79/20 68/84/20 66/85/20
f 60/79/21 64/78/21 67/75/21 68/84/21
f 75/46/3 76/45/3 92/87/3 91/88/3
f 76/32/3 73/31/3 89/89/3 92/90/3
f 86/91/3 85/92/3 87/93/3 88/94/3
f 91/95/3 92/90/3 89/89/3 90/96/3
f 72/43/3 70/30/3 86/91/3 88/94/3
f 71/47/3 72/43/3 88/94/3 87/93/3
f 69/29/3 71/47/3 87/93/3 85/92/3
f 74/44/3 75/48/3 91/95/3 90/96/3
f 73/31/3 74/44/3 90/96/3 89/89/3
f 70/30/3 69/29/3 85/92/3 86/91/3
usemtl pantsw
f 9/22/3 2/24/3 83/97/3 84/98/3
f 11/18/3 8/28/3 78/99/3 80/100/3
f 77/101/2 79/102/2 80/103/2 78/104/2
f 6/19/11 9/22/11 79/105/11 77/106/11
f 9/107/1 11/108/1 80/103/1 79/102/1
f 8/25/3 6/19/3 77/106/3 78/109/3
f 84/110/1 83/97/1 82/111/1 81/112/1
f 4/15/11 11/18/11 81/113/11 82/111/11
f 11/108/2 9/107/2 84/110/2 81/112/2
f 2/24/3 4/15/3 82/111/3 83/97/3
