# Blender v2.91.0 OBJ File: 'heliDrone.blend'
# www.blender.org
mtllib Heli1.mtl
o Cube
v 0.070000 0.500000 -0.070000
v 0.137135 0.298041 -0.424273
v 0.070000 0.500000 0.070000
v 0.298250 0.000000 0.424273
v -0.070000 0.500000 -0.070000
v -0.137135 0.298041 -0.424273
v -0.070000 0.500000 0.070000
v -0.298250 0.000000 0.424273
v 0.298250 0.363854 0.424273
v -0.298250 0.363854 0.424273
v 0.154438 0.363854 -0.424273
v -0.154438 0.363854 -0.424273
v 0.070000 0.695918 0.070000
v -0.070000 0.695918 0.070000
v 0.070000 0.695918 -0.070000
v -0.070000 0.695918 -0.070000
v 0.000000 0.277699 -0.353692
v 0.000000 0.363854 0.500000
v 0.000000 0.277699 0.353692
v 0.000000 0.363854 -0.500000
v 0.000000 0.500000 0.100000
v 0.000000 0.500000 -0.100000
v 0.000000 0.695918 0.100000
v 0.000000 0.695918 -0.100000
v -0.413023 0.008670 0.150000
v 0.525482 0.116479 0.150000
v -0.525482 0.116479 0.150000
v 0.413023 0.008670 0.150000
v 0.100000 0.500000 0.000000
v -0.100000 0.500000 0.000000
v 0.100000 0.695918 0.000000
v -0.100000 0.695918 0.000000
v -0.525482 0.116479 -0.150000
v 0.413023 0.008670 -0.150000
v -0.413023 0.008670 -0.150000
v 0.525482 0.116479 -0.150000
v 0.000000 0.225281 -0.690183
v -0.137135 0.298041 -0.634608
v 0.137135 0.298041 -0.634608
v 0.000000 0.363854 -0.690183
v -0.211354 0.079345 -0.172964
v -0.211354 0.079345 0.172964
v 0.500000 0.363854 -0.250000
v 0.500000 0.363854 0.250000
v 0.211354 0.079345 0.172964
v -0.500000 0.363854 0.250000
v -0.500000 0.363854 -0.250000
v 0.211354 0.079345 -0.172964
v -0.525312 -0.201082 -0.150000
v -0.525312 -0.201082 0.150000
v 0.701806 -0.287579 -0.150000
v 0.701806 -0.287579 0.150000
v 0.525312 -0.201082 0.150000
v -0.701806 -0.287579 0.150000
v -0.701806 -0.287579 -0.150000
v 0.525312 -0.201082 -0.150000
v -0.197232 -0.372921 -0.049067
v -0.197232 -0.372921 0.049067
v 0.321759 -0.432905 -0.049067
v 0.321759 -0.432905 0.049067
v 0.197232 -0.372921 0.049067
v -0.321759 -0.432905 0.049067
v -0.321759 -0.432905 -0.049067
v 0.197232 -0.372921 -0.049067
v 0.317958 0.320712 0.677202
v 0.317958 0.085054 0.677202
v 0.103339 0.247165 0.731694
v 0.103339 0.320712 0.731694
v -0.317958 0.085054 0.677202
v -0.317958 0.320712 0.677202
v -0.103339 0.320712 0.731694
v -0.103339 0.247165 0.731694
v 0.359774 0.363854 0.666585
v 0.359774 0.000000 0.666585
v 0.061524 0.225281 0.742311
v 0.061524 0.363854 0.742311
v -0.359774 0.000000 0.666585
v -0.359774 0.363854 0.666585
v -0.061524 0.363854 0.742311
v -0.061524 0.225281 0.742311
v 0.000000 0.223059 -0.732729
v -0.137135 0.300578 -0.727496
v 0.137135 0.300578 -0.727496
v 0.000000 0.361003 -0.723416
v 0.288938 0.320712 0.487441
v 0.288938 0.085054 0.487441
v 0.074319 0.247165 0.541933
v 0.074319 0.320712 0.541933
v -0.288938 0.085054 0.487441
v -0.288938 0.320712 0.487441
v -0.074319 0.320712 0.541933
v -0.074319 0.247165 0.541933
v 0.000000 0.164597 -0.690183
v -0.197814 0.298830 -0.614456
v 0.197814 0.298830 -0.614456
v 0.000000 0.424538 -0.690183
v 0.000000 0.164597 -0.765647
v -0.197801 0.299505 -0.717070
v 0.197801 0.299505 -0.717070
v 0.000000 0.424538 -0.765647
v 0.000000 0.221339 -0.707254
v -0.137135 0.298858 -0.702021
v 0.137135 0.298858 -0.702021
v 0.000000 0.359283 -0.697942
v 0.361272 -0.287001 -0.099534
v 0.361272 -0.287001 0.099534
v -0.361272 -0.287001 0.099534
v -0.361272 -0.287001 -0.099534
v 0.000000 0.225281 -0.500000
v -0.326267 0.000000 -0.250000
v -0.326267 0.000000 0.250000
v 0.326267 0.000000 0.250000
v 0.326267 0.000000 -0.250000
v 0.000000 0.225281 0.500000
v 0.000000 0.726799 0.050000
v -0.035000 0.726799 0.035000
v 0.050000 0.726799 0.000000
v 0.035000 0.726799 0.035000
v 0.000000 0.726799 -0.050000
v 0.035000 0.726799 -0.035000
v -0.035000 0.726799 -0.035000
v -0.050000 0.726799 0.000000
vt 0.800000 0.625000
vt 0.800000 0.675000
vt 0.800000 0.675000
vt 0.800000 0.625000
vt 0.800000 0.625000
vt 0.800000 0.675000
vt 0.750000 0.675000
vt 0.700000 0.675000
vt 0.700000 0.675000
vt 0.750000 0.675000
vt 0.750000 0.575000
vt 0.800000 0.575000
vt 0.800000 0.575000
vt 0.750000 0.575000
vt 0.700000 0.575000
vt 0.700000 0.575000
vt 0.700000 0.600000
vt 0.700000 0.625000
vt 0.800000 0.575000
vt 0.433273 0.137500
vt 0.562997 0.137500
vt 0.562997 0.137500
vt 0.437003 0.137500
vt 0.700000 0.625000
vt 0.433273 0.612500
vt 0.433273 0.575000
vt 0.437003 0.575000
vt 0.437003 0.612500
vt 0.700000 0.575000
vt 0.700000 0.625000
vt 0.250000 0.562500
vt 0.125000 0.500000
vt 0.125000 0.500000
vt 0.250000 0.562500
vt 0.625000 0.375000
vt 0.375000 0.500000
vt 0.375000 0.500000
vt 0.625000 0.375000
vt 0.375000 0.250000
vt 0.375000 0.250000
vt 0.250000 0.500000
vt 0.250000 0.500000
vt 0.562997 0.575000
vt 0.562997 0.612500
vt 0.562997 0.612500
vt 0.562997 0.575000
vt 0.562997 0.175000
vt 0.562997 0.175000
vt 0.433273 0.175000
vt 0.437003 0.175000
vt 0.437003 0.612500
vt 0.562997 0.612500
vt 0.562997 0.575000
vt 0.437003 0.575000
vt 0.562997 0.175000
vt 0.562997 0.137500
vt 0.437003 0.137500
vt 0.437003 0.175000
vt 0.700000 0.675000
vt 0.750000 0.675000
vt 0.750000 0.575000
vt 0.625000 0.000000
vt 0.375000 0.000000
vt 0.375000 0.000000
vt 0.625000 0.000000
vt 0.250000 0.625000
vt 0.375000 0.625000
vt 0.375000 0.750000
vt 0.625000 0.500000
vt 0.875000 0.750000
vt 0.750000 0.750000
vt 0.750000 0.500000
vt 0.875000 0.500000
vt 0.625000 0.750000
vt 0.625000 0.250000
vt 0.125000 0.625000
vt 0.250000 0.750000
vt 0.125000 0.750000
vt 0.750000 0.750000
vt 0.625000 0.750000
vt 0.375000 0.562500
vt 0.125000 0.562500
vt 0.375000 0.187500
vt 0.375000 0.125000
vt 0.414629 0.982475
vt 0.414629 0.982475
vt 0.588521 0.982475
vt 0.588521 0.982475
vt 0.560506 0.892525
vt 0.560506 0.892525
vt 0.443566 0.892525
vt 0.443566 0.892525
vt 0.437003 0.175000
vt 0.437003 0.137500
vt 0.437003 0.575000
vt 0.437003 0.612500
vt 0.375000 0.750000
vt 0.250000 0.625000
vt 0.625000 0.875000
vt 0.375000 0.875000
vt 0.375000 0.875000
vt 0.625000 0.875000
vt 0.250000 0.750000
vt 0.125000 0.750000
vt 0.625000 0.875000
vt 0.375000 0.875000
vt 0.875000 0.750000
vt 0.750000 0.750000
vt 0.588521 0.767525
vt 0.414629 0.767525
vt 0.443566 0.857475
vt 0.560506 0.857475
vt 0.625000 1.000000
vt 0.375000 1.000000
vt 0.443566 0.857475
vt 0.560506 0.857475
vt 0.588521 0.767525
vt 0.414629 0.767525
vt 0.375000 0.375000
vt 0.375000 0.250000
vt 0.375000 0.250000
vt 0.375000 0.375000
vt 0.625000 0.375000
vt 0.625000 0.375000
vt 0.375000 0.500000
vt 0.375000 0.500000
vt 0.240610 0.572300
vt 0.169026 0.576665
vt 0.169026 0.610835
vt 0.330974 0.610835
vt 0.330974 0.576665
vt 0.259390 0.615200
vt 0.625000 0.562500
vt 0.625000 0.625000
vt 0.625000 0.125000
vt 0.625000 0.187500
vt 0.375000 0.500000
vt 0.625000 0.375000
vt 0.375000 0.375000
vt 0.375000 0.250000
vt 0.625000 0.375000
vt 0.125000 0.500000
vt 0.250000 0.562500
vt 0.375000 0.500000
vt 0.125000 0.500000
vt 0.250000 0.562500
vt 0.375000 0.250000
vt 0.250000 0.500000
vt 0.250000 0.500000
vt 0.800000 0.600000
vt 0.875000 0.562500
vt 0.875000 0.625000
vn -0.5126 0.8300 0.2197
vn -0.9191 0.0000 0.3939
vn 0.3939 0.0000 0.9191
vn -0.3939 0.0000 -0.9191
vn 0.3939 0.0000 -0.9191
vn -0.3939 0.0000 0.9191
vn 0.9191 0.0000 -0.3939
vn -0.5126 0.8300 -0.2197
vn 0.0000 0.0000 1.0000
vn 0.9191 0.0000 0.3939
vn -0.8816 -0.4720 0.0000
vn 0.5126 0.8300 -0.2197
vn -0.9191 0.0000 -0.3939
vn -0.4687 -0.8834 0.0000
vn 0.4327 0.9016 0.0000
vn -0.4327 0.9016 0.0000
vn 0.4687 -0.8834 0.0000
vn 0.9165 0.4000 0.0000
vn -0.0000 0.0000 -1.0000
vn -0.9165 0.4000 0.0000
vn 0.8816 -0.4720 0.0000
vn -0.1408 -0.2887 0.9470
vn -0.1408 -0.2887 -0.9470
vn 0.3572 -0.9340 0.0000
vn -0.4640 0.8858 0.0000
vn -0.3572 -0.9340 0.0000
vn 0.1408 -0.2887 0.9470
vn 0.4640 0.8858 0.0000
vn 0.1408 -0.2887 -0.9470
vn 0.5126 0.8300 0.2197
vn 0.2197 0.8300 0.5126
vn 0.2197 0.8300 -0.5126
vn -0.2197 0.8300 0.5126
vn -0.2197 0.8300 -0.5126
vn 0.0000 1.0000 0.0000
vn -0.9692 0.0000 -0.2461
vn -0.6156 -0.7818 -0.0990
vn 0.4373 -0.1150 -0.8919
vn -0.0901 0.9452 0.3139
vn 0.1511 0.9351 -0.3207
vn -0.1511 0.9351 -0.3207
vn 0.0901 0.9452 0.3139
vn -0.4373 -0.1150 -0.8919
vn 0.6156 -0.7818 -0.0990
vn 0.5364 -0.1457 -0.8313
vn -0.5364 -0.1457 -0.8313
vn 0.5403 -0.1421 -0.8294
vn 0.9873 0.0000 0.1587
vn -0.5403 -0.1421 -0.8294
vn -0.9873 0.0000 0.1587
vn 0.9885 0.0000 0.1512
vn -0.9885 -0.0000 -0.1512
vn 0.1396 -0.2897 -0.9469
vn -0.4340 -0.9009 0.0000
vn 0.4340 -0.9009 0.0000
vn 0.1396 -0.2897 0.9469
vn -0.1396 -0.2897 -0.9469
vn -0.1396 -0.2897 0.9469
vn -0.5857 0.8055 -0.0896
vn -0.5726 -0.8069 0.1454
vn -0.9692 0.0000 0.2461
vn 0.9692 0.0000 -0.2461
vn 0.5726 -0.8069 0.1454
vn 0.9692 0.0000 0.2461
vn 0.2461 0.0000 0.9692
vn -0.2461 0.0000 0.9692
vn 0.9885 -0.0000 -0.1512
vn 0.0000 -1.0000 0.0000
vn 0.5857 0.8055 -0.0896
vn 0.4929 0.8681 0.0586
vn 0.4040 -0.9127 -0.0616
vn -0.4040 -0.9127 -0.0616
vn -0.4929 0.8681 0.0586
vn -0.9885 0.0000 0.1512
vn 0.6628 -0.7425 0.0970
vn 0.5682 -0.8229 0.0000
vn -0.5682 -0.8229 0.0000
vn -0.6628 -0.7425 0.0970
vn -0.6628 -0.7425 -0.0970
vn 0.6628 -0.7425 -0.0970
vn 0.6843 -0.7292 0.0000
vn -0.6843 -0.7292 0.0000
vn 0.0000 0.0674 -0.9977
vn -0.0994 -0.9950 0.0000
vn 0.9947 0.1025 0.0000
vn 0.3142 -0.3278 0.8910
vn -0.7235 -0.3454 0.5977
vn -0.9947 0.1025 0.0000
vn 0.0994 -0.9950 0.0000
vn 0.7235 -0.3454 -0.5977
vn -0.3142 -0.3278 -0.8910
vn -0.3142 -0.3278 0.8910
vn 0.7235 -0.3454 0.5977
vn -0.3152 0.0740 0.9461
vn 0.2371 0.4766 -0.8465
vn -0.1662 -0.1175 -0.9791
vn 0.3135 -0.0721 0.9468
vn 0.5346 0.8451 0.0032
vn -0.5632 -0.8263 -0.0032
vn -0.5346 0.8451 0.0032
vn 0.5632 -0.8263 -0.0032
vn -0.3756 0.0000 0.9268
vn -0.2595 -0.5346 -0.8043
vn 0.1702 0.1033 -0.9800
vn 0.3756 0.0000 0.9268
vn 0.3152 0.0740 0.9461
vn -0.3135 -0.0721 0.9468
vn 0.1662 -0.1175 -0.9791
vn 0.2595 -0.5346 -0.8043
vn -0.1702 0.1033 -0.9800
vn -0.2371 0.4766 -0.8465
vn -0.7235 -0.3454 -0.5977
vn 0.3142 -0.3278 -0.8910
vn -0.4402 -0.2102 -0.8729
vn 0.6240 -0.2980 0.7224
vn 0.2163 0.9545 0.2052
vn -0.1816 0.9429 -0.2793
vn -0.2163 0.9545 0.2052
vn 0.3222 0.9467 0.0000
vn -0.6240 -0.2980 0.7224
vn 0.4402 -0.2102 -0.8729
vn 0.1816 0.9429 -0.2793
vn -0.3222 0.9467 0.0000
usemtl base
s off
f 32/1/1 14/2/1 116/3/1 122/4/1
f 30/5/2 7/6/2 14/2/2 32/1/2
f 21/7/3 3/8/3 13/9/3 23/10/3
f 22/11/4 5/12/4 16/13/4 24/14/4
f 1/15/5 22/11/5 24/14/5 15/16/5
f 7/6/6 21/7/6 23/10/6 14/2/6
f 29/17/7 1/15/7 15/16/7 31/18/7
f 16/13/8 32/1/8 122/4/8 121/19/8
f 25/20/9 27/21/9 54/22/9 50/23/9
f 3/8/10 29/24/10 31/18/10 13/9/10
f 28/25/11 34/26/11 56/27/11 53/28/11
f 31/18/12 15/16/12 120/29/12 117/30/12
f 5/12/13 30/5/13 32/1/13 16/13/13
f 109/31/14 6/32/14 38/33/14 37/34/14
f 20/35/15 2/36/15 39/37/15 40/38/15
f 6/39/16 20/35/16 40/38/16 38/40/16
f 2/36/17 109/41/17 37/42/17 39/37/17
f 36/43/18 26/44/18 52/45/18 51/46/18
f 34/26/19 36/43/19 51/46/19 56/27/19
f 27/21/20 33/47/20 55/48/20 54/22/20
f 26/44/9 28/25/9 53/28/9 52/45/9
f 35/49/21 25/20/21 50/23/21 49/50/21
f 33/47/19 35/49/19 49/50/19 55/48/19
f 52/45/22 53/28/22 106/51/22 60/52/22
f 56/27/23 51/46/23 59/53/23 105/54/23
f 51/46/24 52/45/24 60/52/24 59/53/24
f 53/28/25 56/27/25 105/54/25 106/51/25
f 54/22/26 55/48/26 63/55/26 62/56/26
f 50/23/27 54/22/27 62/56/27 107/57/27
f 49/50/28 50/23/28 107/57/28 108/58/28
f 55/48/29 49/50/29 108/58/29 63/55/29
f 13/9/30 31/18/30 117/30/30 118/59/30
f 23/10/31 13/9/31 118/59/31 115/60/31
f 15/16/32 24/14/32 119/61/32 120/29/32
f 14/2/33 23/10/33 115/60/33 116/3/33
f 24/14/34 16/13/34 121/19/34 119/61/34
f 116/3/35 115/60/35 118/59/35 119/61/35
f 122/4/35 116/3/35 119/61/35 121/19/35
f 119/61/35 118/59/35 117/30/35 120/29/35
usemtl black
f 10/62/36 8/63/36 77/64/36 78/65/36
f 114/66/37 112/67/37 4/68/37
f 20/35/38 11/69/38 2/36/38
f 21/7/39 7/6/39 10/70/39 18/71/39
f 22/11/40 1/15/40 11/69/40 20/72/40
f 5/12/41 22/11/41 20/72/41 12/73/41
f 3/8/42 21/7/42 18/71/42 9/74/42
f 6/39/43 12/75/43 20/35/43
f 111/76/44 114/77/44 8/78/44
f 9/74/35 18/71/35 76/79/35 73/80/35
f 109/41/45 2/36/45 113/81/45
f 6/32/46 109/31/46 110/82/46
f 2/36/47 11/69/47 113/81/47
f 4/68/48 112/67/48 9/74/48
f 6/39/49 110/83/49 12/75/49
f 8/63/50 10/62/50 111/84/50
f 69/85/51 89/86/51 90/87/51 70/88/51
f 71/89/52 91/90/52 92/91/52 72/92/52
f 63/55/53 108/58/53 57/93/53
f 108/58/28 107/57/28 58/94/28 57/93/28
f 64/95/54 59/53/54 60/52/54 61/96/54
f 58/94/55 62/56/55 63/55/55 57/93/55
f 106/51/25 105/54/25 64/95/25 61/96/25
f 107/57/56 62/56/56 58/94/56
f 105/54/57 59/53/57 64/95/57
f 60/52/58 106/51/58 61/96/58
f 69/85/59 72/92/59 92/91/59 89/86/59
f 114/66/60 4/68/60 74/97/60 75/98/60
f 18/99/61 114/100/61 75/101/61 76/102/61
f 4/68/62 9/74/62 73/80/62 74/97/62
f 8/78/63 114/77/63 80/103/63 77/104/63
f 114/100/64 18/99/64 79/105/64 80/106/64
f 18/71/35 10/70/35 78/107/35 79/108/35
f 65/109/65 66/110/65 74/97/65 73/80/65
f 66/110/65 67/111/65 75/101/65 74/97/65
f 68/112/65 65/109/65 73/80/65 76/102/65
f 67/111/65 68/112/65 76/102/65 75/101/65
f 69/85/66 70/88/66 78/113/66 77/114/66
f 70/88/66 71/89/66 79/105/66 78/113/66
f 72/92/66 69/85/66 77/114/66 80/106/66
f 71/89/66 72/92/66 80/106/66 79/105/66
f 68/112/67 67/111/67 87/115/67 88/116/67
f 65/109/68 68/112/68 88/116/68 85/117/68
f 90/87/68 91/90/68 71/89/68 70/88/68
f 66/110/69 86/118/69 87/115/69 67/111/69
f 81/119/70 82/120/70 102/121/70 101/122/70
f 82/120/71 84/123/71 104/124/71 102/121/71
f 84/123/72 83/125/72 103/126/72 104/124/72
f 83/125/73 81/119/73 101/122/73 103/126/73
f 65/109/74 85/117/74 86/118/74 66/110/74
f 17/127/75 41/128/75 110/82/75 109/31/75
f 41/128/76 42/129/76 111/76/76 110/82/76
f 45/130/77 48/131/77 113/81/77 112/67/77
f 48/131/78 17/127/78 109/31/78 113/81/78
f 19/132/79 45/130/79 112/67/79 114/66/79
f 42/129/80 19/132/80 114/66/80 111/76/80
usemtl Blue
f 41/128/81 17/127/81 19/132/81 42/129/81
f 17/127/82 48/131/82 45/130/82 19/132/82
f 86/118/65 85/117/65 88/116/65 87/115/65
f 92/91/66 91/90/66 90/87/66 89/86/66
f 101/122/83 104/124/83 103/126/83
f 101/122/83 102/121/83 104/124/83
usemtl added
f 25/20/84 35/49/84 110/83/84 111/84/84
f 26/44/85 36/43/85 43/133/85 44/134/85
f 28/25/86 26/44/86 44/134/86
f 25/20/87 111/84/87 46/135/87
f 33/47/88 27/21/88 46/135/88 47/136/88
f 34/26/89 28/25/89 112/67/89 113/81/89
f 34/26/90 113/81/90 43/133/90
f 35/49/91 33/47/91 47/136/91
f 27/21/92 25/20/92 46/135/92
f 112/67/93 28/25/93 44/134/93
f 39/37/94 95/137/94 96/138/94
f 82/120/95 81/119/95 97/139/95
f 82/120/96 98/140/96 100/141/96
f 38/33/97 94/142/97 93/143/97
f 96/138/98 95/137/98 99/144/98 100/141/98
f 93/143/99 94/142/99 98/145/99 97/146/99
f 94/147/100 96/138/100 100/141/100 98/140/100
f 95/137/101 93/148/101 97/149/101 99/144/101
f 39/37/102 37/42/102 93/148/102
f 83/125/103 84/123/103 100/141/103
f 83/125/104 99/144/104 97/139/104
f 38/40/105 40/38/105 96/138/105
f 94/147/106 38/40/106 96/138/106
f 40/38/102 39/37/102 96/138/102
f 95/137/107 39/37/107 93/148/107
f 37/34/105 38/33/105 93/143/105
f 99/144/108 83/125/108 100/141/108
f 84/123/109 82/120/109 100/141/109
f 98/140/110 82/120/110 97/139/110
f 81/119/111 83/125/111 97/139/111
f 110/83/112 35/49/112 47/136/112
f 36/43/113 34/26/113 43/133/113
usemtl colour2
f 110/83/114 47/136/114 12/75/114
f 112/67/115 44/134/115 9/74/115
f 29/24/116 3/8/116 9/74/116 44/134/116
f 30/150/117 5/12/117 12/73/117 47/151/117
f 7/6/118 30/5/118 46/152/118 10/70/118
f 29/24/119 44/134/119 43/133/119
f 10/62/120 46/135/120 111/84/120
f 11/69/121 43/133/121 113/81/121
f 1/15/122 29/17/122 43/133/122 11/69/122
f 30/150/123 47/151/123 46/152/123
o Cylinder
v 0.177293 0.596436 0.102360
v 0.177293 0.683800 0.102360
v -0.177293 0.596436 0.102360
v -0.177293 0.683800 0.102360
v -0.000000 0.596436 -0.204720
v -0.000000 0.683800 -0.204720
v 0.954672 0.629197 -0.551180
v 0.954672 0.651038 -0.551180
v 0.910349 0.651038 -0.627950
v 0.910349 0.629197 -0.627950
v 0.088647 0.629197 1.102360
v 0.000000 0.629197 1.102360
v 0.000000 0.651038 1.102360
v 0.088647 0.651038 1.102360
v -0.998995 0.651038 -0.474410
v -0.998995 0.629197 -0.474410
v -0.954672 0.629197 -0.551180
v -0.954672 0.651038 -0.551180
v -0.087625 0.661959 -0.152950
v -0.176271 0.661959 0.000590
v -0.176271 0.618277 0.000590
v -0.087625 0.618277 -0.152950
v 0.176271 0.618277 0.000590
v 0.176271 0.661959 0.000590
v 0.087624 0.618277 -0.152950
v 0.087624 0.661959 -0.152950
v 0.088646 0.661959 0.152360
v 0.088646 0.618277 0.152360
v -0.088646 0.618277 0.152360
v -0.088646 0.661959 0.152360
vt 0.457846 0.130000
vt 0.250000 0.490000
vt 0.042154 0.130000
vt 0.750000 0.490000
vt 0.957846 0.130000
vt 0.542154 0.130000
vt 0.957846 0.130000
vt 0.542154 0.130000
vt 0.333333 1.000000
vt 0.333333 0.500000
vt 0.333333 0.500000
vt 0.333333 1.000000
vt 0.666667 0.500000
vt 0.666667 1.000000
vt 0.666667 1.000000
vt 0.666667 0.500000
vt 0.042154 0.130000
vt 0.457846 0.130000
vt 0.333333 1.000000
vt 0.333333 0.500000
vt 0.250000 0.490000
vt 0.042154 0.130000
vt 0.542154 0.130000
vt 0.750000 0.490000
vt 1.000000 1.000000
vt 1.000000 0.500000
vt 1.000000 0.500000
vt 1.000000 1.000000
vt 0.457846 0.130000
vt 0.250000 0.490000
vt 0.666667 0.500000
vt 0.666667 1.000000
vt 0.750000 0.490000
vt 0.957846 0.130000
vt 1.000000 1.000000
vt 1.000000 0.500000
vt 1.000000 1.000000
vt 1.000000 0.500000
vt 0.250000 0.130000
vt 0.457846 0.130000
vt 1.000000 0.500000
vt 1.000000 1.000000
vt 0.333333 0.500000
vt 0.333333 1.000000
vt 0.166667 1.000000
vt 0.166667 0.500000
vt 0.542154 0.130000
vt 0.646077 0.310000
vt 0.146077 0.310000
vt 0.042154 0.130000
vt 0.833333 1.000000
vt 0.833333 0.500000
vt 0.750000 0.490000
vt 0.853923 0.310000
vt 0.353923 0.310000
vt 0.250000 0.490000
vt 0.666667 0.500000
vt 0.666667 1.000000
vt 0.500000 1.000000
vt 0.500000 0.500000
vt 0.957846 0.130000
vt 0.750000 0.130000
vn -0.0000 1.0000 0.0000
vn 0.0000 -1.0000 -0.0000
vn -0.3467 -0.9164 -0.2001
vn -0.5087 0.0000 -0.8610
vn -0.9999 0.0000 -0.0100
vn -0.3467 0.9164 -0.2001
vn 0.5087 0.0000 -0.8610
vn 0.3467 0.9164 -0.2001
vn 0.3467 -0.9164 -0.2001
vn 0.9999 -0.0000 -0.0100
vn 0.0000 0.9164 0.4003
vn -0.4913 0.0000 0.8710
vn 0.0000 -0.9164 0.4003
vn 0.4913 0.0000 0.8710
vn 1.0000 0.0000 -0.0000
vn -0.0100 0.9999 -0.0057
vn 0.5783 0.0000 0.8158
vn 0.8660 0.0000 -0.5000
vn 0.0100 -0.9999 -0.0057
vn 0.0100 0.9999 -0.0057
vn -0.5000 0.0000 -0.8660
vn 0.0000 0.0000 1.0000
vn 0.0000 -0.9999 0.0115
vn -0.9957 0.0000 0.0929
vn 0.0000 0.9999 0.0115
vn -0.8660 0.0000 -0.5000
vn -0.5000 0.0000 0.8660
vn 0.4174 0.0000 -0.9087
vn -0.0100 -0.9999 -0.0057
usemtl black
s off
f 126/153/124 124/154/124 128/155/124
f 123/156/125 125/157/125 127/158/125
f 127/158/126 125/157/126 143/159/126 144/160/126
f 128/161/127 127/162/127 144/163/127 141/164/127
f 125/165/128 126/166/128 142/167/128 143/168/128
f 126/153/129 128/155/129 141/169/129 142/170/129
f 127/162/130 128/161/130 148/171/130 147/172/130
f 128/155/131 124/154/131 146/173/131 148/174/131
f 123/156/132 127/158/132 147/175/132 145/176/132
f 124/177/133 123/178/133 145/179/133 146/180/133
f 124/154/134 126/153/134 152/181/134 149/182/134
f 126/166/135 125/165/135 151/183/135 152/184/135
f 125/157/136 123/156/136 150/185/136 151/186/136
f 123/178/137 124/177/137 149/187/137 150/188/137
usemtl added
f 150/188/138 149/187/138 136/189/138 133/190/138
f 142/170/139 141/169/139 140/191/139 137/192/139
f 146/180/140 145/179/140 129/193/140 130/194/140
f 132/195/141 131/196/141 130/197/141 129/198/141
f 145/176/142 147/175/142 132/199/142 129/200/142
f 148/174/143 146/173/143 130/201/143 131/202/143
f 147/172/144 148/171/144 131/196/144 132/195/144
f 133/190/145 136/189/145 135/203/145 134/204/145
f 151/186/146 150/185/146 133/205/146 134/206/146
f 152/184/147 151/183/147 134/204/147 135/203/147
f 149/182/148 152/181/148 135/207/148 136/208/148
f 138/209/149 137/210/149 140/211/149 139/212/149
f 143/168/150 142/167/150 137/210/150 138/209/150
f 141/164/151 144/163/151 139/212/151 140/211/151
f 144/160/152 143/159/152 138/213/152 139/214/152
