# Blender v2.91.0 OBJ File: 'shieldDrone.blend'
# www.blender.org
mtllib shield1.mtl
o Sphere_Sphere.001
v 0.000000 -0.000000 -0.086693
v -0.000000 0.263868 0.000000
v 0.040590 0.138582 -0.086693
v 0.084880 0.095473 -0.068235
v 0.097863 0.067995 -0.081217
v 0.106066 -0.000000 -0.086693
v 0.097992 -0.057403 -0.086693
v 0.075000 -0.112712 -0.095969
v 0.040590 -0.134199 -0.080575
v 0.100978 0.243782 -0.000000
v 0.197658 0.167164 -0.000000
v 0.243782 0.100978 -0.000000
v 0.263868 -0.000000 -0.000000
v 0.243782 -0.100978 -0.000000
v 0.186583 -0.186583 -0.000000
v 0.100978 -0.244760 -0.001364
v -0.000000 -0.258033 0.008145
v 0.040590 0.138582 0.040590
v 0.084880 0.095473 0.068235
v 0.097863 0.067995 0.081217
v 0.106066 -0.000000 0.102893
v 0.097992 -0.057403 0.102893
v 0.075000 -0.106066 0.102893
v 0.040590 -0.138582 0.040590
v 0.000000 0.138582 0.057402
v 0.000000 0.106066 0.102893
v 0.000000 0.057403 0.102893
v 0.000000 -0.000000 0.102893
v 0.000000 -0.057403 0.102893
v 0.000000 -0.106066 0.102893
v 0.000000 -0.138582 0.057402
v -0.040590 0.138582 0.040590
v -0.084880 0.095473 0.068235
v -0.097863 0.067995 0.081217
v -0.106066 -0.000000 0.102893
v -0.097992 -0.057403 0.102893
v -0.075000 -0.106066 0.102893
v -0.040590 -0.138582 0.040590
v -0.100978 0.243782 -0.000000
v -0.197658 0.167164 -0.000000
v -0.243782 0.100978 -0.000000
v -0.263868 -0.000000 -0.000000
v -0.243782 -0.100978 -0.000000
v -0.186583 -0.186583 -0.000000
v -0.100978 -0.244760 -0.001364
v -0.040590 0.138582 -0.086693
v -0.084880 0.095473 -0.068235
v -0.097863 0.067995 -0.081217
v -0.106066 -0.000000 -0.086693
v -0.097992 -0.057403 -0.086693
v -0.075000 -0.112712 -0.095969
v -0.040590 -0.134199 -0.080575
v -0.000000 0.138582 -0.086693
v -0.000000 0.106066 -0.086693
v -0.000000 0.057403 -0.086693
v -0.000000 -0.057403 -0.086693
v -0.000000 -0.112712 -0.095969
v -0.000000 -0.134199 -0.080575
v 0.094911 -0.127708 -0.081029
v 0.071950 -0.171416 -0.060699
v 0.123775 -0.171767 -0.019422
v 0.079929 -0.206445 -0.023553
v 0.092785 -0.170326 0.117937
v 0.058375 -0.202842 0.083527
v 0.000000 -0.172006 0.150125
v 0.000000 -0.204522 0.101462
v -0.092785 -0.170326 0.117937
v -0.058375 -0.202842 0.083527
v -0.123775 -0.171767 -0.019422
v -0.079929 -0.206445 -0.023553
v -0.094911 -0.127708 -0.081029
v -0.071950 -0.171416 -0.060699
v 0.075000 0.106066 -0.086693
v 0.097992 0.057403 -0.086693
v 0.232707 0.120397 -0.000000
v 0.186583 0.186583 -0.000000
v 0.075000 0.106066 0.102893
v 0.097992 0.057403 0.102893
v -0.075000 0.106066 0.102893
v -0.097992 0.057403 0.102893
v -0.232707 0.120397 -0.000000
v -0.186583 0.186583 -0.000000
v -0.075000 0.106066 -0.086693
v -0.097992 0.057403 -0.086693
v 0.199718 0.167164 -0.000000
v 0.235133 0.120397 -0.000000
v -0.199718 0.167164 -0.000000
v -0.235133 0.120397 -0.000000
v 0.085765 0.095473 -0.068235
v 0.098883 0.067995 -0.081217
v 0.085765 0.095473 0.068235
v 0.098883 0.067995 0.081217
v -0.085765 0.095473 0.068235
v -0.098883 0.067995 0.081217
v -0.085765 0.095473 -0.068235
v -0.098883 0.067995 -0.081217
vt 0.750000 0.875000
vt 0.687500 1.000000
vt 0.625000 0.875000
vt 0.687500 0.000000
vt 0.750000 0.125000
vt 0.625000 0.125000
vt 0.750000 0.500000
vt 0.750000 0.625000
vt 0.625000 0.625000
vt 0.625000 0.500000
vt 0.750000 0.750000
vt 0.625000 0.750000
vt 0.750000 0.250000
vt 0.625000 0.250000
vt 0.750000 0.375000
vt 0.625000 0.375000
vt 0.500000 0.625000
vt 0.500000 0.500000
vt 0.500000 0.875000
vt 0.500000 0.750000
vt 0.500000 0.375000
vt 0.562500 1.000000
vt 0.562500 0.000000
vt 0.500000 0.125000
vt 0.500000 0.250000
vt 0.375000 0.250000
vt 0.375000 0.125000
vt 0.375000 0.500000
vt 0.375000 0.375000
vt 0.437500 1.000000
vt 0.375000 0.875000
vt 0.437500 0.000000
vt 0.375000 0.625000
vt 0.375000 0.750000
vt 0.250000 0.500000
vt 0.250000 0.375000
vt 0.312500 1.000000
vt 0.250000 0.875000
vt 0.312500 0.000000
vt 0.250000 0.125000
vt 0.250000 0.625000
vt 0.250000 0.750000
vt 0.187500 0.000000
vt 0.125000 0.125000
vt 0.125000 0.625000
vt 0.125000 0.500000
vt 0.125000 0.875000
vt 0.125000 0.750000
vt 0.125000 0.375000
vt 0.187500 1.000000
vt 0.000000 0.625000
vt 0.000000 0.500000
vt 0.000000 0.875000
vt 0.000000 0.750000
vt 0.125000 0.250000
vt 0.000000 0.250000
vt 0.000000 0.125000
vt 0.000000 0.375000
vt 0.062500 1.000000
vt 0.062500 0.000000
vt 1.000000 0.375000
vt 1.000000 0.500000
vt 0.875000 0.500000
vt 0.875000 0.375000
vt 1.000000 0.875000
vt 0.937500 1.000000
vt 0.875000 0.875000
vt 0.937500 0.000000
vt 1.000000 0.125000
vt 0.875000 0.125000
vt 1.000000 0.625000
vt 0.875000 0.625000
vt 1.000000 0.750000
vt 0.875000 0.750000
vt 0.812500 1.000000
vt 0.812500 0.000000
vt 0.875000 0.250000
vt 0.625000 0.250000
vt 0.625000 0.125000
vt 0.500000 0.125000
vt 0.500000 0.250000
vt 0.875000 0.125000
vt 0.875000 0.250000
vt 0.375000 0.250000
vt 0.375000 0.125000
vt 1.000000 0.125000
vt 0.000000 0.250000
vt 0.000000 0.125000
vt 1.000000 0.250000
vt 1.000000 0.250000
vt 0.125000 0.125000
vt 0.125000 0.250000
vt 0.250000 0.125000
vt 0.250000 0.250000
vt 0.250000 0.250000
vt -0.000386 0.652210
vt 0.108972 0.652210
vt 0.108972 0.652210
vt -0.000386 0.652210
vt 0.608972 0.652210
vt 0.607185 0.722790
vt 0.607185 0.722790
vt 0.608972 0.652210
vt 0.891028 0.652210
vt 1.000386 0.652210
vt 1.000386 0.652210
vt 0.891028 0.652210
vt 0.392815 0.722791
vt 0.391028 0.652210
vt 0.391028 0.652210
vt 0.392815 0.722791
vt 0.499597 0.722790
vt 0.500386 0.652210
vt 0.107185 0.722791
vt 0.000403 0.722790
vt 0.999597 0.722790
vt 0.892815 0.722790
vt 0.500386 0.652210
vt 0.999597 0.722790
vt 0.892815 0.722790
vt 0.107185 0.722791
vt 0.000403 0.722790
vt 0.499597 0.722790
vn 0.0000 0.5690 -0.8223
vn -0.0000 -0.5824 -0.8129
vn 0.0000 -0.0000 -1.0000
vn 0.4847 0.0862 -0.8704
vn 0.3396 0.4544 -0.8235
vn 0.4847 -0.0862 -0.8704
vn 0.1175 0.5905 -0.7984
vn 0.0264 -0.5975 0.8014
vn 0.5488 -0.0976 0.8303
vn 0.0650 0.3265 0.9430
vn 0.1285 -0.3004 0.9451
vn 0.5488 0.0976 0.8303
vn 0.0277 0.5949 0.8033
vn 0.0000 0.0000 1.0000
vn 0.3524 0.3898 0.8508
vn 0.3576 -0.3560 0.8633
vn 0.0725 0.8641 0.4982
vn -0.3576 -0.3560 0.8633
vn -0.0725 0.8641 0.4982
vn -0.3524 0.3898 0.8508
vn -0.5488 0.0976 0.8303
vn -0.0277 0.5949 0.8033
vn -0.0264 -0.5975 0.8014
vn -0.5488 -0.0976 0.8303
vn -0.0650 0.3265 0.9430
vn -0.1285 -0.3004 0.9451
vn -0.4847 -0.0862 -0.8704
vn -0.1175 0.5905 -0.7984
vn -0.4847 0.0862 -0.8704
vn -0.3396 0.4544 -0.8235
vn 0.0545 -0.5163 -0.8547
vn 0.2594 -0.3075 -0.9155
vn -0.0545 -0.5163 -0.8547
vn 0.8232 -0.0280 -0.5670
vn 0.1000 -0.6494 -0.7538
vn -0.1000 -0.6494 -0.7538
vn -0.2594 -0.3075 -0.9155
vn -0.0698 -0.7678 -0.6368
vn 0.0698 -0.7678 -0.6368
vn -0.8232 -0.0280 -0.5670
vn -0.2659 -0.5604 -0.7844
vn 0.2659 -0.5604 -0.7844
vn 0.1645 0.4438 0.8809
vn -0.1645 0.4438 0.8809
vn 0.0000 -0.8403 -0.5422
vn 0.0000 0.4272 -0.9042
vn 0.0000 -0.8403 0.5422
vn 0.0000 0.4272 0.9042
vn 0.5103 -0.5683 -0.6455
vn 0.2007 -0.8100 0.5510
vn -0.2007 -0.8100 0.5510
vn -0.5103 -0.5683 -0.6455
vn 0.3342 0.3700 -0.8668
vn 0.3342 0.3700 0.8668
vn -0.3342 0.3700 0.8668
vn -0.3342 0.3700 -0.8668
vn 0.0000 0.6894 -0.7244
vn 0.0000 0.6894 0.7244
vn 0.0000 0.1654 -0.9862
vn 0.4934 -0.2255 -0.8401
vn 0.5031 -0.3005 0.8103
vn -0.5031 -0.3005 0.8103
vn -0.4934 -0.2255 -0.8401
vn 0.8277 0.4486 -0.3372
vn 0.4082 0.3091 -0.8590
vn 0.5993 -0.0719 -0.7973
vn 0.8832 0.4434 0.1529
vn 0.2655 0.6277 0.7318
vn 0.6950 -0.2797 0.6624
vn -0.8832 0.4434 0.1529
vn -0.2655 0.6277 0.7318
vn -0.6950 -0.2797 0.6624
vn -0.8277 0.4486 -0.3372
vn -0.4082 0.3091 -0.8590
vn -0.5993 -0.0719 -0.7973
usemtl Base
s off
f 53/1/1 2/2/1 3/3/1
f 17/4/2 58/5/2 9/6/2
f 1/7/3 55/8/3 74/9/3 6/10/3
f 54/11/3 53/1/3 3/3/3 73/12/3
f 58/5/2 57/13/2 8/14/2 9/6/2
f 56/15/3 1/7/3 6/10/3 7/16/3
f 6/10/4 74/9/4 12/17/4 13/18/4
f 73/12/5 3/3/5 10/19/5 76/20/5
f 7/16/6 6/10/6 13/18/6 14/21/6
f 3/3/7 2/22/7 10/19/7
f 17/23/2 9/6/2 16/24/2
f 16/24/8 15/25/8 23/26/8 24/27/8
f 14/21/9 13/18/9 21/28/9 22/29/9
f 10/19/10 2/30/10 18/31/10
f 17/32/11 16/24/11 24/27/11
f 13/18/12 12/17/12 78/33/12 21/28/12
f 76/20/13 10/19/13 18/31/13 77/34/13
f 22/29/14 21/28/14 28/35/14 29/36/14
f 18/31/15 2/37/15 25/38/15
f 17/39/16 24/27/16 31/40/16
f 21/28/14 78/33/14 27/41/14 28/35/14
f 77/34/17 18/31/17 25/38/17 26/42/17
f 17/43/18 31/40/18 38/44/18
f 28/35/14 27/41/14 80/45/14 35/46/14
f 26/42/19 25/38/19 32/47/19 79/48/19
f 29/36/14 28/35/14 35/46/14 36/49/14
f 25/38/20 2/50/20 32/47/20
f 35/46/21 80/45/21 41/51/21 42/52/21
f 79/48/22 32/47/22 39/53/22 82/54/22
f 38/44/23 37/55/23 44/56/23 45/57/23
f 36/49/24 35/46/24 42/52/24 43/58/24
f 32/47/25 2/59/25 39/53/25
f 17/60/26 38/44/26 45/57/26
f 43/61/27 42/62/27 49/63/27 50/64/27
f 39/65/28 2/66/28 46/67/28
f 17/68/2 45/69/2 52/70/2
f 42/62/29 41/71/29 84/72/29 49/63/29
f 82/73/30 39/65/30 46/67/30 83/74/30
f 46/67/1 2/75/1 53/1/1
f 17/76/2 52/70/2 58/5/2
f 49/63/3 84/72/3 55/8/3 1/7/3
f 83/74/3 46/67/3 53/1/3 54/11/3
f 52/70/2 51/77/2 57/13/2 58/5/2
f 50/64/3 49/63/3 1/7/3 56/15/3
usemtl Black
f 9/6/31 8/14/31 59/78/31 60/79/31
f 15/25/32 16/24/32 62/80/32 61/81/32
f 51/77/33 52/70/33 72/82/33 71/83/33
f 24/27/34 23/26/34 63/84/34 64/85/34
f 52/70/35 45/69/35 70/86/35 72/82/35
f 16/24/36 9/6/36 60/79/36 62/80/36
f 45/57/37 44/56/37 69/87/37 70/88/37
f 44/89/38 51/77/38 71/83/38 69/90/38
f 8/14/39 15/25/39 61/81/39 59/78/39
f 37/55/40 38/44/40 68/91/40 67/92/40
f 31/40/41 24/27/41 64/85/41 66/93/41
f 38/44/42 31/40/42 66/93/42 68/91/42
f 23/26/43 30/94/43 65/95/43 63/84/43
f 30/94/44 37/55/44 67/92/44 65/95/44
usemtl Blue
f 81/96/45 34/97/45 94/98/45 88/99/45
f 5/100/46 4/101/46 89/102/46 90/103/46
f 48/104/47 81/105/47 88/106/47 96/107/47
f 19/108/48 20/109/48 92/110/48 91/111/48
f 60/79/49 59/78/49 61/81/49 62/80/49
f 64/85/50 63/84/50 65/95/50 66/93/50
f 66/93/51 65/95/51 67/92/51 68/91/51
f 70/86/52 69/90/52 71/83/52 72/82/52
f 90/103/53 89/102/53 85/112/53 86/113/53
f 86/113/54 85/112/54 91/111/54 92/110/54
f 94/98/55 93/114/55 87/115/55 88/99/55
f 88/106/56 87/116/56 95/117/56 96/107/56
f 20/109/45 75/118/45 86/113/45 92/110/45
f 40/119/57 47/120/57 95/117/57 87/116/57
f 75/118/47 5/100/47 90/103/47 86/113/47
f 33/121/58 40/122/58 87/115/58 93/114/58
f 11/123/58 19/108/58 91/111/58 85/112/58
f 4/101/57 11/123/57 85/112/57 89/102/57
f 47/120/46 48/104/46 96/107/46 95/117/46
f 34/97/48 33/121/48 93/114/48 94/98/48
usemtl white
f 55/8/3 54/11/3 73/12/3 74/9/3
f 57/13/59 56/15/59 7/16/59 8/14/59
f 8/14/60 7/16/60 14/21/60 15/25/60
f 15/25/61 14/21/61 22/29/61 23/26/61
f 78/33/14 77/34/14 26/42/14 27/41/14
f 23/26/14 22/29/14 29/36/14 30/94/14
f 30/94/14 29/36/14 36/49/14 37/55/14
f 27/41/14 26/42/14 79/48/14 80/45/14
f 37/55/62 36/49/62 43/58/62 44/56/62
f 44/89/63 43/61/63 50/64/63 51/77/63
f 84/72/3 83/74/3 54/11/3 55/8/3
f 51/77/59 50/64/59 56/15/59 57/13/59
f 4/101/64 5/100/64 74/9/64 73/12/64
f 5/100/65 75/118/65 12/17/65 74/9/65
f 11/123/66 4/101/66 73/12/66 76/20/66
f 20/109/67 19/108/67 77/34/67 78/33/67
f 75/118/68 20/109/68 78/33/68 12/17/68
f 19/108/69 11/123/69 76/20/69 77/34/69
f 33/121/70 34/97/70 80/45/70 79/48/70
f 34/97/71 81/96/71 41/51/71 80/45/71
f 40/122/72 33/121/72 79/48/72 82/54/72
f 48/104/73 47/120/73 83/74/73 84/72/73
f 81/105/74 48/104/74 84/72/74 41/71/74
f 47/120/75 40/119/75 82/73/75 83/74/75
