# Blender v2.91.0 OBJ File: 'Item_Spawner.blend'
# www.blender.org
mtllib spawner5.mtl
o Cone
v -0.924725 0.000388 -0.380636
v -0.384729 0.000388 -0.923030
v -0.000000 0.000388 0.000000
v -0.923030 0.000388 0.384729
v -0.000000 0.000388 0.000000
v 0.924725 0.000388 0.380636
v 0.923030 0.000388 -0.384729
v 0.380636 0.000388 -0.924725
v -0.000000 0.000388 0.000000
v 0.384729 0.000388 0.923030
v -0.380636 0.000388 0.924725
v -0.000000 0.000388 0.000000
v -0.301391 0.397972 -0.124059
v -0.124059 0.397972 0.301391
v 0.300838 0.397972 -0.125393
v 0.124059 0.397972 -0.301391
v 0.125392 0.397972 0.300838
v 0.301391 0.397972 0.124059
v -0.300838 0.397972 0.125393
v -0.125393 0.397972 -0.300838
v 0.384729 0.132378 0.923030
v 0.924725 0.132378 0.380636
v -0.380636 0.132378 0.924725
v 0.923030 0.132378 -0.384729
v 0.380636 0.132378 -0.924725
v -0.924725 0.132378 -0.380636
v -0.923030 0.132378 0.384729
v -0.384729 0.132378 -0.923030
v 0.055436 0.397972 0.133002
v 0.133246 0.397972 0.054847
v -0.054847 0.397972 0.133246
v 0.133002 0.397972 -0.055437
v 0.054847 0.397972 -0.133246
v -0.133246 0.397972 -0.054847
v -0.133002 0.397972 0.055437
v -0.055436 0.397972 -0.133002
v -0.000000 0.370008 0.000000
v 0.054847 0.370008 -0.133246
v -0.054847 0.370008 0.133246
v -0.133002 0.370008 0.055437
v 0.133002 0.370008 -0.055437
v 0.133246 0.370008 0.054847
v -0.133246 0.370008 -0.054847
v -0.055436 0.370008 -0.133002
v 0.055436 0.370008 0.133002
v 0.384729 0.004568 0.893965
v -0.380636 0.004964 0.892317
v 0.000000 -0.209622 1.791801
v 0.000521 -0.155048 1.563039
v -0.246141 -0.015991 0.980150
v 0.249835 -0.016247 0.981218
v 0.000521 -0.138711 1.566958
v -0.246141 0.000346 0.984069
v 0.249835 0.000090 0.985138
v 0.384729 0.132945 0.924764
v -0.380636 0.133341 0.923116
v -0.000000 -0.126345 1.569261
v 0.904004 0.004052 0.360169
v 0.361730 0.005489 0.900283
v 1.266764 -0.209614 1.267226
v 1.105400 -0.155041 1.105072
v 0.518915 -0.015648 0.867284
v 0.870322 -0.016579 0.517275
v 1.108187 -0.138704 1.107828
v 0.521702 0.000688 0.870039
v 0.873110 -0.000242 0.520031
v 0.925909 0.132430 0.381820
v 0.383635 0.133866 0.921934
v 1.109460 -0.126337 1.109812
v 0.893647 0.001858 -0.383777
v 0.892641 0.007730 0.381567
v 1.791805 -0.209578 0.001721
v 1.563043 -0.155008 0.001001
v 0.980362 -0.014187 0.247152
v 0.981013 -0.017992 -0.248811
v 1.566963 -0.138671 0.000881
v 0.984281 0.002150 0.247031
v 0.984933 -0.001656 -0.248931
v 0.924446 0.130232 -0.384721
v 0.923440 0.136104 0.380622
v 1.569266 -0.126302 0.001312
v 0.359521 0.008120 -0.905327
v 0.898933 0.001360 -0.362395
v 1.265401 -0.209665 -1.268580
v 1.103457 -0.155086 -1.107007
v 0.865976 -0.018337 -0.519775
v 0.516423 -0.013956 -0.871610
v 1.106339 -0.138750 -1.109667
v 0.868859 -0.002001 -0.522436
v 0.519305 0.002380 -0.874270
v 0.382171 0.136491 -0.926232
v 0.921583 0.129731 -0.383300
v 1.108419 -0.126390 -1.110843
v -0.385566 0.006408 -0.894183
v 0.379788 0.003095 -0.892099
v -0.001509 -0.209657 -1.791798
v -0.001860 -0.155078 -1.563038
v 0.245230 -0.017209 -0.980009
v -0.250739 -0.015062 -0.981359
v -0.001753 -0.138741 -1.566957
v 0.245338 -0.000872 -0.983928
v -0.250632 0.001275 -0.985279
v -0.384721 0.134783 -0.924981
v 0.380633 0.131470 -0.922896
v -0.001151 -0.126378 -1.569259
v -0.904447 0.005400 -0.359950
v -0.361947 0.004117 -0.899838
v -1.267366 -0.209633 -1.266620
v -1.105933 -0.155058 -1.104536
v -0.519198 -0.016542 -0.866852
v -0.870752 -0.015711 -0.516990
v -1.108678 -0.138721 -1.107334
v -0.521943 -0.000205 -0.869649
v -0.873497 0.000626 -0.519788
v -0.926020 0.133777 -0.381933
v -0.383520 0.132494 -0.921821
v -1.109919 -0.126357 -1.109350
v -0.894029 0.005108 0.384916
v -0.892252 0.004414 -0.380448
v -1.791799 -0.209629 0.000342
v -1.563038 -0.155054 0.000824
v -0.980107 -0.016349 -0.245938
v -0.981259 -0.015899 0.250038
v -1.566957 -0.138718 0.000800
v -0.984027 -0.000012 -0.245962
v -0.985179 0.000438 0.250014
v -0.924828 0.133485 0.384729
v -0.923051 0.132791 -0.380636
v -1.569260 -0.126352 0.000261
v -0.360037 0.004860 0.904270
v -0.900016 0.004666 0.361860
v -1.266863 -0.209626 1.267125
v -1.104751 -0.155051 1.105720
v -0.867024 -0.016184 0.519084
v -0.517104 -0.016059 0.870580
v -1.107531 -0.138714 1.108482
v -0.869805 0.000152 0.521847
v -0.519884 0.000278 0.873343
v -0.381887 0.133237 0.925976
v -0.921866 0.133044 0.383567
v -1.109535 -0.126349 1.109735
vt 0.000000 0.000000
vt 0.000000 0.000000
vt 0.000000 0.000000
vt 0.000000 0.000000
vt 0.000000 0.000000
vt 0.000000 0.000000
vt 0.000000 0.000000
vt 0.000000 0.000000
vt 0.000000 0.000000
vt 0.000000 0.000000
vt 0.000000 0.000000
vt 0.000000 0.000000
vt 0.000000 0.000000
vt 0.000000 0.000000
vt 0.000000 0.000000
vt 0.000000 0.000000
vt 0.000000 0.000000
vt 0.000000 0.000000
vt 0.000000 0.000000
vt 0.000000 0.000000
vt 0.000000 0.000000
vt 0.000000 0.000000
vt 0.000000 0.000000
vt 0.000000 0.000000
vt 0.018947 0.228400
vt 0.018947 0.228400
vt 0.010000 0.250000
vt 0.010000 0.250000
vt 0.064500 0.118426
vt 0.080294 0.080294
vt 0.010000 0.250000
vt 0.010000 0.250000
vt 0.080294 0.080294
vt 0.018947 0.228400
vt 0.018947 0.228400
vt 0.010000 0.250000
vt 0.010000 0.250000
vt 0.064500 0.118426
vt 0.080294 0.080294
vt 0.010000 0.250000
vt 0.010000 0.250000
vt 0.080294 0.080294
vt 0.018947 0.228400
vt 0.018947 0.228400
vt 0.010000 0.250000
vt 0.010000 0.250000
vt 0.064500 0.118426
vt 0.080294 0.080294
vt 0.010000 0.250000
vt 0.010000 0.250000
vt 0.080294 0.080294
vt 0.018947 0.228400
vt 0.018947 0.228400
vt 0.010000 0.250000
vt 0.010000 0.250000
vt 0.064500 0.118426
vt 0.080294 0.080294
vt 0.010000 0.250000
vt 0.010000 0.250000
vt 0.080294 0.080294
vt 0.018947 0.228400
vt 0.018947 0.228400
vt 0.010000 0.250000
vt 0.010000 0.250000
vt 0.064500 0.118426
vt 0.080294 0.080294
vt 0.010000 0.250000
vt 0.010000 0.250000
vt 0.080294 0.080294
vt 0.018947 0.228400
vt 0.018947 0.228400
vt 0.010000 0.250000
vt 0.010000 0.250000
vt 0.064500 0.118426
vt 0.080294 0.080294
vt 0.010000 0.250000
vt 0.010000 0.250000
vt 0.080294 0.080294
vt 0.018947 0.228400
vt 0.018947 0.228400
vt 0.010000 0.250000
vt 0.010000 0.250000
vt 0.064500 0.118426
vt 0.080294 0.080294
vt 0.010000 0.250000
vt 0.010000 0.250000
vt 0.080294 0.080294
vt 0.018947 0.228400
vt 0.018947 0.228400
vt 0.010000 0.250000
vt 0.010000 0.250000
vt 0.064500 0.118426
vt 0.080294 0.080294
vt 0.010000 0.250000
vt 0.010000 0.250000
vt 0.080294 0.080294
vt 0.750000 0.250000
vt 0.750000 0.010000
vt 0.580294 0.080294
vt 0.510000 0.250000
vt 0.750000 0.250000
vt 0.580294 0.080294
vt 0.510000 0.250000
vt 0.750000 0.250000
vt 0.580294 0.080294
vt 0.750000 0.010000
vt 0.750000 0.250000
vt 0.580294 0.080294
vt 0.000000 0.000000
vt 0.000000 0.000000
vt 0.000000 0.000000
vt 0.000000 0.000000
vt 0.000000 0.000000
vt 0.000000 0.000000
vt 0.000000 0.000000
vt 0.000000 0.000000
vt 0.000000 0.000000
vt 0.018947 0.228400
vt 0.018947 0.228400
vt 0.064500 0.118426
vt 0.018947 0.228400
vt 0.018947 0.228400
vt 0.064500 0.118426
vt 0.018947 0.228400
vt 0.018947 0.228400
vt 0.064500 0.118426
vt 0.018947 0.228400
vt 0.018947 0.228400
vt 0.064500 0.118426
vt 0.018947 0.228400
vt 0.018947 0.228400
vt 0.064500 0.118426
vt 0.018947 0.228400
vt 0.018947 0.228400
vt 0.064500 0.118426
vt 0.018947 0.228400
vt 0.018947 0.228400
vt 0.064500 0.118426
vt 0.018947 0.228400
vt 0.018947 0.228400
vt 0.064500 0.118426
vt 0.080294 0.080294
vt 0.010000 0.250000
vt 0.010000 0.250000
vt 0.080294 0.080294
vt 0.250000 0.010000
vt 0.250000 0.010000
vt 0.080294 0.080294
vt 0.080294 0.080294
vt 0.010000 0.250000
vt 0.010000 0.250000
vt 0.080294 0.080294
vt 0.080294 0.080294
vt 0.250000 0.010000
vt 0.250000 0.010000
vt 0.080294 0.080294
vt 0.080294 0.080294
vn 0.2780 0.9198 0.2768
vn 0.2768 0.9198 -0.2780
vn -0.2768 0.9198 0.2780
vn -0.2780 0.9198 -0.2768
vn 0.0000 1.0000 0.0000
vn -0.0000 -0.9727 -0.2321
vn -0.2875 0.8970 0.3357
vn 0.0022 0.2333 -0.9724
vn -0.0003 0.9278 0.3731
vn -0.8753 -0.1128 0.4703
vn -0.1650 -0.9727 -0.1631
vn 0.0350 0.8974 0.4398
vn -0.6859 0.2333 -0.6893
vn 0.2645 0.9278 0.2631
vn -0.2863 -0.1116 0.9516
vn -0.2321 -0.9727 0.0072
vn 0.3359 0.8991 0.2808
vn -0.9724 0.2333 -0.0031
vn 0.3731 0.9278 -0.0066
vn 0.4710 -0.1066 0.8757
vn -0.1707 -0.9727 0.1575
vn 0.4466 0.8943 -0.0276
vn -0.6884 0.2333 0.6868
vn 0.2705 0.9278 -0.2571
vn 0.9504 -0.1210 0.2867
vn -0.0048 -0.9727 0.2321
vn 0.2922 0.8955 -0.3356
vn -0.0016 0.2333 0.9724
vn 0.0050 0.9278 -0.3731
vn 0.8749 -0.1184 -0.4696
vn 0.1625 -0.9727 0.1656
vn -0.0325 0.8964 -0.4421
vn 0.6862 0.2333 0.6890
vn -0.2621 0.9278 -0.2655
vn 0.2865 -0.1147 -0.9512
vn 0.2321 -0.9727 0.0014
vn -0.3356 0.8966 -0.2889
vn 0.9724 0.2333 0.0020
vn -0.3731 0.9278 -0.0017
vn -0.4701 -0.1141 -0.8752
vn 0.1646 -0.9727 -0.1635
vn -0.4412 0.8968 0.0335
vn 0.6891 0.2333 -0.6861
vn -0.2646 0.9278 0.2630
vn -0.9514 -0.1135 -0.2864
vn 0.0000 -1.0000 -0.0000
vn 0.9247 0.0888 -0.3701
vn -0.0022 -0.2333 0.9724
vn -0.9230 0.0898 -0.3741
vn 0.3921 0.0875 -0.9158
vn 0.6859 -0.2333 0.6893
vn -0.9171 0.0910 0.3882
vn -0.3709 0.0822 -0.9250
vn 0.9724 -0.2333 0.0031
vn -0.3733 0.0964 0.9227
vn -0.9146 0.0974 -0.3925
vn 0.6884 -0.2333 -0.6868
vn 0.3877 0.0811 0.9182
vn -0.9244 0.0947 0.3694
vn 0.0016 -0.2333 -0.9724
vn 0.9233 0.0839 0.3749
vn -0.3923 0.0908 0.9154
vn -0.6862 -0.2333 -0.6890
vn 0.9175 0.0877 -0.3880
vn 0.3700 0.0901 0.9247
vn -0.9724 -0.2333 -0.0020
vn 0.3743 0.0884 -0.9231
vn 0.9155 0.0895 0.3922
vn -0.6891 -0.2333 0.6861
vn -0.3881 0.0890 -0.9173
vn 0.0009 0.9198 0.3923
vn 0.3923 0.9198 -0.0009
vn -0.3923 0.9198 0.0009
vn -0.0009 0.9198 -0.3923
vn -0.0022 0.0000 -1.0000
vn -0.7087 0.0000 -0.7055
vn -0.7055 0.0000 0.7087
vn -1.0000 0.0000 0.0022
vn 0.7055 0.0000 -0.7087
vn 1.0000 0.0000 -0.0022
vn 0.0022 0.0000 1.0000
vn 0.7087 0.0000 0.7055
vn 0.8726 -0.1140 0.4750
vn 0.2843 0.8979 0.3360
vn 0.9527 -0.1151 -0.2811
vn 0.4395 0.8975 0.0357
vn 0.4743 -0.1202 -0.8721
vn 0.3358 0.8959 -0.2910
vn -0.2808 -0.1058 -0.9539
vn 0.0430 0.9006 -0.4326
vn -0.8729 -0.1084 -0.4757
vn -0.2796 0.8994 -0.3361
vn -0.9531 -0.1120 0.2810
vn -0.4372 0.8986 -0.0381
vn -0.4752 -0.1127 0.8726
vn -0.3361 0.8983 0.2829
vn 0.2811 -0.1133 0.9530
vn -0.0371 0.8982 0.4381
usemtl Material.001
s off
f 17/1/1 21/2/1 22/3/1 18/4/1
f 15/5/2 24/6/2 25/7/2 16/8/2
f 19/9/3 27/10/3 23/11/3 14/12/3
f 20/13/4 28/14/4 26/15/4 13/16/4
f 29/17/5 17/1/5 18/4/5 30/18/5
f 31/19/5 14/12/5 17/1/5 29/17/5
f 30/18/5 18/4/5 15/5/5 32/20/5
f 32/20/5 15/5/5 16/8/5 33/21/5
f 34/22/5 13/16/5 19/9/5 35/23/5
f 35/23/5 19/9/5 14/12/5 31/19/5
f 36/24/5 20/13/5 13/16/5 34/22/5
f 33/21/5 16/8/5 20/13/5 36/24/5
f 50/25/6 49/26/6 48/27/6 47/28/6
f 51/29/6 50/25/6 47/28/6 46/30/6
f 47/28/7 48/27/7 57/31/7
f 46/30/8 47/28/8 56/32/8 55/33/8
f 56/32/9 57/31/9 55/33/9
f 56/32/10 47/28/10 57/31/10
f 62/34/11 61/35/11 60/36/11 59/37/11
f 63/38/11 62/34/11 59/37/11 58/39/11
f 59/37/12 60/36/12 69/40/12
f 58/39/13 59/37/13 68/41/13 67/42/13
f 68/41/14 69/40/14 67/42/14
f 68/41/15 59/37/15 69/40/15
f 74/43/16 73/44/16 72/45/16 71/46/16
f 75/47/16 74/43/16 71/46/16 70/48/16
f 71/46/17 72/45/17 81/49/17
f 70/48/18 71/46/18 80/50/18 79/51/18
f 80/50/19 81/49/19 79/51/19
f 80/50/20 71/46/20 81/49/20
f 86/52/21 85/53/21 84/54/21 83/55/21
f 87/56/21 86/52/21 83/55/21 82/57/21
f 83/55/22 84/54/22 93/58/22
f 82/57/23 83/55/23 92/59/23 91/60/23
f 92/59/24 93/58/24 91/60/24
f 92/59/25 83/55/25 93/58/25
f 98/61/26 97/62/26 96/63/26 95/64/26
f 99/65/26 98/61/26 95/64/26 94/66/26
f 95/64/27 96/63/27 105/67/27
f 94/66/28 95/64/28 104/68/28 103/69/28
f 104/68/29 105/67/29 103/69/29
f 104/68/30 95/64/30 105/67/30
f 110/70/31 109/71/31 108/72/31 107/73/31
f 111/74/31 110/70/31 107/73/31 106/75/31
f 107/73/32 108/72/32 117/76/32
f 106/75/33 107/73/33 116/77/33 115/78/33
f 116/77/34 117/76/34 115/78/34
f 116/77/35 107/73/35 117/76/35
f 122/79/36 121/80/36 120/81/36 119/82/36
f 123/83/36 122/79/36 119/82/36 118/84/36
f 119/82/37 120/81/37 129/85/37
f 118/84/38 119/82/38 128/86/38 127/87/38
f 128/86/39 129/85/39 127/87/39
f 128/86/40 119/82/40 129/85/40
f 134/88/41 133/89/41 132/90/41 131/91/41
f 135/92/41 134/88/41 131/91/41 130/93/41
f 131/91/42 132/90/42 141/94/42
f 130/93/43 131/91/43 140/95/43 139/96/43
f 140/95/44 141/94/44 139/96/44
f 140/95/45 131/91/45 141/94/45
usemtl Material.002
f 3/97/46 1/98/46 2/99/46
f 8/100/46 3/97/46 2/99/46
f 5/101/46 4/102/46 1/98/46
f 11/103/46 4/102/46 5/101/46
f 9/104/46 7/105/46 6/106/46
f 8/100/46 7/105/46 9/104/46
f 12/107/46 6/106/46 10/108/46
f 11/103/46 12/107/46 10/108/46
f 44/109/5 37/110/5 38/111/5
f 41/112/5 38/111/5 37/110/5
f 39/113/5 37/110/5 40/114/5
f 42/115/5 41/112/5 37/110/5
f 45/116/5 37/110/5 39/113/5
f 40/114/5 37/110/5 43/117/5
f 43/117/5 37/110/5 44/109/5
f 42/115/5 37/110/5 45/116/5
f 49/26/47 50/25/47 53/118/47 52/119/47
f 50/25/48 51/29/48 54/120/48 53/118/48
f 51/29/49 49/26/49 52/119/49 54/120/49
f 61/35/50 62/34/50 65/121/50 64/122/50
f 62/34/51 63/38/51 66/123/51 65/121/51
f 63/38/52 61/35/52 64/122/52 66/123/52
f 73/44/53 74/43/53 77/124/53 76/125/53
f 74/43/54 75/47/54 78/126/54 77/124/54
f 75/47/55 73/44/55 76/125/55 78/126/55
f 85/53/56 86/52/56 89/127/56 88/128/56
f 86/52/57 87/56/57 90/129/57 89/127/57
f 87/56/58 85/53/58 88/128/58 90/129/58
f 97/62/59 98/61/59 101/130/59 100/131/59
f 98/61/60 99/65/60 102/132/60 101/130/60
f 99/65/61 97/62/61 100/131/61 102/132/61
f 109/71/62 110/70/62 113/133/62 112/134/62
f 110/70/63 111/74/63 114/135/63 113/133/63
f 111/74/64 109/71/64 112/134/64 114/135/64
f 121/80/65 122/79/65 125/136/65 124/137/65
f 122/79/66 123/83/66 126/138/66 125/136/66
f 123/83/67 121/80/67 124/137/67 126/138/67
f 133/89/68 134/88/68 137/139/68 136/140/68
f 134/88/69 135/92/69 138/141/69 137/139/69
f 135/92/70 133/89/70 136/140/70 138/141/70
usemtl Material.003
f 14/12/71 23/11/71 21/2/71 17/1/71
f 18/4/72 22/3/72 24/6/72 15/5/72
f 13/16/73 26/15/73 27/10/73 19/9/73
f 16/8/74 25/7/74 28/14/74 20/13/74
f 53/118/6 54/120/6 52/119/6
f 65/121/11 66/123/11 64/122/11
f 77/124/16 78/126/16 76/125/16
f 89/127/21 90/129/21 88/128/21
f 101/130/26 102/132/26 100/131/26
f 113/133/31 114/135/31 112/134/31
f 125/136/36 126/138/36 124/137/36
f 137/139/41 138/141/41 136/140/41
usemtl Material.004
f 28/142/75 25/143/75 8/144/75 2/145/75
f 26/146/76 28/142/76 2/145/76 1/147/76
f 27/148/77 4/149/77 11/150/77 23/151/77
f 26/146/78 1/147/78 4/149/78 27/148/78
f 24/152/79 7/153/79 8/144/79 25/143/79
f 22/154/80 6/155/80 7/153/80 24/152/80
f 21/156/81 23/151/81 11/150/81 10/157/81
f 22/154/82 21/156/82 10/157/82 6/155/82
f 29/17/75 45/116/75 39/113/75 31/19/75
f 33/21/77 38/111/77 41/112/77 32/20/77
f 31/19/79 39/113/79 40/114/79 35/23/79
f 36/24/81 44/109/81 38/111/81 33/21/81
f 30/18/76 42/115/76 45/116/76 29/17/76
f 32/20/78 41/112/78 42/115/78 30/18/78
f 35/23/80 40/114/80 43/117/80 34/22/80
f 34/22/82 43/117/82 44/109/82 36/24/82
usemtl Material.005
f 49/26/6 51/29/6 46/30/6 48/27/6
f 46/30/83 55/33/83 57/31/83
f 48/27/84 46/30/84 57/31/84
f 61/35/11 63/38/11 58/39/11 60/36/11
f 58/39/85 67/42/85 69/40/85
f 60/36/86 58/39/86 69/40/86
f 73/44/16 75/47/16 70/48/16 72/45/16
f 70/48/87 79/51/87 81/49/87
f 72/45/88 70/48/88 81/49/88
f 85/53/21 87/56/21 82/57/21 84/54/21
f 82/57/89 91/60/89 93/58/89
f 84/54/90 82/57/90 93/58/90
f 97/62/26 99/65/26 94/66/26 96/63/26
f 94/66/91 103/69/91 105/67/91
f 96/63/92 94/66/92 105/67/92
f 109/71/31 111/74/31 106/75/31 108/72/31
f 106/75/93 115/78/93 117/76/93
f 108/72/94 106/75/94 117/76/94
f 121/80/36 123/83/36 118/84/36 120/81/36
f 118/84/95 127/87/95 129/85/95
f 120/81/96 118/84/96 129/85/96
f 133/89/41 135/92/41 130/93/41 132/90/41
f 130/93/97 139/96/97 141/94/97
f 132/90/98 130/93/98 141/94/98
