# Blender v2.91.0 OBJ File: 'Item_Spawner (1).blend'
# www.blender.org
mtllib spawner3.mtl
o Cone
v -0.500466 0.000173 -0.206003
v -0.208217 0.000173 -0.499549
v -0.000000 0.000173 0.000000
v -0.499549 0.000173 0.208217
v -0.000000 0.000173 0.000000
v 0.500466 0.000173 0.206002
v 0.499549 0.000173 -0.208217
v 0.206003 0.000173 -0.500466
v 0.000000 0.000173 0.000000
v 0.208217 0.000173 0.499549
v -0.206003 0.000173 0.500466
v 0.000000 0.000173 0.000000
v -0.163114 0.132869 -0.067141
v -0.067141 0.132869 0.163114
v 0.162815 0.132869 -0.067863
v 0.067141 0.132869 -0.163114
v 0.067863 0.132869 0.162815
v 0.163114 0.132869 0.067141
v -0.162815 0.132869 0.067863
v -0.067863 0.132869 -0.162815
v 0.208217 0.059010 0.499549
v 0.500466 0.059010 0.206002
v -0.206003 0.059010 0.500466
v 0.499549 0.059010 -0.208217
v 0.206003 0.059010 -0.500466
v -0.500466 0.059010 -0.206003
v -0.499549 0.059010 0.208217
v -0.208217 0.059010 -0.499549
v 0.030003 0.132869 0.071981
v 0.072113 0.132869 0.029683
v -0.029683 0.132869 0.072113
v 0.071981 0.132869 -0.030003
v 0.029683 0.132869 -0.072113
v -0.072113 0.132869 -0.029683
v -0.071981 0.132869 0.030003
v -0.030003 0.132869 -0.071981
v -0.000000 0.120403 0.000000
v 0.029683 0.120403 -0.072113
v -0.029683 0.120403 0.072113
v -0.071981 0.120403 0.030003
v 0.071981 0.120403 -0.030003
v 0.072113 0.120403 0.029683
v -0.072113 0.120403 -0.029683
v -0.030003 0.120403 -0.071981
v 0.030003 0.120403 0.071981
v 0.208218 0.008162 0.535192
v -0.206002 0.007793 0.534391
v 0.000000 0.209599 0.970781
v 0.000282 0.158274 0.859796
v -0.133213 0.027499 0.577004
v 0.135212 0.027738 0.577523
v 0.000282 0.164809 0.855355
v -0.133213 0.034033 0.572563
v 0.135212 0.034273 0.573081
v 0.208218 0.059514 0.500291
v -0.206002 0.059145 0.499491
v 0.000000 0.169555 0.851729
v 0.525654 0.007944 0.231320
v 0.232091 0.008015 0.523552
v 0.686499 0.209602 0.686391
v 0.608190 0.158277 0.607744
v 0.313722 0.027643 0.502220
v 0.503958 0.027597 0.312846
v 0.605058 0.164812 0.604595
v 0.310590 0.034178 0.499071
v 0.500826 0.034132 0.309697
v 0.501041 0.059296 0.206576
v 0.207478 0.059367 0.498809
v 0.602301 0.169558 0.602224
v 0.535556 0.007015 -0.207729
v 0.534019 0.008963 0.206482
v 0.970775 0.209615 -0.000403
v 0.859791 0.158290 -0.000459
v 0.576762 0.028262 0.133608
v 0.577758 0.026999 -0.134812
v 0.855350 0.164824 -0.000521
v 0.572320 0.034796 0.133546
v 0.573316 0.033534 -0.134874
v 0.500656 0.058366 -0.208215
v 0.499119 0.060313 0.205996
v 0.851723 0.169571 -0.000285
v 0.230428 0.009664 -0.525773
v 0.523426 0.006268 -0.233003
v 0.686823 0.209577 -0.686078
v 0.607936 0.158255 -0.608007
v 0.502051 0.026506 -0.314403
v 0.312180 0.028707 -0.504125
v 0.604853 0.164790 -0.604810
v 0.498967 0.033040 -0.311205
v 0.309097 0.035241 -0.500928
v 0.206198 0.061014 -0.500646
v 0.499196 0.057617 -0.207876
v 0.602531 0.169533 -0.602005
v -0.208646 0.008940 -0.534943
v 0.205566 0.007002 -0.534640
v 0.000377 0.209598 -0.970783
v -0.000111 0.158272 -0.859797
v 0.132857 0.026985 -0.577166
v -0.135563 0.028241 -0.577362
v -0.000056 0.164807 -0.855356
v 0.132912 0.033519 -0.572725
v -0.135508 0.034775 -0.572921
v -0.208212 0.060291 -0.500044
v 0.206000 0.058353 -0.499742
v 0.000267 0.169552 -0.851731
v -0.525695 0.008514 -0.231022
v -0.232392 0.007434 -0.523512
v -0.686359 0.209594 -0.686534
v -0.608129 0.158270 -0.607808
v -0.313947 0.027265 -0.502165
v -0.504015 0.027965 -0.312624
v -0.604976 0.164804 -0.604681
v -0.310793 0.033800 -0.499038
v -0.500861 0.034500 -0.309497
v -0.500912 0.059866 -0.206449
v -0.207608 0.058786 -0.498939
v -0.602203 0.169550 -0.602326
v -0.535119 0.008390 0.208314
v -0.534465 0.007560 -0.205905
v -0.970782 0.209595 -0.000080
v -0.859797 0.158271 0.000247
v -0.577052 0.027347 -0.133133
v -0.577476 0.027885 0.135291
v -0.855356 0.164806 0.000234
v -0.572611 0.033882 -0.133146
v -0.573035 0.034420 0.135279
v -0.500219 0.059742 0.208217
v -0.499564 0.058912 -0.206002
v -0.851730 0.169551 -0.000057
v -0.231141 0.008285 0.525679
v -0.523528 0.007667 0.232271
v -0.686477 0.209597 0.686415
v -0.607782 0.158273 0.608154
v -0.502187 0.027416 0.313856
v -0.312712 0.027817 0.503992
v -0.604646 0.164807 0.605008
v -0.499051 0.033951 0.310711
v -0.309577 0.034352 0.500847
v -0.206500 0.059637 0.500964
v -0.498887 0.059019 0.207556
v -0.602285 0.169553 0.602242
vt 0.000000 0.000000
vt 0.000000 0.000000
vt 0.000000 0.000000
vt 0.000000 0.000000
vt 0.000000 0.000000
vt 0.000000 0.000000
vt 0.000000 0.000000
vt 0.000000 0.000000
vt 0.000000 0.000000
vt 0.000000 0.000000
vt 0.000000 0.000000
vt 0.000000 0.000000
vt 0.000000 0.000000
vt 0.000000 0.000000
vt 0.000000 0.000000
vt 0.000000 0.000000
vt 0.010000 0.250000
vt 0.010000 0.250000
vt 0.080294 0.080294
vt 0.010000 0.250000
vt 0.010000 0.250000
vt 0.080294 0.080294
vt 0.010000 0.250000
vt 0.010000 0.250000
vt 0.080294 0.080294
vt 0.010000 0.250000
vt 0.010000 0.250000
vt 0.080294 0.080294
vt 0.750000 0.250000
vt 0.750000 0.010000
vt 0.580294 0.080294
vt 0.510000 0.250000
vt 0.750000 0.250000
vt 0.580294 0.080294
vt 0.510000 0.250000
vt 0.750000 0.250000
vt 0.580294 0.080294
vt 0.750000 0.010000
vt 0.750000 0.250000
vt 0.580294 0.080294
vt 0.018947 0.228400
vt 0.018947 0.228400
vt 0.018947 0.228400
vt 0.018947 0.228400
vt 0.064500 0.118426
vt 0.064500 0.118426
vt 0.018947 0.228400
vt 0.018947 0.228400
vt 0.018947 0.228400
vt 0.018947 0.228400
vt 0.064500 0.118426
vt 0.064500 0.118426
vt 0.018947 0.228400
vt 0.018947 0.228400
vt 0.018947 0.228400
vt 0.018947 0.228400
vt 0.064500 0.118426
vt 0.064500 0.118426
vt 0.018947 0.228400
vt 0.018947 0.228400
vt 0.018947 0.228400
vt 0.018947 0.228400
vt 0.064500 0.118426
vt 0.064500 0.118426
vt 0.018947 0.228400
vt 0.018947 0.228400
vt 0.018947 0.228400
vt 0.018947 0.228400
vt 0.064500 0.118426
vt 0.064500 0.118426
vt 0.018947 0.228400
vt 0.018947 0.228400
vt 0.018947 0.228400
vt 0.018947 0.228400
vt 0.064500 0.118426
vt 0.064500 0.118426
vt 0.018947 0.228400
vt 0.018947 0.228400
vt 0.018947 0.228400
vt 0.018947 0.228400
vt 0.064500 0.118426
vt 0.064500 0.118426
vt 0.018947 0.228400
vt 0.018947 0.228400
vt 0.018947 0.228400
vt 0.018947 0.228400
vt 0.064500 0.118426
vt 0.064500 0.118426
vt 0.080294 0.080294
vt 0.010000 0.250000
vt 0.010000 0.250000
vt 0.080294 0.080294
vt 0.250000 0.010000
vt 0.250000 0.010000
vt 0.080294 0.080294
vt 0.080294 0.080294
vt 0.010000 0.250000
vt 0.010000 0.250000
vt 0.080294 0.080294
vt 0.080294 0.080294
vt 0.250000 0.010000
vt 0.250000 0.010000
vt 0.080294 0.080294
vt 0.080294 0.080294
vt 0.000000 0.000000
vt 0.000000 0.000000
vt 0.000000 0.000000
vt 0.000000 0.000000
vt 0.000000 0.000000
vt 0.000000 0.000000
vt 0.000000 0.000000
vt 0.000000 0.000000
vt 0.000000 0.000000
vt 0.000000 0.000000
vt 0.000000 0.000000
vt 0.000000 0.000000
vt 0.000000 0.000000
vt 0.000000 0.000000
vt 0.000000 0.000000
vt 0.000000 0.000000
vt 0.000000 0.000000
vt 0.080294 0.080294
vt 0.010000 0.250000
vt 0.010000 0.250000
vt 0.080294 0.080294
vt 0.080294 0.080294
vt 0.010000 0.250000
vt 0.010000 0.250000
vt 0.010000 0.250000
vt 0.010000 0.250000
vt 0.080294 0.080294
vt 0.010000 0.250000
vt 0.010000 0.250000
vt 0.080294 0.080294
vt 0.080294 0.080294
vt 0.010000 0.250000
vt 0.010000 0.250000
vt 0.010000 0.250000
vt 0.010000 0.250000
vt 0.080294 0.080294
vt 0.010000 0.250000
vt 0.010000 0.250000
vt 0.080294 0.080294
vt 0.080294 0.080294
vt 0.010000 0.250000
vt 0.010000 0.250000
vt 0.010000 0.250000
vt 0.010000 0.250000
vt 0.080294 0.080294
vt 0.010000 0.250000
vt 0.010000 0.250000
vt 0.080294 0.080294
vt 0.080294 0.080294
vt 0.010000 0.250000
vt 0.010000 0.250000
vt 0.010000 0.250000
vt 0.010000 0.250000
vn 0.0005 0.9768 0.2141
vn 0.2141 0.9768 -0.0005
vn -0.2141 0.9768 0.0005
vn -0.0005 0.9768 -0.2141
vn -0.0003 0.9543 -0.2990
vn -0.2990 0.9542 -0.0056
vn 0.0042 0.9542 0.2990
vn 0.2990 0.9543 -0.0014
vn 0.0000 -1.0000 0.0000
vn 0.9172 -0.2239 -0.3294
vn -0.0021 0.5621 0.8271
vn -0.9154 -0.2263 -0.3329
vn 0.4157 -0.2253 -0.8811
vn 0.5836 0.5621 0.5861
vn -0.8831 -0.2249 0.4118
vn -0.3276 -0.2313 -0.9160
vn 0.8271 0.5621 0.0004
vn -0.3347 -0.2188 0.9165
vn -0.8843 -0.2142 -0.4150
vn 0.5879 0.5621 -0.5818
vn 0.4124 -0.2360 0.8799
vn -0.9182 -0.2173 0.3311
vn 0.0032 0.5621 -0.8271
vn 0.9143 -0.2329 0.3313
vn -0.4155 -0.2216 0.8822
vn -0.5830 0.5621 -0.5867
vn 0.8821 -0.2286 -0.4120
vn 0.3298 -0.2224 0.9175
vn -0.8271 0.5621 -0.0024
vn 0.3326 -0.2278 -0.9152
vn 0.8818 -0.2231 0.4156
vn -0.5864 0.5621 0.5832
vn -0.4119 -0.2271 -0.8825
vn -0.0000 -0.9076 0.4197
vn 0.2960 -0.9076 0.2976
vn 0.4197 -0.9076 0.0058
vn 0.2914 -0.9076 -0.3022
vn -0.0039 -0.9076 -0.4198
vn -0.2981 -0.9076 -0.2955
vn -0.4197 -0.9076 0.0012
vn -0.2964 -0.9076 0.2972
vn -0.0022 0.0000 -1.0000
vn -0.7087 0.0000 -0.7055
vn -0.7055 0.0000 0.7087
vn -1.0000 0.0000 0.0022
vn 0.7055 0.0000 -0.7087
vn 1.0000 0.0000 -0.0022
vn 0.0022 0.0000 1.0000
vn 0.7087 0.0000 0.7055
vn 0.0000 1.0000 -0.0000
vn 0.8610 0.2859 0.4206
vn -0.2454 0.9188 -0.3091
vn -0.8639 0.2831 0.4165
vn 0.2425 0.9195 -0.3093
vn 0.9067 0.2846 -0.3114
vn -0.3913 0.9191 -0.0458
vn -0.3164 0.2844 0.9050
vn -0.0464 0.9192 -0.3910
vn 0.4224 0.2789 -0.8624
vn -0.3093 0.9203 0.2396
vn 0.4147 0.2900 0.8625
vn -0.3090 0.9180 -0.2484
vn -0.3117 0.2949 -0.9033
vn -0.0394 0.9169 0.3972
vn 0.9083 0.2740 0.3160
vn -0.3850 0.9214 0.0528
vn -0.8598 0.2920 -0.4190
vn 0.2495 0.9178 0.3090
vn 0.8651 0.2769 -0.4182
vn -0.2385 0.9205 0.3094
vn -0.9056 0.2880 0.3115
vn 0.3933 0.9184 0.0437
vn 0.3163 0.2810 -0.9061
vn 0.0485 0.9200 0.3890
vn -0.4203 0.2872 0.8607
vn 0.3090 0.9185 -0.2466
vn -0.4169 0.2817 -0.8642
vn 0.3093 0.9198 0.2414
vn 0.3114 0.2866 0.9060
vn 0.0445 0.9187 -0.3925
vn -0.9057 0.2823 -0.3163
vn 0.3898 0.9197 -0.0477
vn 0.0021 -0.5621 -0.8271
vn -0.5836 -0.5621 -0.5861
vn -0.8271 -0.5621 -0.0004
vn -0.5879 -0.5621 0.5818
vn -0.0032 -0.5621 0.8271
vn 0.5830 -0.5621 0.5867
vn 0.8271 -0.5621 0.0024
vn 0.5864 -0.5621 -0.5832
vn 0.1517 0.9768 0.1510
vn 0.1510 0.9768 -0.1517
vn -0.1510 0.9768 0.1517
vn -0.1517 0.9768 -0.1510
vn -0.2108 0.9543 -0.2120
vn -0.2058 0.9542 0.2170
vn 0.2129 0.9543 0.2099
vn 0.2108 0.9543 -0.2120
usemtl Material.001
s off
f 14/1/1 23/2/1 21/3/1 17/4/1
f 18/5/2 22/6/2 24/7/2 15/8/2
f 13/9/3 26/10/3 27/11/3 19/12/3
f 16/13/4 25/14/4 28/15/4 20/16/4
f 56/17/5 57/18/5 55/19/5
f 80/20/6 81/21/6 79/22/6
f 104/23/7 105/24/7 103/25/7
f 128/26/8 129/27/8 127/28/8
usemtl Material.002
f 3/29/9 1/30/9 2/31/9
f 8/32/9 3/29/9 2/31/9
f 5/33/9 4/34/9 1/30/9
f 11/35/9 4/34/9 5/33/9
f 9/36/9 7/37/9 6/38/9
f 8/32/9 7/37/9 9/36/9
f 12/39/9 6/38/9 10/40/9
f 11/35/9 12/39/9 10/40/9
f 49/41/10 50/42/10 53/43/10 52/44/10
f 50/42/11 51/45/11 54/46/11 53/43/11
f 51/45/12 49/41/12 52/44/12 54/46/12
f 61/47/13 62/48/13 65/49/13 64/50/13
f 62/48/14 63/51/14 66/52/14 65/49/14
f 63/51/15 61/47/15 64/50/15 66/52/15
f 73/53/16 74/54/16 77/55/16 76/56/16
f 74/54/17 75/57/17 78/58/17 77/55/17
f 75/57/18 73/53/18 76/56/18 78/58/18
f 85/59/19 86/60/19 89/61/19 88/62/19
f 86/60/20 87/63/20 90/64/20 89/61/20
f 87/63/21 85/59/21 88/62/21 90/64/21
f 97/65/22 98/66/22 101/67/22 100/68/22
f 98/66/23 99/69/23 102/70/23 101/67/23
f 99/69/24 97/65/24 100/68/24 102/70/24
f 109/71/25 110/72/25 113/73/25 112/74/25
f 110/72/26 111/75/26 114/76/26 113/73/26
f 111/75/27 109/71/27 112/74/27 114/76/27
f 121/77/28 122/78/28 125/79/28 124/80/28
f 122/78/29 123/81/29 126/82/29 125/79/29
f 123/81/30 121/77/30 124/80/30 126/82/30
f 133/83/31 134/84/31 137/85/31 136/86/31
f 134/84/32 135/87/32 138/88/32 137/85/32
f 135/87/33 133/83/33 136/86/33 138/88/33
usemtl Material.003
f 53/43/34 54/46/34 52/44/34
f 65/49/35 66/52/35 64/50/35
f 77/55/36 78/58/36 76/56/36
f 89/61/37 90/64/37 88/62/37
f 101/67/38 102/70/38 100/68/38
f 113/73/39 114/76/39 112/74/39
f 125/79/40 126/82/40 124/80/40
f 137/85/41 138/88/41 136/86/41
usemtl Material.004
f 28/89/42 25/90/42 8/91/42 2/92/42
f 26/93/43 28/89/43 2/92/43 1/94/43
f 27/95/44 4/96/44 11/97/44 23/98/44
f 26/93/45 1/94/45 4/96/45 27/95/45
f 24/99/46 7/100/46 8/91/46 25/90/46
f 22/101/47 6/102/47 7/100/47 24/99/47
f 21/103/48 23/98/48 11/97/48 10/104/48
f 22/101/49 21/103/49 10/104/49 6/102/49
f 29/105/42 45/106/42 39/107/42 31/108/42
f 33/109/44 38/110/44 41/111/44 32/112/44
f 31/108/46 39/107/46 40/113/46 35/114/46
f 36/115/48 44/116/48 38/110/48 33/109/48
f 30/117/43 42/118/43 45/106/43 29/105/43
f 32/112/45 41/111/45 42/118/45 30/117/45
f 35/114/47 40/113/47 43/119/47 34/120/47
f 34/120/49 43/119/49 44/116/49 36/115/49
usemtl Material.005
f 44/116/50 37/121/50 38/110/50
f 41/111/50 38/110/50 37/121/50
f 39/107/50 37/121/50 40/113/50
f 42/118/50 41/111/50 37/121/50
f 45/106/50 37/121/50 39/107/50
f 40/113/50 37/121/50 43/119/50
f 43/119/50 37/121/50 44/116/50
f 42/118/50 37/121/50 45/106/50
f 46/122/51 55/19/51 57/18/51
f 47/123/52 48/124/52 57/18/52
f 56/17/53 47/123/53 57/18/53
f 48/124/54 46/122/54 57/18/54
f 58/125/55 67/126/55 69/127/55
f 59/128/56 60/129/56 69/127/56
f 68/130/57 59/128/57 69/127/57
f 60/129/58 58/125/58 69/127/58
f 70/131/59 79/22/59 81/21/59
f 71/132/60 72/133/60 81/21/60
f 80/20/61 71/132/61 81/21/61
f 72/133/62 70/131/62 81/21/62
f 82/134/63 91/135/63 93/136/63
f 83/137/64 84/138/64 93/136/64
f 92/139/65 83/137/65 93/136/65
f 84/138/66 82/134/66 93/136/66
f 94/140/67 103/25/67 105/24/67
f 95/141/68 96/142/68 105/24/68
f 104/23/69 95/141/69 105/24/69
f 96/142/70 94/140/70 105/24/70
f 106/143/71 115/144/71 117/145/71
f 107/146/72 108/147/72 117/145/72
f 116/148/73 107/146/73 117/145/73
f 108/147/74 106/143/74 117/145/74
f 118/149/75 127/28/75 129/27/75
f 119/150/76 120/151/76 129/27/76
f 128/26/77 119/150/77 129/27/77
f 120/151/78 118/149/78 129/27/78
f 130/152/79 139/153/79 141/154/79
f 131/155/80 132/156/80 141/154/80
f 140/157/81 131/155/81 141/154/81
f 132/156/82 130/152/82 141/154/82
usemtl Material.006
f 50/42/34 49/41/34 48/124/34 47/123/34
f 49/41/34 51/45/34 46/122/34 48/124/34
f 51/45/34 50/42/34 47/123/34 46/122/34
f 46/122/83 47/123/83 56/17/83 55/19/83
f 62/48/35 61/47/35 60/129/35 59/128/35
f 61/47/35 63/51/35 58/125/35 60/129/35
f 63/51/35 62/48/35 59/128/35 58/125/35
f 58/125/84 59/128/84 68/130/84 67/126/84
f 74/54/36 73/53/36 72/133/36 71/132/36
f 73/53/36 75/57/36 70/131/36 72/133/36
f 75/57/36 74/54/36 71/132/36 70/131/36
f 70/131/85 71/132/85 80/20/85 79/22/85
f 86/60/37 85/59/37 84/138/37 83/137/37
f 85/59/37 87/63/37 82/134/37 84/138/37
f 87/63/37 86/60/37 83/137/37 82/134/37
f 82/134/86 83/137/86 92/139/86 91/135/86
f 98/66/38 97/65/38 96/142/38 95/141/38
f 97/65/38 99/69/38 94/140/38 96/142/38
f 99/69/38 98/66/38 95/141/38 94/140/38
f 94/140/87 95/141/87 104/23/87 103/25/87
f 110/72/39 109/71/39 108/147/39 107/146/39
f 109/71/39 111/75/39 106/143/39 108/147/39
f 111/75/39 110/72/39 107/146/39 106/143/39
f 106/143/88 107/146/88 116/148/88 115/144/88
f 122/78/40 121/77/40 120/151/40 119/150/40
f 121/77/40 123/81/40 118/149/40 120/151/40
f 123/81/40 122/78/40 119/150/40 118/149/40
f 118/149/89 119/150/89 128/26/89 127/28/89
f 134/84/41 133/83/41 132/156/41 131/155/41
f 133/83/41 135/87/41 130/152/41 132/156/41
f 135/87/41 134/84/41 131/155/41 130/152/41
f 130/152/90 131/155/90 140/157/90 139/153/90
usemtl Material.007
f 17/4/91 21/3/91 22/6/91 18/5/91
f 15/8/92 24/7/92 25/14/92 16/13/92
f 19/12/93 27/11/93 23/2/93 14/1/93
f 20/16/94 28/15/94 26/10/94 13/9/94
f 68/130/95 69/127/95 67/126/95
f 92/139/96 93/136/96 91/135/96
f 116/148/97 117/145/97 115/144/97
f 140/157/98 141/154/98 139/153/98
usemtl Material.008
f 29/105/50 17/4/50 18/5/50 30/117/50
f 31/108/50 14/1/50 17/4/50 29/105/50
f 30/117/50 18/5/50 15/8/50 32/112/50
f 32/112/50 15/8/50 16/13/50 33/109/50
f 34/120/50 13/9/50 19/12/50 35/114/50
f 35/114/50 19/12/50 14/1/50 31/108/50
f 36/115/50 20/16/50 13/9/50 34/120/50
f 33/109/50 16/13/50 20/16/50 36/115/50
