# Blender v2.91.0 OBJ File: 'Item_Spawner.blend'
# www.blender.org
mtllib spawner2.mtl
o Cone
v -0.924725 0.000388 -0.380636
v -0.384729 0.000388 -0.923030
v -0.000000 0.000388 0.000000
v -0.923030 0.000388 0.384729
v -0.000000 0.000388 0.000000
v 0.924725 0.000388 0.380636
v 0.923030 0.000388 -0.384729
v 0.380636 0.000388 -0.924725
v -0.000000 0.000388 0.000000
v 0.384729 0.000388 0.923030
v -0.380636 0.000388 0.924725
v -0.000000 0.000388 0.000000
v -0.301391 0.216414 -0.124059
v -0.124059 0.216414 0.301391
v 0.300838 0.216414 -0.125393
v 0.124059 0.216414 -0.301391
v 0.125392 0.216414 0.300838
v 0.301391 0.216414 0.124059
v -0.300838 0.216414 0.125393
v -0.125393 0.216414 -0.300838
v 0.384729 0.132378 0.923030
v 0.924725 0.132378 0.380636
v -0.380636 0.132378 0.924725
v 0.923030 0.132378 -0.384729
v 0.380636 0.132378 -0.924725
v -0.924725 0.132378 -0.380636
v -0.923030 0.132378 0.384729
v -0.384729 0.132378 -0.923030
v 0.055436 0.216414 0.133002
v 0.133246 0.216414 0.054847
v -0.054847 0.216414 0.133246
v 0.133002 0.216414 -0.055437
v 0.054847 0.216414 -0.133246
v -0.133246 0.216414 -0.054847
v -0.133002 0.216414 0.055437
v -0.055436 0.216414 -0.133002
v -0.000000 0.188449 0.000000
v 0.054847 0.188449 -0.133246
v -0.054847 0.188449 0.133246
v -0.133002 0.188449 0.055437
v 0.133002 0.188449 -0.055437
v 0.133246 0.188449 0.054847
v -0.133246 0.188449 -0.054847
v -0.055436 0.188449 -0.133002
v 0.055436 0.188449 0.133002
v 0.384729 0.132678 1.055499
v -0.380636 0.130983 1.055487
v -0.000000 1.055694 1.060762
v 0.000521 0.820517 1.059421
v -0.246141 0.221280 1.056002
v 0.249835 0.222378 1.056010
v 0.000521 0.820634 1.042621
v -0.246141 0.221397 1.039202
v 0.249835 0.222496 1.039210
v 0.384729 0.133600 0.923482
v -0.380636 0.131904 0.923470
v -0.000000 0.820076 1.030055
v 1.018515 0.132415 0.474555
v 0.476938 0.131251 1.015368
v 0.750455 1.055697 0.749684
v 0.749761 0.820520 0.748482
v 0.572515 0.221454 0.920652
v 0.923471 0.222209 0.570191
v 0.737890 0.820637 0.736594
v 0.560643 0.221572 0.908765
v 0.911600 0.222326 0.558303
v 0.925230 0.133336 0.381140
v 0.383653 0.132172 0.921954
v 0.728641 0.820080 0.728071
v 1.056875 0.131296 -0.384246
v 1.054084 0.132394 0.381115
v 1.060742 1.055709 -0.002871
v 1.059402 0.820532 -0.002539
v 1.055088 0.222199 0.246294
v 1.056896 0.221488 -0.249680
v 1.042602 0.820649 -0.002600
v 1.038288 0.222316 0.246233
v 1.040096 0.221605 -0.249741
v 0.924859 0.132215 -0.384728
v 0.922068 0.133313 0.380632
v 1.030034 0.820093 -0.002123
v 0.472597 0.134490 -1.017557
v 1.016332 0.129145 -0.478939
v 0.752743 1.055660 -0.747437
v 0.750635 0.820488 -0.747643
v 0.921449 0.220082 -0.573650
v 0.569094 0.223546 -0.922689
v 0.738813 0.820605 -0.735708
v 0.909626 0.220199 -0.561714
v 0.557271 0.223662 -0.910753
v 0.379694 0.135408 -0.923763
v 0.923429 0.130063 -0.385144
v 0.730338 0.820045 -0.726415
v -0.385151 0.133617 -1.054559
v 0.380202 0.130030 -1.056428
v 0.002585 1.055728 -1.060770
v 0.001297 0.820540 -1.059427
v 0.246003 0.220664 -1.056613
v -0.249966 0.222988 -1.055402
v 0.001351 0.820657 -1.042628
v 0.246057 0.220781 -1.039814
v -0.249912 0.223105 -1.038603
v -0.384722 0.134537 -0.922550
v 0.380631 0.130950 -0.924419
v 0.001911 0.820098 -1.030064
v -1.018200 0.133103 -0.473904
v -0.477601 0.130551 -1.015690
v -0.749454 1.055687 -0.750699
v -0.749058 0.820511 -0.749197
v -0.572890 0.220998 -0.920918
v -0.923213 0.222652 -0.569826
v -0.737166 0.820628 -0.737331
v -0.560998 0.221116 -0.909052
v -0.911320 0.222769 -0.557960
v -0.924745 0.134024 -0.380658
v -0.384146 0.131472 -0.922445
v -0.727903 0.820070 -0.728823
v -1.055225 0.132954 0.384824
v -1.055765 0.130703 -0.380539
v -1.060766 1.055689 -0.000571
v -1.059424 0.820513 0.000120
v -1.056184 0.221097 -0.246109
v -1.055833 0.222556 0.249866
v -1.042624 0.820630 0.000107
v -1.039384 0.221214 -0.246122
v -1.039033 0.222673 0.249854
v -0.923208 0.133875 0.384728
v -0.923748 0.131624 -0.380635
v -1.030059 0.820072 -0.000422
v -0.474164 0.132828 1.018327
v -1.015561 0.130831 0.477336
v -0.750292 1.055691 0.749855
v -0.748910 0.820514 0.749340
v -0.920811 0.221180 0.572740
v -0.569972 0.222474 0.923317
v -0.737035 0.820632 0.737456
v -0.908937 0.221298 0.560856
v -0.558097 0.222592 0.911433
v -0.380851 0.133749 0.924940
v -0.922248 0.131752 0.383949
v -0.728522 0.820073 0.728199
vt 0.000000 0.000000
vt 0.000000 0.000000
vt 0.000000 0.000000
vt 0.000000 0.000000
vt 0.000000 0.000000
vt 0.000000 0.000000
vt 0.000000 0.000000
vt 0.000000 0.000000
vt 0.000000 0.000000
vt 0.000000 0.000000
vt 0.000000 0.000000
vt 0.000000 0.000000
vt 0.000000 0.000000
vt 0.000000 0.000000
vt 0.000000 0.000000
vt 0.000000 0.000000
vt 0.000000 0.000000
vt 0.000000 0.000000
vt 0.000000 0.000000
vt 0.000000 0.000000
vt 0.000000 0.000000
vt 0.000000 0.000000
vt 0.000000 0.000000
vt 0.000000 0.000000
vt 0.018947 0.228400
vt 0.018947 0.228400
vt 0.010000 0.250000
vt 0.010000 0.250000
vt 0.064500 0.118426
vt 0.080294 0.080294
vt 0.010000 0.250000
vt 0.010000 0.250000
vt 0.080294 0.080294
vt 0.018947 0.228400
vt 0.018947 0.228400
vt 0.010000 0.250000
vt 0.010000 0.250000
vt 0.064500 0.118426
vt 0.080294 0.080294
vt 0.010000 0.250000
vt 0.010000 0.250000
vt 0.080294 0.080294
vt 0.018947 0.228400
vt 0.018947 0.228400
vt 0.010000 0.250000
vt 0.010000 0.250000
vt 0.064500 0.118426
vt 0.080294 0.080294
vt 0.010000 0.250000
vt 0.010000 0.250000
vt 0.080294 0.080294
vt 0.018947 0.228400
vt 0.018947 0.228400
vt 0.010000 0.250000
vt 0.010000 0.250000
vt 0.064500 0.118426
vt 0.080294 0.080294
vt 0.010000 0.250000
vt 0.010000 0.250000
vt 0.080294 0.080294
vt 0.018947 0.228400
vt 0.018947 0.228400
vt 0.010000 0.250000
vt 0.010000 0.250000
vt 0.064500 0.118426
vt 0.080294 0.080294
vt 0.010000 0.250000
vt 0.010000 0.250000
vt 0.080294 0.080294
vt 0.018947 0.228400
vt 0.018947 0.228400
vt 0.010000 0.250000
vt 0.010000 0.250000
vt 0.064500 0.118426
vt 0.080294 0.080294
vt 0.010000 0.250000
vt 0.010000 0.250000
vt 0.080294 0.080294
vt 0.018947 0.228400
vt 0.018947 0.228400
vt 0.010000 0.250000
vt 0.010000 0.250000
vt 0.064500 0.118426
vt 0.080294 0.080294
vt 0.010000 0.250000
vt 0.010000 0.250000
vt 0.080294 0.080294
vt 0.018947 0.228400
vt 0.018947 0.228400
vt 0.010000 0.250000
vt 0.010000 0.250000
vt 0.064500 0.118426
vt 0.080294 0.080294
vt 0.010000 0.250000
vt 0.010000 0.250000
vt 0.080294 0.080294
vt 0.750000 0.250000
vt 0.750000 0.010000
vt 0.580294 0.080294
vt 0.510000 0.250000
vt 0.750000 0.250000
vt 0.580294 0.080294
vt 0.510000 0.250000
vt 0.750000 0.250000
vt 0.580294 0.080294
vt 0.750000 0.010000
vt 0.750000 0.250000
vt 0.580294 0.080294
vt 0.000000 0.000000
vt 0.000000 0.000000
vt 0.000000 0.000000
vt 0.000000 0.000000
vt 0.000000 0.000000
vt 0.000000 0.000000
vt 0.000000 0.000000
vt 0.000000 0.000000
vt 0.000000 0.000000
vt 0.018947 0.228400
vt 0.018947 0.228400
vt 0.064500 0.118426
vt 0.018947 0.228400
vt 0.018947 0.228400
vt 0.064500 0.118426
vt 0.018947 0.228400
vt 0.018947 0.228400
vt 0.064500 0.118426
vt 0.018947 0.228400
vt 0.018947 0.228400
vt 0.064500 0.118426
vt 0.018947 0.228400
vt 0.018947 0.228400
vt 0.064500 0.118426
vt 0.018947 0.228400
vt 0.018947 0.228400
vt 0.064500 0.118426
vt 0.018947 0.228400
vt 0.018947 0.228400
vt 0.064500 0.118426
vt 0.018947 0.228400
vt 0.018947 0.228400
vt 0.064500 0.118426
vt 0.080294 0.080294
vt 0.010000 0.250000
vt 0.010000 0.250000
vt 0.080294 0.080294
vt 0.250000 0.010000
vt 0.250000 0.010000
vt 0.080294 0.080294
vt 0.080294 0.080294
vt 0.010000 0.250000
vt 0.010000 0.250000
vt 0.080294 0.080294
vt 0.080294 0.080294
vt 0.250000 0.010000
vt 0.250000 0.010000
vt 0.080294 0.080294
vt 0.080294 0.080294
vn 0.0948 0.9910 0.0944
vn 0.0944 0.9910 -0.0948
vn -0.0944 0.9910 0.0948
vn -0.0948 0.9910 -0.0944
vn 0.0000 1.0000 0.0000
vn -0.0000 -0.0057 1.0000
vn -0.2875 0.1238 -0.9497
vn 0.0022 -1.0000 -0.0070
vn -0.0003 0.1532 -0.9882
vn -0.8753 0.4836 0.0034
vn 0.7066 -0.0057 0.7076
vn -0.8745 0.1240 -0.4689
vn -0.0039 -1.0000 -0.0060
vn -0.6984 0.1532 -0.6991
vn -0.6167 0.4842 0.6206
vn 1.0000 -0.0057 0.0037
vn -0.9508 0.1248 0.2836
vn -0.0070 -1.0000 0.0014
vn -0.9882 0.1532 -0.0038
vn 0.0002 0.4868 0.8735
vn 0.7037 -0.0057 -0.7105
vn -0.4637 0.1224 0.8775
vn -0.0099 -1.0000 0.0000
vn -0.6947 0.1532 0.7028
vn 0.6258 0.4794 0.6152
vn -0.0025 -0.0057 -1.0000
vn 0.2902 0.1228 0.9490
vn -0.0047 -1.0000 0.0070
vn 0.0031 0.1532 0.9882
vn 0.8768 0.4809 -0.0062
vn -0.7079 -0.0057 -0.7063
vn 0.8755 0.1235 0.4672
vn 0.0026 -1.0000 0.0073
vn 0.6999 0.1532 0.6976
vn 0.6162 0.4826 -0.6224
vn -1.0000 -0.0057 0.0007
vn 0.9495 0.1236 -0.2883
vn 0.0070 -1.0000 0.0029
vn 0.9882 0.1532 -0.0011
vn -0.0040 0.4830 -0.8756
vn -0.7068 -0.0057 0.7074
vn 0.4679 0.1237 -0.8751
vn 0.0068 -1.0000 -0.0031
vn 0.6982 0.1532 -0.6993
vn -0.6217 0.4833 -0.6164
vn 0.0000 -1.0000 -0.0000
vn 0.9247 -0.3806 -0.0027
vn -0.0022 1.0000 0.0070
vn -0.9230 -0.3847 -0.0027
vn 0.6523 -0.3813 -0.6551
vn 0.0039 1.0000 0.0060
vn -0.6552 -0.3841 0.6505
vn 0.0007 -0.3840 -0.9233
vn 0.0070 1.0000 -0.0014
vn -0.0060 -0.3813 0.9244
vn -0.6601 -0.3762 -0.6502
vn 0.0099 1.0000 -0.0000
vn 0.6526 -0.3891 0.6502
vn -0.9259 -0.3777 0.0056
vn 0.0047 1.0000 -0.0070
vn 0.9218 -0.3876 -0.0003
vn -0.6516 -0.3796 0.6568
vn -0.0026 1.0000 -0.0073
vn 0.6536 -0.3858 -0.6512
vn 0.0033 -0.3800 0.9250
vn -0.0070 1.0000 -0.0029
vn 0.0020 -0.3854 -0.9228
vn 0.6561 -0.3803 0.6519
vn -0.0068 1.0000 0.0031
vn -0.6509 -0.3851 -0.6542
vn 0.0003 0.9910 0.1337
vn 0.1337 0.9910 -0.0003
vn -0.1337 0.9910 0.0003
vn -0.0003 0.9910 -0.1337
vn -0.0022 0.0000 -1.0000
vn -0.7087 0.0000 -0.7055
vn -0.7055 0.0000 0.7087
vn -1.0000 0.0000 0.0022
vn 0.7055 0.0000 -0.7087
vn 1.0000 0.0000 -0.0022
vn 0.0022 0.0000 1.0000
vn 0.7087 0.0000 0.7055
vn 0.8726 0.4885 0.0034
vn 0.2843 0.1239 -0.9507
vn 0.6201 0.4879 -0.6144
vn -0.4706 0.1237 -0.8736
vn 0.0066 0.4853 -0.8743
vn -0.9497 0.1229 -0.2882
vn -0.6159 0.4926 -0.6148
vn -0.8706 0.1252 0.4758
vn -0.8711 0.4912 -0.0006
vn -0.2815 0.1248 0.9514
vn -0.6183 0.4895 0.6149
vn 0.4723 0.1242 0.8726
vn -0.0028 0.4891 0.8722
vn 0.9509 0.1241 0.2835
vn 0.6147 0.4888 0.6190
vn 0.8730 0.1240 -0.4716
usemtl Material.001
s off
f 17/1/1 21/2/1 22/3/1 18/4/1
f 15/5/2 24/6/2 25/7/2 16/8/2
f 19/9/3 27/10/3 23/11/3 14/12/3
f 20/13/4 28/14/4 26/15/4 13/16/4
f 29/17/5 17/1/5 18/4/5 30/18/5
f 31/19/5 14/12/5 17/1/5 29/17/5
f 30/18/5 18/4/5 15/5/5 32/20/5
f 32/20/5 15/5/5 16/8/5 33/21/5
f 34/22/5 13/16/5 19/9/5 35/23/5
f 35/23/5 19/9/5 14/12/5 31/19/5
f 36/24/5 20/13/5 13/16/5 34/22/5
f 33/21/5 16/8/5 20/13/5 36/24/5
f 50/25/6 49/26/6 48/27/6 47/28/6
f 51/29/6 50/25/6 47/28/6 46/30/6
f 47/28/7 48/27/7 57/31/7
f 46/30/8 47/28/8 56/32/8 55/33/8
f 56/32/9 57/31/9 55/33/9
f 56/32/10 47/28/10 57/31/10
f 62/34/11 61/35/11 60/36/11 59/37/11
f 63/38/11 62/34/11 59/37/11 58/39/11
f 59/37/12 60/36/12 69/40/12
f 58/39/13 59/37/13 68/41/13 67/42/13
f 68/41/14 69/40/14 67/42/14
f 68/41/15 59/37/15 69/40/15
f 74/43/16 73/44/16 72/45/16 71/46/16
f 75/47/16 74/43/16 71/46/16 70/48/16
f 71/46/17 72/45/17 81/49/17
f 70/48/18 71/46/18 80/50/18 79/51/18
f 80/50/19 81/49/19 79/51/19
f 80/50/20 71/46/20 81/49/20
f 86/52/21 85/53/21 84/54/21 83/55/21
f 87/56/21 86/52/21 83/55/21 82/57/21
f 83/55/22 84/54/22 93/58/22
f 82/57/23 83/55/23 92/59/23 91/60/23
f 92/59/24 93/58/24 91/60/24
f 92/59/25 83/55/25 93/58/25
f 98/61/26 97/62/26 96/63/26 95/64/26
f 99/65/26 98/61/26 95/64/26 94/66/26
f 95/64/27 96/63/27 105/67/27
f 94/66/28 95/64/28 104/68/28 103/69/28
f 104/68/29 105/67/29 103/69/29
f 104/68/30 95/64/30 105/67/30
f 110/70/31 109/71/31 108/72/31 107/73/31
f 111/74/31 110/70/31 107/73/31 106/75/31
f 107/73/32 108/72/32 117/76/32
f 106/75/33 107/73/33 116/77/33 115/78/33
f 116/77/34 117/76/34 115/78/34
f 116/77/35 107/73/35 117/76/35
f 122/79/36 121/80/36 120/81/36 119/82/36
f 123/83/36 122/79/36 119/82/36 118/84/36
f 119/82/37 120/81/37 129/85/37
f 118/84/38 119/82/38 128/86/38 127/87/38
f 128/86/39 129/85/39 127/87/39
f 128/86/40 119/82/40 129/85/40
f 134/88/41 133/89/41 132/90/41 131/91/41
f 135/92/41 134/88/41 131/91/41 130/93/41
f 131/91/42 132/90/42 141/94/42
f 130/93/43 131/91/43 140/95/43 139/96/43
f 140/95/44 141/94/44 139/96/44
f 140/95/45 131/91/45 141/94/45
usemtl Material.002
f 3/97/46 1/98/46 2/99/46
f 8/100/46 3/97/46 2/99/46
f 5/101/46 4/102/46 1/98/46
f 11/103/46 4/102/46 5/101/46
f 9/104/46 7/105/46 6/106/46
f 8/100/46 7/105/46 9/104/46
f 12/107/46 6/106/46 10/108/46
f 11/103/46 12/107/46 10/108/46
f 44/109/5 37/110/5 38/111/5
f 41/112/5 38/111/5 37/110/5
f 39/113/5 37/110/5 40/114/5
f 42/115/5 41/112/5 37/110/5
f 45/116/5 37/110/5 39/113/5
f 40/114/5 37/110/5 43/117/5
f 43/117/5 37/110/5 44/109/5
f 42/115/5 37/110/5 45/116/5
f 49/26/47 50/25/47 53/118/47 52/119/47
f 50/25/48 51/29/48 54/120/48 53/118/48
f 51/29/49 49/26/49 52/119/49 54/120/49
f 61/35/50 62/34/50 65/121/50 64/122/50
f 62/34/51 63/38/51 66/123/51 65/121/51
f 63/38/52 61/35/52 64/122/52 66/123/52
f 73/44/53 74/43/53 77/124/53 76/125/53
f 74/43/54 75/47/54 78/126/54 77/124/54
f 75/47/55 73/44/55 76/125/55 78/126/55
f 85/53/56 86/52/56 89/127/56 88/128/56
f 86/52/57 87/56/57 90/129/57 89/127/57
f 87/56/58 85/53/58 88/128/58 90/129/58
f 97/62/59 98/61/59 101/130/59 100/131/59
f 98/61/60 99/65/60 102/132/60 101/130/60
f 99/65/61 97/62/61 100/131/61 102/132/61
f 109/71/62 110/70/62 113/133/62 112/134/62
f 110/70/63 111/74/63 114/135/63 113/133/63
f 111/74/64 109/71/64 112/134/64 114/135/64
f 121/80/65 122/79/65 125/136/65 124/137/65
f 122/79/66 123/83/66 126/138/66 125/136/66
f 123/83/67 121/80/67 124/137/67 126/138/67
f 133/89/68 134/88/68 137/139/68 136/140/68
f 134/88/69 135/92/69 138/141/69 137/139/69
f 135/92/70 133/89/70 136/140/70 138/141/70
usemtl Material.003
f 14/12/71 23/11/71 21/2/71 17/1/71
f 18/4/72 22/3/72 24/6/72 15/5/72
f 13/16/73 26/15/73 27/10/73 19/9/73
f 16/8/74 25/7/74 28/14/74 20/13/74
f 53/118/6 54/120/6 52/119/6
f 65/121/11 66/123/11 64/122/11
f 77/124/16 78/126/16 76/125/16
f 89/127/21 90/129/21 88/128/21
f 101/130/26 102/132/26 100/131/26
f 113/133/31 114/135/31 112/134/31
f 125/136/36 126/138/36 124/137/36
f 137/139/41 138/141/41 136/140/41
usemtl Material.004
f 28/142/75 25/143/75 8/144/75 2/145/75
f 26/146/76 28/142/76 2/145/76 1/147/76
f 27/148/77 4/149/77 11/150/77 23/151/77
f 26/146/78 1/147/78 4/149/78 27/148/78
f 24/152/79 7/153/79 8/144/79 25/143/79
f 22/154/80 6/155/80 7/153/80 24/152/80
f 21/156/81 23/151/81 11/150/81 10/157/81
f 22/154/82 21/156/82 10/157/82 6/155/82
f 29/17/75 45/116/75 39/113/75 31/19/75
f 33/21/77 38/111/77 41/112/77 32/20/77
f 31/19/79 39/113/79 40/114/79 35/23/79
f 36/24/81 44/109/81 38/111/81 33/21/81
f 30/18/76 42/115/76 45/116/76 29/17/76
f 32/20/78 41/112/78 42/115/78 30/18/78
f 35/23/80 40/114/80 43/117/80 34/22/80
f 34/22/82 43/117/82 44/109/82 36/24/82
usemtl Material.005
f 49/26/6 51/29/6 46/30/6 48/27/6
f 46/30/83 55/33/83 57/31/83
f 48/27/84 46/30/84 57/31/84
f 61/35/11 63/38/11 58/39/11 60/36/11
f 58/39/85 67/42/85 69/40/85
f 60/36/86 58/39/86 69/40/86
f 73/44/16 75/47/16 70/48/16 72/45/16
f 70/48/87 79/51/87 81/49/87
f 72/45/88 70/48/88 81/49/88
f 85/53/21 87/56/21 82/57/21 84/54/21
f 82/57/89 91/60/89 93/58/89
f 84/54/90 82/57/90 93/58/90
f 97/62/26 99/65/26 94/66/26 96/63/26
f 94/66/91 103/69/91 105/67/91
f 96/63/92 94/66/92 105/67/92
f 109/71/31 111/74/31 106/75/31 108/72/31
f 106/75/93 115/78/93 117/76/93
f 108/72/94 106/75/94 117/76/94
f 121/80/36 123/83/36 118/84/36 120/81/36
f 118/84/95 127/87/95 129/85/95
f 120/81/96 118/84/96 129/85/96
f 133/89/41 135/92/41 130/93/41 132/90/41
f 130/93/97 139/96/97 141/94/97
f 132/90/98 130/93/98 141/94/98
